<?xml version="1.0" encoding="UTF-8"?>
<!DOCTYPE svg PUBLIC "-//W3C//DTD SVG 1.1//EN" "http://www.w3.org/Graphics/SVG/1.1/DTD/svg11.dtd">
<!-- Creator: CorelDRAW 2020 (64 Bit) -->
<svg xmlns="http://www.w3.org/2000/svg" xml:space="preserve" width="350px" height="298px" version="1.1" shape-rendering="geometricPrecision" text-rendering="geometricPrecision" image-rendering="optimizeQuality" fill-rule="evenodd" clip-rule="evenodd"
viewBox="0 0 190.29 161.59"
 xmlns:xlink="http://www.w3.org/1999/xlink"
 xmlns:xodm="http://www.corel.com/coreldraw/odm/2003">
 <g id="Camada_x0020_1">
  <metadata id="CorelCorpID_0Corel-Layer"/>
  <path fill="#606062" d="M59.83 161.59c-1.06,0 -2.17,-0.04 -3.31,-0.12 -31.34,-2.09 -33.93,-26.96 -27.68,-36.89 4.45,4.1 9.18,7.75 12.28,8.18 0.11,0.02 0.22,0.02 0.34,0.02 4.67,0 11.43,-12.74 15.79,-22.16l0 0c0.04,-0.06 1.43,-2.11 3.58,-2.11 0.32,0 0.65,0.04 1,0.15 2.75,0.8 12.89,10.31 17.56,12.72 0,0 -6.26,0.32 -8.3,2.94 -2.05,2.62 -7.74,5.13 -8.77,5.55 -1.04,0.41 -1.58,-0.05 -2.54,0.58 -0.96,0.63 -2.42,1.41 -2.42,1.41l0.01 0c0,0 -2.01,0.02 -3.26,0.19 -0.55,0.07 -1.28,0.05 -1.97,0.23 -0.9,0.25 -1.72,0.86 -1.93,2.53 -0.05,0.34 -0.07,0.69 -0.07,1.06l0 0c0,2.86 1.15,6.49 1.18,7.68 0.02,1.34 1.08,10.23 3.98,12.03 0.77,0.47 1.36,0.69 1.82,0.69 0.41,0 0.7,-0.18 0.9,-0.5 0.24,-0.39 0.35,-0.98 0.35,-1.73l0 0c0.01,-0.54 -0.04,-1.15 -0.12,-1.83 -0.39,-3.21 -0.44,-10.58 2.3,-12.36 0,0 0,0 0,0 0,0 0.88,-0.48 1.74,-0.73 1.18,-0.35 3.68,-1.01 4.12,-1.83 0.44,-0.82 15.85,-4.06 15.85,-4.06 0,0 11.85,-2.35 12.77,-7.97 0.91,-5.62 -23.13,-30.87 -23.13,-30.87l-0.03 -0.14c0.88,-0.26 1.39,-0.43 1.39,-0.43 0,0 -0.23,-1.06 -0.58,-2.82 -0.18,-0.88 -0.39,-1.93 -0.62,-3.12 -0.96,-4.96 -2.26,-12.19 -3,-18.38 -0.82,-6.82 -2.49,-11.64 -4.31,-15.02 -0.45,0.4 -0.91,0.74 -1.4,1.04 0.49,-0.3 0.95,-0.64 1.4,-1.04 0,0 0,0 0,0 1.69,-1.53 3.06,-3.76 4.12,-6.04 0.03,0 0.05,0 0.08,0 11.8,0 25.14,2.17 37.5,5.78 4.11,1.19 8.16,1.63 12,1.63 2.4,0 4.73,-0.17 6.94,-0.44 0.43,1.57 1.24,4.47 2.09,7.09l0 0c0.36,1.11 0.73,2.17 1.07,3.05 -0.62,0.51 -0.98,0.85 -0.98,0.85 -0.04,0.35 -0.06,0.71 -0.06,1.08 0.01,0.13 0.01,0.27 0.01,0.4 0.09,2.66 1.02,5.74 2.21,8.01 -1.82,2.82 -5.95,15.54 -7.22,21.79 -1.64,8.15 -3.62,15.04 -4.41,17.66l0 0.01c-0.22,0.73 -0.35,1.13 -0.35,1.13l0 0c0.61,0.78 1.41,1.48 2.38,2.11 0.07,4.1 0.36,10.84 1.44,15.71l0 0c-0.02,0.09 -0.05,0.18 -0.07,0.27 -4.35,-1 -8.39,-1.73 -11.86,-1.96 -0.51,-0.04 -1.01,-0.06 -1.49,-0.06 -10.07,0 -14.7,7.26 -20.53,14.52 -5.84,7.26 -12.89,14.52 -27.79,14.52zm112.63 -15.65c-2.09,-2.41 -5.36,-5.08 -6.56,-5.57 -1.75,-0.71 -2.83,-1.12 -4.91,-2.83 -1.34,-1.1 -2.7,-1.54 -3.61,-1.54 -0.49,0 -0.85,0.13 -1,0.36 -0.07,0.1 -0.18,0.27 -0.31,0.48 -0.52,0.82 -1.39,2.23 -1.72,2.78 -0.06,-0.04 -0.1,-0.06 -0.13,-0.06 0,0 -0.01,0 -0.01,0 -0.34,0.04 -1.37,0.27 -2.42,0.27 -0.43,0 -0.87,-0.04 -1.26,-0.15 -0.17,-0.05 -0.32,-0.07 -0.46,-0.07 -0.93,0 -1.21,0.98 -1.95,1.82 -0.09,0.11 -0.2,0.2 -0.32,0.28 -3.66,-1 -7.42,-2.08 -11.15,-3.14 0.94,-1.52 2.13,-3.17 3.58,-4.73 2.96,-3.2 4.07,-7.26 4.49,-9.73 1.26,0.07 2,0.09 2,0.09l0 0c0,0 -0.29,-3.39 -0.35,-7.13 2.04,-0.26 4,-0.91 5.64,-2.11 1.92,-1.4 4.01,-5.58 5.69,-10.75 0.54,-0.26 1.37,-0.78 2.01,-1.78 1.77,1.48 3.8,2.51 5.57,3.22 3.9,13.98 16.3,23.09 14.9,34.55 -0.45,3.74 -3.31,5.4 -7.72,5.74zm-133.83 -28.33c0,0 -1.61,-1.65 -4.77,-3.44 -0.25,-7.34 -5.83,-16.7 -8.51,-26.76 -2.39,-8.96 -0.19,-16.32 5.02,-22.67 0.2,1.45 0.52,3 0.94,4.59 -0.29,1.32 -0.5,2.44 -0.64,3.26 -0.16,0.94 -0.23,1.48 -0.23,1.48l0 0c0,0 0.45,0.1 1.18,0.22 -0.25,1.69 -0.41,3.05 -0.41,3.05 -0.16,0.28 -0.31,0.61 -0.45,0.96l0 0c-1.74,4.4 -1.45,9.72 -1.54,12.45 -0.07,2.19 0.17,6.22 0.17,6.22l3.83 1.28c0,0 0.18,-0.85 0.59,-2.16l0 0c0.04,-0.15 0.09,-0.3 0.14,-0.46 0.43,-1.32 1.06,-3.01 1.93,-4.77 0.81,-1.64 1.41,-3.55 1.98,-5.95 2.02,3.4 4.09,5.95 5.74,6.76 0.07,0.03 0.13,0.06 0.2,0.09 -0.46,2.22 -0.85,3.69 -0.85,3.69 0,0 0.2,0.04 0.52,0.1 -0.58,2.23 -1.14,4.78 -1.42,7.22 -0.51,4.4 -3.42,14.84 -3.42,14.84zm125.65 -23.34c-0.55,-0.3 -0.91,-0.46 -0.91,-0.46l0 0 -0.98 -1.28 -1.69 -2.21c0.61,-5.67 0.32,-10.85 -1.48,-13.66 -2.96,-4.63 -10.57,-5.59 -16.37,-5.59 -1.19,0 -2.31,0.04 -3.3,0.1l-4 -8.46 -0.42 -0.89c0,0 -1.65,-3.76 -3.32,-7.44 1.2,-0.23 2.34,-0.47 3.42,-0.69 2.89,-0.6 5.8,-1.12 8.65,-1.42 -2.1,2.49 -1.13,5.75 0.69,8.66l0 0c2.43,3.91 6.36,7.2 6.36,7.2 0,0 6.18,-2.99 6.18,-8.05 0,-0.83 -0.16,-1.72 -0.55,-2.65 -0.74,-1.79 -1.65,-3.09 -2.64,-4.03l0 0 0 0c-0.54,-0.53 -1.11,-0.94 -1.69,-1.25 7.25,0.75 13.16,4.21 15.48,13.24 1.83,7.11 0.15,15.46 -1.63,20.75 -0.97,2.88 -1.55,5.58 -1.8,8.13zm-100.94 -38.75c0,0 0,0 0,0 0,0 0,0 0,0z"/>
  <path fill="#373435" d="M105.7 39.93l-16.22 0c0,0 0.83,-5.37 3.17,-5.37 0.05,0 0.1,0 0.14,0.01 0.68,0.06 1.14,0.74 1.44,1.48 0.09,0.22 0.29,0.32 0.48,0.32 0.21,0 0.42,-0.12 0.49,-0.37 0.65,-2.27 1.97,-5.73 4.03,-5.73 2.12,0 2.19,3.96 2.03,6.37 -0.01,0.23 0.18,0.38 0.36,0.38 0.11,0 0.22,-0.04 0.3,-0.15 0.49,-0.73 1.18,-1.43 2.02,-1.43 0.11,0 0.23,0.01 0.35,0.04 1.93,0.45 1.41,4.45 1.41,4.45z"/>
  <path fill="#373435" d="M16.22 92.4l-16.22 0c0,0 0.84,-5.36 3.18,-5.36 0.04,0 0.09,0 0.14,0 0.67,0.06 1.13,0.75 1.44,1.49 0.08,0.21 0.28,0.32 0.47,0.32 0.22,0 0.43,-0.13 0.5,-0.37 0.64,-2.27 1.97,-5.73 4.02,-5.73 2.12,0 2.19,3.96 2.04,6.37 -0.02,0.23 0.17,0.38 0.36,0.38 0.11,0 0.21,-0.05 0.29,-0.16 0.49,-0.72 1.19,-1.42 2.02,-1.42 0.12,0 0.23,0.01 0.35,0.04 1.93,0.44 1.41,4.44 1.41,4.44z"/>
  <path fill="#373435" d="M188.37 70.11l-16.22 0c0,0 0.83,-5.37 3.17,-5.37 0.05,0 0.1,0 0.14,0.01 0.68,0.06 1.14,0.75 1.44,1.48 0.09,0.22 0.29,0.33 0.48,0.33 0.21,0 0.42,-0.13 0.49,-0.38 0.65,-2.27 1.98,-5.73 4.03,-5.73 2.12,0 2.19,3.96 2.03,6.38 -0.01,0.23 0.18,0.38 0.37,0.38 0.1,0 0.21,-0.05 0.29,-0.16 0.49,-0.73 1.18,-1.43 2.02,-1.43 0.11,0 0.23,0.02 0.35,0.04 1.93,0.45 1.41,4.45 1.41,4.45z"/>
  <path fill="#797D9A" d="M165.74 161.19c0,0 2.73,-0.48 2.57,-4.09 -0.16,-3.62 -1.37,-8.6 -3.78,-10.05 -2.41,-1.44 -4.17,0.65 -4.17,0.65l5.38 13.49z"/>
  <path fill="#A6A9C0" d="M154.97 147.05c0.08,1.21 1.21,2.98 3.62,4.26 2.41,1.29 3.69,5.87 4.78,7.87 0.49,0.93 1.04,1.43 1.48,1.7 0.51,0.31 0.89,0.31 0.89,0.31 0,0 0.01,-0.31 0.01,-0.86 0.01,-1.31 -0.05,-3.92 -0.51,-6.69 -0.66,-3.94 -2.99,-5.3 -2.99,-5.3 -0.43,-0.73 -1.35,-1.24 -2.39,-1.57 -1.71,-0.53 -3.76,-0.56 -4.55,-0.16 -0.23,0.12 -0.35,0.26 -0.34,0.44z"/>
  <path fill="#423C4F" d="M164.31 153c0.57,2.41 0.83,6.39 0.54,7.88 0.51,0.31 0.89,0.31 0.89,0.31 0,0 0.16,-3.61 -0.5,-7.55 -0.66,-3.94 -2.99,-5.3 -2.99,-5.3 -0.43,-0.73 -1.35,-1.24 -2.39,-1.57 1.38,1.38 3.97,4.19 4.45,6.23z"/>
  <path fill="#6E708C" d="M165.74 161.19c0,0 0,0 0,0l0 0z"/>
  <path fill="#8F93A9" d="M164.85 160.88l0 0c-0.44,-0.27 -0.99,-0.77 -1.48,-1.7 -1.09,-2 -2.37,-6.58 -4.78,-7.87 -1.73,-0.92 -2.8,-2.09 -3.29,-3.12 0.32,-0.13 0.68,-0.25 1,-0.36 0.85,1 2.1,2.3 3.17,2.84 1.85,0.92 2.93,3.08 3.58,6.06 0.48,2.25 1.22,2.98 1.89,3.29 -0.02,0.34 -0.05,0.63 -0.09,0.86z"/>
  <path fill="#423C4F" d="M165.74 161.19c0,0 0,0 0,0 -0.02,0 -0.39,0 -0.89,-0.31l0 0c0.04,-0.23 0.07,-0.52 0.09,-0.86 0.22,0.1 0.44,0.16 0.64,0.21 0.06,0.01 0.12,0.05 0.17,0.1 0,0.55 -0.01,0.86 -0.01,0.86l0 0z"/>
  <path fill="#423C4F" d="M135.56 71.55c0,0 18.61,-2.79 23.66,5.11 5.05,7.9 -1.74,34.3 -7.21,38.3 -5.48,4 -14.57,1.93 -17.98,-0.59 -3.4,-2.51 -4.98,-39.01 1.53,-42.82z"/>
  <path fill="#3E557D" d="M157.11 104.43c0,0 2.36,-0.56 3.21,-3.33l-2.82 -1.25c0,0 -1.1,2.85 -0.39,4.58z"/>
  <path fill="#F3AC86" d="M157.11 99.57c3.86,5.87 12.56,7.39 12.56,7.39 1.81,-0.52 4.21,-3.03 6.58,-6.09l0 0c4.52,-5.81 8.93,-13.61 8.93,-13.61l-3.62 -1.21c0,0 -6.34,7.02 -9.07,8.54 -2.73,1.53 -3.54,2.97 -3.54,2.97 -0.28,-0.31 -0.61,-0.61 -0.97,-0.9 -1.94,-1.6 -4.61,-2.85 -4.61,-2.85 -3.1,-0.87 -6.26,5.76 -6.26,5.76z"/>
  <path fill="#EC8E6C" d="M157.11 99.57c3.86,5.87 12.56,7.39 12.56,7.39 1.81,-0.52 4.21,-3.03 6.58,-6.09 0,0 -4.24,4.51 -6.94,4.89 -2.69,0.38 -7.8,-3.3 -8.32,-4.7 -0.51,-1.41 0.25,-4.99 2.38,-7.25 -3.1,-0.87 -6.26,5.76 -6.26,5.76z"/>
  <path fill="#423C4F" d="M120.11 114.96c0,0 -0.2,11.86 1.46,19.34 1.67,7.49 8.78,-12.25 8.78,-12.25 0,0 -6.37,-5.6 -10.24,-7.09z"/>
  <path fill="#423C4F" d="M144.96 121.91c0,0 -0.15,6.99 -4.73,11.93 -4.58,4.94 -6.55,10.72 -6.55,10.72 0,0 6.86,-3.13 11.28,-2.29 0,0 2.32,0.12 3.16,-0.84 0.85,-0.96 1.09,-2.11 2.41,-1.75 1.33,0.36 3.2,-0.06 3.68,-0.12 0.48,-0.06 3.55,4.82 2.95,8.02 0,0 -2.41,0.66 -2.71,1.08 -0.3,0.42 -2.05,2.23 -3.13,2.17 -1.09,-0.06 -3.98,1.63 -3.98,1.63 0,0 -14.9,5.67 -16.27,6.62 -2.3,1.62 -13.13,3.38 -14.1,-2.71 -0.96,-6.08 8.5,-35.01 9.82,-38.14 1.33,-3.13 16.58,-0.12 18.17,3.68z"/>
  <path fill="#626272" d="M131.41 141.96l0.42 0.16c0.15,-0.42 0.34,-0.86 0.56,-1.32l-0.41 -0.19c-0.22,0.47 -0.41,0.93 -0.57,1.35z"/>
  <path fill="#626272" d="M153.45 141.36l0.09 0.44c0.44,-0.1 0.92,-0.2 1.42,-0.28l-0.08 -0.44c-0.5,0.09 -0.98,0.18 -1.43,0.28z"/>
  <path fill="#626272" d="M131.29 145.41l-0.44 0.05 0 0.05c0.08,0.61 0.27,1.07 0.57,1.41l0.33 -0.31c-0.24,-0.25 -0.39,-0.64 -0.45,-1.16l-0.01 -0.04z"/>
  <path fill="#626272" d="M134.82 146.72l0.12 0.43c0.46,-0.13 0.95,-0.28 1.4,-0.43l-0.14 -0.42c-0.45,0.14 -0.92,0.3 -1.38,0.42z"/>
  <path fill="#626272" d="M134.47 136.33c-0.28,0.42 -0.55,0.83 -0.79,1.22l0.38 0.24c0.24,-0.38 0.5,-0.79 0.78,-1.21l-0.37 -0.25z"/>
  <path fill="#626272" d="M133.54 138.65l-0.39 -0.23c-0.26,0.44 -0.5,0.87 -0.71,1.28l0.39 0.21c0.21,-0.4 0.45,-0.83 0.71,-1.26z"/>
  <path fill="#626272" d="M142.81 121.43l-0.44 -0.08c-0.09,0.48 -0.18,0.95 -0.29,1.42l0.44 0.1c0.1,-0.48 0.2,-0.96 0.29,-1.44z"/>
  <path fill="#626272" d="M136.24 134.56l-0.37 -0.26c-0.3,0.43 -0.57,0.81 -0.83,1.19l0.37 0.25c0.25,-0.37 0.53,-0.76 0.83,-1.18z"/>
  <path fill="#626272" d="M137.32 132.3c-0.29,0.39 -0.57,0.78 -0.86,1.18l0.36 0.26c0.29,-0.4 0.58,-0.79 0.86,-1.17l-0.36 -0.27z"/>
  <path fill="#626272" d="M131.53 143.06l-0.43 -0.12c-0.14,0.52 -0.23,1.01 -0.26,1.47l0.44 0.04c0.04,-0.44 0.12,-0.9 0.25,-1.39z"/>
  <path fill="#626272" d="M132.5 147l-0.08 0.44c0.17,0.04 0.35,0.05 0.55,0.05 0.29,0 0.61,-0.03 0.98,-0.1l-0.09 -0.44c-0.56,0.11 -1,0.12 -1.36,0.05z"/>
  <path fill="#626272" d="M144.48 145.06l0.07 0.44c0.49,-0.08 0.97,-0.18 1.44,-0.31l-0.12 -0.43c-0.45,0.12 -0.92,0.22 -1.39,0.3z"/>
  <path fill="#626272" d="M146.82 144.47l0.15 0.42c0.49,-0.17 0.95,-0.36 1.37,-0.57l-0.2 -0.4c-0.4,0.2 -0.84,0.38 -1.32,0.55z"/>
  <path fill="#626272" d="M137.16 145.99l0.14 0.42c0.56,-0.17 0.99,-0.3 1.38,-0.4l-0.11 -0.43c-0.4,0.1 -0.84,0.23 -1.41,0.41z"/>
  <path fill="#626272" d="M142.06 145.28l0.01 0.45c0.48,-0.01 0.98,-0.04 1.47,-0.09l-0.05 -0.44c-0.48,0.05 -0.96,0.08 -1.43,0.08z"/>
  <path fill="#626272" d="M151.05 142.04l0.16 0.42c0.38,-0.15 0.84,-0.29 1.36,-0.43l-0.11 -0.43c-0.54,0.14 -1.02,0.29 -1.41,0.44z"/>
  <path fill="#626272" d="M149.65 142.87c-0.17,0.19 -0.4,0.37 -0.67,0.56l0.25 0.37c0.3,-0.21 0.55,-0.42 0.75,-0.63 0.08,-0.1 0.21,-0.19 0.36,-0.29l-0.24 -0.38c-0.18,0.12 -0.34,0.24 -0.45,0.37z"/>
  <path fill="#626272" d="M141.84 123.74c-0.13,0.46 -0.27,0.93 -0.42,1.37l0.42 0.15c0.16,-0.46 0.3,-0.93 0.43,-1.41l-0.43 -0.11z"/>
  <path fill="#626272" d="M137.91 131.49l0.36 0.26c0.3,-0.4 0.58,-0.79 0.86,-1.17l-0.36 -0.27c-0.28,0.39 -0.57,0.78 -0.86,1.18z"/>
  <path fill="#626272" d="M140.46 128.47l-0.39 -0.21c-0.23,0.43 -0.48,0.85 -0.73,1.24l0.37 0.24c0.26,-0.4 0.52,-0.83 0.75,-1.27z"/>
  <path fill="#626272" d="M140.51 127.37l0.41 0.19c0.2,-0.43 0.4,-0.88 0.58,-1.35l-0.42 -0.16c-0.18,0.46 -0.37,0.9 -0.57,1.32z"/>
  <path fill="#626272" d="M139.57 145.36l0.08 0.44c0.52,-0.09 0.97,-0.12 1.4,-0.1l0.02 -0.45c-0.46,-0.02 -0.94,0.02 -1.5,0.11z"/>
  <path fill="#F3AC86" d="M119.56 35.62l1.82 7.75 0.01 0.04c0,0 0.12,1.44 0.51,3.33 0.44,2.11 1.21,4.8 2.54,6.7 0.2,0.29 0.41,0.57 0.64,0.82 0,0 1.16,4.42 2.4,8.24l0 0c0.73,2.25 1.49,4.29 2.07,5.1 0,0 7.34,-1.38 5.58,-5.78 0,0 -2.5,-5.72 -4.47,-9.94l0 0c-0.38,-0.82 -0.74,-1.58 -1.06,-2.23l-2.25 -5.14 -1.08 -2.46 -3.27 -7.47 -3.44 1.04z"/>
  <path fill="#EC8E6C" d="M127.48 62.5c0.73,2.25 1.49,4.29 2.07,5.1 0,0 7.34,-1.38 5.58,-5.78 0,0 -2.5,-5.72 -4.47,-9.94 0.05,0.16 1.77,6.2 1.25,7.89 -0.52,1.72 -2.04,3.34 -4.43,2.73z"/>
  <path fill="#84BB9A" d="M127.52 67.88c0.11,3.19 1.42,7 2.95,9.26 0.92,0.97 2.06,0.97 3.24,0.46 2.98,-1.28 6.14,-5.79 6.14,-5.79l-4.3 -9.1 -0.42 -0.89c-2.43,0.67 -4.89,2.4 -6.32,3.53 -0.77,0.61 -1.24,1.05 -1.24,1.05 -0.05,0.47 -0.06,0.97 -0.05,1.48z"/>
  <path fill="#669177" d="M129.73 75.89c-1.19,-2.27 -2.12,-5.35 -2.21,-8.01 0,-0.13 0,-0.27 -0.01,-0.4 0.01,-0.37 0.02,-0.73 0.06,-1.08 0,0 0.47,-0.44 1.24,-1.05 0.38,1.72 1.32,5.6 2.7,8.71 -0.73,0.58 -1.36,1.19 -1.76,1.8 -0.01,0.01 -0.02,0.02 -0.02,0.03z"/>
  <path fill="#423C4F" d="M127.52 67.88c2.01,-1.99 6.62,-4.44 8.03,-5.17l-0.42 -0.89c-3.74,1.03 -7.56,4.58 -7.56,4.58 -0.05,0.47 -0.06,0.97 -0.05,1.48z"/>
  <path fill="#84BB9A" d="M117.75 116.48c5.6,7.25 28.97,7.72 28.97,7.72 0,0 -0.82,-9.59 0,-14.34 0.92,-5.23 1.7,-12.9 1.7,-12.9 2.14,1.56 5.41,4.47 7.27,6.16 0.86,0.79 1.42,1.31 1.42,1.31 0.59,-2.69 1.4,-4.73 2.25,-6.26 1.92,-3.48 4.01,-4.36 4.01,-4.36l-0.98 -1.28 -7.1 -9.27 -7.62 -6.31 -1.31 -1.09 -6 -3.84 -2.46 -1.58c0,0 -6.35,2.66 -8.15,5.42 -1.81,2.76 -5.97,15.55 -7.24,21.82 -1.64,8.15 -3.62,15.04 -4.41,17.66l0 0.01c-0.22,0.73 -0.35,1.13 -0.35,1.13z"/>
  <path fill="#669177" d="M146.72 124.2c0,0 -1.78,-0.04 -4.48,-0.24 -0.15,-0.01 -0.3,-0.03 -0.45,-0.04 -7.18,-0.57 -20.07,-2.3 -24.04,-7.44 0,0 0.13,-0.4 0.35,-1.13l0 -0.01c0,0 3.05,2.95 9.1,3.35 0.34,0.02 0.67,0.04 1.01,0.04 5.76,0 11.75,-3.28 13.59,-10.72 1.5,-6.09 5.86,-18.16 5.86,-18.16 3.51,3.88 11.7,8.32 11.7,8.32 -0.43,0.77 -0.85,1.68 -1.23,2.73 -0.38,1.03 -0.73,2.2 -1.02,3.53 0,0 -0.56,-0.52 -1.42,-1.31 -1.86,-1.69 -5.13,-4.6 -7.27,-6.16 0,0 -0.78,7.67 -1.7,12.9 -0.27,1.58 -0.36,3.7 -0.36,5.82 0,4.25 0.36,8.52 0.36,8.52z"/>
  <path fill="#423C4F" d="M143.94 78.36c1.39,-0.27 2.09,-1.05 3.14,-1.9l-0.72 -0.6 -6.4 -5.08c-0.85,0.54 -1.91,1.07 -2.06,3.22 -0.22,3.26 3.21,4.91 6.04,4.36z"/>
  <path fill="#423C4F" d="M155.69 103.12c0.86,0.79 1.42,1.31 1.42,1.31 1.92,-8.79 6.26,-10.62 6.26,-10.62l-0.98 -1.28c-1.79,1.28 -5.51,4.58 -6.7,10.59z"/>
  <path fill="#423C4F" d="M151.17 68.42c0,0 0.12,3.49 -3.9,4.2 0,0 1,-4.56 3.9,-4.2z"/>
  <path fill="#84BB9A" d="M144.57 60.93c2.43,3.91 6.36,7.2 6.36,7.2 0,0 8.38,-4.05 5.63,-10.7 -0.74,-1.79 -1.65,-3.09 -2.64,-4.03l0 0 0 0c-4.19,-4.01 -9.78,-1.42 -9.78,-1.42 -2.44,2.53 -1.46,5.93 0.43,8.95z"/>
  <polygon fill="#4287A6" points="153.92,53.4 153.92,53.4 153.92,53.4 "/>
  <path fill="#669177" d="M150.93 68.13c0,0 -3.93,-3.29 -6.36,-7.2 1.09,0.81 2.37,1.17 3.68,1.17 2.08,0 4.21,-0.93 5.67,-2.46 2.37,-2.46 0.05,-6.17 0,-6.24 0.99,0.94 1.9,2.24 2.64,4.03 0.39,0.93 0.55,1.82 0.55,2.65 0,5.06 -6.18,8.05 -6.18,8.05z"/>
  <path fill="#423C4F" d="M150.88 59.16c0,0 -2.19,-11.34 -9.2,-10.82 -6.57,0.48 -1.45,9.17 -1.45,9.17 0,0 9.48,2.71 10.65,1.65z"/>
  <path fill="#423C4F" d="M142.21 55.15c0,0 -3.01,0.6 -2.72,3.37 0,0 2.54,-1.51 2.72,-3.37z"/>
  <path fill="#F3AC86" d="M147.46 71.93l-1.1 3.93c-0.12,0.53 -0.53,0.96 -1.06,1.07 -4.61,1.02 -6.8,-2.36 -6.34,-3.54 0.6,-0.22 10.85,-3.5 12.71,-7.43 0,0 -0.65,3.52 -4.21,5.97z"/>
  <path fill="#F3AC86" d="M139.49 71.76c1.47,0.57 3.55,1.09 5.71,0.7 4.08,-0.72 6.2,-5.55 6.2,-5.55 0,0 0.68,-3.28 -0.23,-6.31 -0.25,-0.82 -0.62,-1.62 -1.15,-2.34 -1.92,-2.59 -5.1,-3.05 -6.86,-3.22 -0.87,-0.08 -1.71,0.33 -2.17,1.08l-0.77 1.26 -0.52 0.84c-0.11,0.18 -0.2,0.36 -0.29,0.55 -0.3,0.64 -0.49,1.33 -0.54,2.03l-0.06 0.82c-0.4,0.51 -0.7,1.08 -0.91,1.68 -0.18,0.52 -0.28,1.07 -0.3,1.63l-0.16 3.7c-0.06,1.38 0.76,2.64 2.05,3.13z"/>
  <path fill="#423C4F" d="M143.71 59.45c0,0 3.26,-1.23 3.95,1.47l-0.51 0.39c0,0 -0.98,-2.08 -3.58,-1.15l0.14 -0.71z"/>
  <path fill="#EC8E6C" d="M138.81 61.63c-0.4,0.5 -0.7,1.07 -0.91,1.67 0.65,-0.13 1.76,0.01 3.63,1.15 0,0 -0.69,-1.33 -1.74,-1.82 -0.29,-0.13 -0.37,-0.49 -0.16,-0.73l1.39 -1.56c0,0 -0.05,-0.45 -0.45,-0.79 -0.24,-0.2 -0.74,-0.54 -1.16,-0.78 -0.3,0.64 -0.49,1.33 -0.54,2.03l-0.06 0.83z"/>
  <path fill="#423C4F" d="M139.75 58.27c0.75,0.39 1.27,0.88 1.27,0.88l-0.19 0.62c-0.47,-0.42 -0.92,-0.7 -1.35,-0.87 -0.22,-0.08 -0.32,-0.32 -0.23,-0.5l0 0c0.09,-0.17 0.31,-0.23 0.5,-0.13z"/>
  <path fill="#FEFEFE" d="M138.48 64.86l5.66 1.86c0,0 -1.9,2.66 -4.76,1.32 -2.24,-1.05 -0.9,-3.18 -0.9,-3.18z"/>
  <path fill="#EC8E6C" d="M139.85 71.81c0,0 3.55,1.05 7.42,-2.85 0,0 0.08,2.1 -1.99,4.15 -1.51,1.5 -4.36,1.25 -5.8,1 -0.43,-0.07 -0.65,-0.55 -0.43,-0.93l0.8 -1.37z"/>
  <path fill="#F3AC86" d="M150.35 65.51c0,0 1.88,-1.51 2.99,0.02 1.11,1.53 -1.67,5.62 -3.47,3.84 -1.81,-1.78 0.48,-3.86 0.48,-3.86z"/>
  <path fill="#423C4F" d="M143.63 61.47c0,0 0.74,-0.83 1.61,-0.46 1.27,0.55 1.04,1.73 1.04,1.73 0,0 -0.49,-2.23 -2.65,-1.27z"/>
  <path fill="#423C4F" d="M140.48 60.9c0,0 -0.42,-1.42 -1.49,-0.39 0,0 0.94,-0.55 1.49,0.39z"/>
  <path fill="#EC8E6C" d="M140.18 57.36c0,0.04 -0.1,0.2 -0.1,0.24 0,0 1.83,-1.53 5.06,-0.29 3.22,1.25 4.8,4.3 4.8,4.3l1.23 -1.01c-0.25,-0.82 -0.62,-1.62 -1.15,-2.34 -1.92,-2.59 -5.1,-3.05 -6.86,-3.22 -0.87,-0.08 -1.71,0.33 -2.17,1.08l-0.81 1.24z"/>
  <path fill="#423C4F" d="M149.37 65.75l1.06 0.48 1.54 -1.39c0.25,-1.33 -0.83,-4.88 -1.09,-5.68 -0.13,-0.13 -0.36,-0.26 -0.52,-0.39 0,0 -1.06,3.68 0.09,5.04l-1.08 1.94z"/>
  <path fill="#EC8E6C" d="M121.38 43.37l0.01 0.04c0,0 0.12,1.44 0.51,3.33l5.45 -2.23 -1.08 -2.46 -4.89 1.32z"/>
  <path fill="#669177" d="M129.78 89.44c-0.29,0 -0.61,-0.06 -0.94,-0.19 -3.98,-1.63 0.53,-8.55 0.53,-8.55l4.31 3.85c0,0 -1.24,4.89 -3.9,4.89z"/>
  <polygon fill="#423C4F" points="115.61,47.43 134.8,40.27 130.06,27.56 110.87,34.73 "/>
  <polygon fill="#423C4F" points="110.87,34.73 115.61,47.43 134.8,40.27 134.08,40.06 111.41,33.63 111.04,34.37 111.04,34.37 "/>
  <path fill="#FEFEFE" d="M111.04 34.37l4.54 12.18c0.26,-0.1 0.14,-0.05 0.58,-0.22l6.89 -9.75 -11.64 -2.95 -0.37 0.74z"/>
  <polygon fill="#423C4F" points="116.16,46.33 134.51,39.48 129.77,26.77 111.41,33.63 "/>
  <path fill="#F3AC86" d="M117.62 30.26l0 -0.01c0.22,-0.26 0.62,-0.43 0.88,-0.42 0.05,-0.25 0.34,-0.44 0.68,-0.5 0.19,-0.04 0.39,-0.01 0.57,0.08 0.15,-0.29 0.53,-0.46 0.73,-0.35 0,0 0.05,0.02 0.14,0.06 0.07,-0.21 0.23,-0.32 0.23,-0.32l0 0c0.22,-0.31 0.83,-0.47 1.06,-0.34 0,0 2.03,0.82 2.23,2.39 0.19,1.57 0.48,3.39 -0.25,3.13 -0.21,-0.07 -0.41,-0.33 -0.59,-0.69 0.08,0.94 0.03,1.65 -0.44,1.48 -0.26,-0.09 -0.52,-0.48 -0.73,-0.97 0.05,0.79 -0.03,1.35 -0.45,1.2 -0.38,-0.14 -0.75,-0.9 -0.99,-1.71 0.07,0.91 0.02,1.57 -0.44,1.41 -0.56,-0.2 -0.72,-1.47 -1.11,-2.48 -0.47,-1.2 -0.57,-0.57 -1.25,-1.01l-0.61 0.23c-0.12,-0.7 0.3,-1.14 0.34,-1.18z"/>
  <path fill="#F3AC86" d="M180.52 88.08c-0.85,-0.53 -1.47,-1.36 -1.74,-2.33 -0.07,-0.28 -0.16,-0.58 -0.27,-0.87 -0.4,-1.12 -0.08,-3.53 0,-4.5 0.08,-0.96 0.77,-2.81 0.97,-3.01 0.2,-0.2 1.4,0.66 0.92,1.89 -0.48,1.24 -0.14,2.62 0.11,3.02 0.25,0.39 1.38,-0.33 1.66,-1.05 0.28,-0.73 2.73,-6.19 3.21,-6.35 0.48,-0.16 0.88,-0.04 0.56,1.37 -0.32,1.4 -1.84,3.85 -1.64,4.54 0.2,0.68 0.56,0.12 0.68,-0.25 0.12,-0.36 2.09,-5.53 2.41,-5.71 0.32,-0.19 1.25,-0.51 0.76,1.68 -0.48,2.19 -1.98,4.86 -1.89,5.34 0.1,0.48 2.14,-4.85 2.72,-5.15 0.57,-0.3 0.99,0.24 0.54,1.56 -0.45,1.33 -1.66,3.9 -1.76,4.19 -0.09,0.25 -0.04,0.45 0.17,0.33 0.21,-0.12 1.49,-3.25 1.78,-3.43 0.29,-0.18 1.01,0.15 0.23,2.29 -0.78,2.14 -1.3,4.03 -3.43,6 -1.32,1.22 -1.96,1.95 -3.2,1.77 -0.74,-0.11 -1.86,-0.76 -2.79,-1.33z"/>
  <path fill="#423C4F" d="M153.92 82.07c0,0 0.53,-5.8 -4.02,-7 -3.26,-0.87 -8.78,5.14 -10.18,11.89 -2.48,11.93 3.26,22.33 7.01,23.7 0,0 3.42,-2.65 0.81,-6.23 0,0 -7.06,-7.11 -3.91,-17.35 2.62,-8.53 6.8,-10.73 8.38,-6.54l1.91 1.53z"/>
  <path fill="#423C4F" d="M124.85 88.85l1.95 -6c0,0 -0.27,-10.47 10.78,-13.11 -0.11,-0.35 -0.16,-0.73 -0.15,-1.11l0.07 -1.6c-1.38,0.09 -15.46,4.17 -12.65,21.82z"/>
  <path fill="#EC8E6C" d="M168.95 101.06c-0.21,-1.89 0,-3.5 0,-3.5 -0.28,-0.31 -0.61,-0.61 -0.97,-0.9 -0.47,3.69 0.97,4.4 0.97,4.4z"/>
  <path fill="#EC8E6C" d="M124.44 53.44c0.2,0.29 0.41,0.57 0.64,0.82 0,0 1.87,-1.08 2.4,-1.37 0,0 -1.72,0.03 -3.04,0.55z"/>
  <path fill="#A6A9C0" d="M154.21 139.84c1,0.94 1.8,3.15 2.33,4.93l0 0.01c0.43,1.45 0.66,2.62 0.66,2.62 0.89,0.97 2.91,0.69 6.17,1.04 2.92,0.32 4.97,2.36 7.16,3.23l0 0c0.24,0.1 0.49,0.18 0.73,0.25 1.3,0.34 2.21,0.12 2.71,-0.5 0.45,-0.57 0.56,-1.48 0.3,-2.63 -0.54,-2.41 -6.62,-7.71 -8.37,-8.42 -1.75,-0.71 -2.83,-1.12 -4.91,-2.83 -2.08,-1.71 -4.19,-1.82 -4.61,-1.18 -0.07,0.1 -0.18,0.27 -0.31,0.48 -0.65,1.03 -1.86,3 -1.86,3z"/>
  <path fill="#423C4F" d="M156.07 136.84c0.69,-0.08 1.85,-0.11 2.68,0.37 1.24,0.73 3.01,2.41 4.9,3.3 1.89,0.88 5.5,3.37 7.39,5.14 1.89,1.76 3,4.55 2.45,5.46 -0.55,0.91 -1.55,0.88 -2.96,0.56 0.24,0.1 0.49,0.18 0.73,0.25 2.47,0.65 3.56,-0.71 3.01,-3.13 -0.54,-2.41 -6.62,-7.71 -8.37,-8.42 -1.75,-0.71 -2.83,-1.12 -4.91,-2.83 -2.08,-1.71 -4.19,-1.82 -4.61,-1.18 -0.07,0.1 -0.18,0.27 -0.31,0.48z"/>
  <path fill="#8F93A9" d="M172.39 152.08c-0.34,0 -0.71,-0.05 -1.13,-0.16 0.42,0.11 0.79,0.16 1.13,0.16 0.32,0 0.6,-0.05 0.84,-0.14 -0.24,0.09 -0.52,0.14 -0.84,0.14zm-0.41 -0.2c-0.42,0 -0.9,-0.08 -1.45,-0.21l0 0 0 0c-2.19,-0.87 -4.24,-2.91 -7.16,-3.23 -0.39,-0.04 -0.77,-0.07 -1.12,-0.1 -0.34,-0.03 -0.66,-0.05 -0.97,-0.07 -2.05,-0.12 -3.4,-0.13 -4.08,-0.87 0,0 0,-0.01 0,-0.04 -0.05,-0.21 -0.28,-1.28 -0.66,-2.58 0.44,1.33 3.99,2.48 6.47,2.48 0.12,0 0.24,0 0.36,-0.01 0.09,0 0.18,0 0.27,0 0.25,0 0.48,0.01 0.7,0.05 0,0 0.35,-0.93 0.47,-2.22 0,0 0.65,1.26 0.37,2.41 1.53,0.43 2.39,1.51 4.29,2.62 1,0.57 1.94,0.75 2.72,0.75 0.6,0 1.09,-0.11 1.43,-0.21 -0.01,0.19 -0.06,0.34 -0.13,0.46 -0.34,0.56 -0.84,0.77 -1.51,0.77z"/>
  <path fill="#8F93A9" d="M173.24 151.94c0,0 0,0 0,0 0,0 0,0 0,0z"/>
  <path fill="#8F93A9" d="M173.25 151.94c0,0 0,0 0,0z"/>
  <path fill="#423C4F" d="M172.39 152.08c-0.34,0 -0.71,-0.05 -1.13,-0.16l0 0c-0.24,-0.07 -0.49,-0.15 -0.73,-0.25l0 0c0.55,0.13 1.03,0.21 1.45,0.21 0.67,0 1.17,-0.21 1.51,-0.77 0.07,-0.12 0.12,-0.27 0.13,-0.46 0.33,-0.09 0.51,-0.18 0.51,-0.18l-0.16 0.95c-0.18,0.23 -0.43,0.41 -0.72,0.52l0 0c0,0 0,0 0,0l0 0c-0.01,0 -0.01,0 -0.01,0l0 0c0,0 0,0 0,0l0 0c0,0 0,0 -0.01,0l0 0c-0.24,0.09 -0.52,0.14 -0.84,0.14z"/>
  <path fill="#A6A9C0" d="M11.21 121.8c0.76,-0.04 1.38,-0.43 1.92,-0.99l0.05 -0.05 0 -0.01c0.94,-1 1.62,-2.54 2.28,-3.7 0.19,-0.34 0.39,-0.64 0.59,-0.89 0.63,-0.79 1.72,-2.88 2.68,-4.8 0.04,-0.09 0.09,-0.19 0.14,-0.29 0.93,-1.87 1.68,-3.52 1.68,-3.52 0,0 -0.35,-1.03 -0.91,-2.08 -0.17,-0.33 -0.37,-0.65 -0.57,-0.96 -0.42,-0.6 -0.9,-1.1 -1.42,-1.26 -1.61,-0.49 -3.1,0.57 -4.33,2.01 -1.21,1.41 -4.54,7.36 -5.09,9.82 -0.01,0.06 -0.02,0.11 -0.03,0.16 -0.56,3.1 0.5,6.71 3.01,6.56z"/>
  <path fill="#423C4F" d="M11.21 121.8c0.78,-0.04 1.42,-0.45 1.97,-1.04 -1.75,0.83 -2.81,0.33 -3.43,-0.37 -0.76,-0.86 -1.05,-3.24 -0.85,-4.25 0.49,-2.45 2.3,-6.28 3.22,-7.81 0.92,-1.53 2.75,-4.05 4.52,-4.3 1.02,-0.14 1.88,0.18 2.43,0.48 -0.42,-0.6 -0.9,-1.1 -1.42,-1.26 -1.61,-0.49 -3.1,0.57 -4.33,2.01 -1.24,1.44 -4.69,7.61 -5.12,9.98 -0.56,3.1 0.5,6.71 3.01,6.56z"/>
  <path fill="#8F93A9" d="M11.21 121.8c0.26,-0.01 0.51,-0.07 0.74,-0.16 -0.23,0.09 -0.48,0.15 -0.74,0.16zm0.74 -0.16c0,0 0,0 0.01,0 -0.01,0 -0.01,0 -0.01,0zm-0.44 -0.45c-0.8,0 -1.37,-0.36 -1.76,-0.8 -0.35,-0.4 -0.6,-1.12 -0.75,-1.88 0.27,0.51 0.77,0.8 1.78,0.8 0.02,0 0.03,0 0.05,0 2.43,-0.02 3.11,-2.49 4.4,-5.08 0.86,-1.73 1.76,-2.81 2.18,-3.27 -0.13,0.39 -0.27,0.82 -0.41,1.31 0,0 -0.56,0.98 0.26,1.6 0.05,0.03 0.09,0.06 0.13,0.09 -0.52,0.96 -1,1.77 -1.34,2.2 -0.2,0.25 -0.4,0.55 -0.59,0.89 -0.66,1.16 -1.34,2.7 -2.28,3.7l0 0.01c-0.65,0.31 -1.2,0.43 -1.67,0.43zm-3.31 -5.95c0.01,-0.05 0.02,-0.1 0.03,-0.16 0,0 0,0 0,0 -0.01,0.06 -0.02,0.11 -0.03,0.16z"/>
  <path fill="#423C4F" d="M11.06 121.81c-1.97,0 -3.01,-2.38 -3.01,-4.92 0,-0.55 0.05,-1.11 0.15,-1.65l0 0c0.01,-0.05 0.02,-0.1 0.03,-0.16 0.03,-0.01 0.05,-0.01 0.07,-0.01 0.11,0 0.18,0.12 0.22,0.38 0.19,1.3 0.12,2.38 0.48,3.06 0.15,0.76 0.4,1.48 0.75,1.88 0.39,0.44 0.96,0.8 1.76,0.8 0.47,0 1.02,-0.12 1.67,-0.43l0 0 -0.05 0.05c-0.35,0.37 -0.74,0.66 -1.17,0.83l0 0c-0.01,0 -0.01,0 -0.01,0l0 0c0,0 0,0 0,0l0 0c-0.23,0.09 -0.48,0.15 -0.74,0.16l0 0c-0.05,0 -0.1,0.01 -0.15,0.01z"/>
  <path fill="#A6A9C0" d="M51.32 143.55c0.02,1.34 1.08,10.23 3.98,12.03 1.46,0.91 2.3,0.87 2.72,0.19 0.24,-0.39 0.35,-0.98 0.35,-1.73 0.01,-0.54 -0.04,-1.15 -0.12,-1.83 -0.4,-3.26 -0.44,-10.8 2.42,-12.44 0,0 -0.52,-3.89 -1.86,-6.29 -0.41,-0.72 -0.88,-1.31 -1.45,-1.62 0.01,0 -2,0.02 -3.25,0.19 -0.55,0.07 -1.28,0.05 -1.97,0.23 -0.9,0.25 -1.72,0.86 -1.93,2.53 -0.38,2.94 1.08,7.39 1.11,8.74z"/>
  <path fill="#423C4F" d="M51.32 143.55c0.02,1.34 1.08,10.23 3.98,12.03 1.46,0.91 2.3,0.87 2.72,0.19 -0.74,0.03 -1.76,-0.21 -2.68,-1 -1.26,-1.08 -2.84,-7.18 -2.75,-9.15 0.1,-1.97 -0.72,-5.56 -1.43,-8.3 -0.54,-2.08 0.46,-4.15 0.98,-5.04 -0.9,0.25 -1.72,0.86 -1.93,2.53 -0.38,2.94 1.08,7.39 1.11,8.74z"/>
  <path fill="#8F93A9" d="M57.9 155.77c-0.73,0 -1.69,-0.26 -2.56,-1 -1.26,-1.08 -2.84,-7.18 -2.75,-9.15 0.1,-1.97 -0.72,-5.56 -1.43,-8.3 -0.54,-2.08 0.46,-4.15 0.98,-5.04l0 0c0.69,-0.18 1.42,-0.16 1.97,-0.23 1.25,-0.17 3.25,-0.19 3.25,-0.19l0.01 0c-0.01,0.66 0.03,1.3 0.14,1.93 -1.25,0.03 -3.15,0.32 -3.91,1.72 -1.18,2.16 0.88,4.86 0.63,8.3 -0.24,3.44 0.1,8.64 1.79,9.6 0.79,0.44 1.49,0.66 2.02,0.66 0.12,0 0.23,-0.01 0.33,-0.03 0,0.75 -0.11,1.34 -0.35,1.73l0 0c-0.04,0 -0.08,0 -0.12,0z"/>
  <path fill="#423C4F" d="M57.12 156.27c-0.46,0 -1.05,-0.22 -1.82,-0.69 -2.9,-1.8 -3.96,-10.69 -3.98,-12.03 -0.03,-1.19 -1.18,-4.82 -1.18,-7.68 0,-0.37 0.02,-0.72 0.07,-1.06 0.21,-1.67 1.03,-2.28 1.93,-2.53 -0.52,0.89 -1.52,2.96 -0.98,5.04 0.71,2.74 1.53,6.33 1.43,8.3 -0.09,1.97 1.49,8.07 2.75,9.15 0.87,0.74 1.83,1 2.56,1 0.04,0 0.08,0 0.12,0l0 0c-0.2,0.32 -0.49,0.5 -0.9,0.5z"/>
  <path fill="#423C4F" d="M51.57 49.34c0,0 -17.45,0.48 -20.78,8.51 -3.33,8.04 7.16,31.05 12.81,33.82 5.65,2.76 13.63,-0.61 16.33,-3.46 2.7,-2.85 -1.79,-36.44 -8.36,-38.87z"/>
  <path fill="#F3AC86" d="M40.67 70.76c0,0 -0.02,3.24 -1.35,6.77 0,0 -0.39,2.36 -1,5.27l0 0.01c-0.71,3.43 -1.41,5.96 -2.44,8.05 -0.87,1.76 -1.5,3.45 -1.93,4.77 -0.05,0.16 -0.1,0.31 -0.14,0.46l0 0c-0.41,1.31 -0.59,2.16 -0.59,2.16l-3.83 -1.28c0,0 -0.24,-4.03 -0.17,-6.22 0.09,-2.73 -0.2,-8.05 1.54,-12.45l0 0c0.14,-0.35 0.29,-0.68 0.45,-0.96 0,0 0.49,-4.35 1.2,-7.21 0.24,-0.96 0.49,-1.74 0.77,-2.16 0,0 5.66,-0.59 7.49,2.79z"/>
  <path fill="#EC8E6C" d="M33.69 77.73c0,0 -2.23,0.03 -2.93,0.57l0 0c0.14,-0.35 0.29,-0.68 0.45,-0.96 0,0 1.71,-0.1 2.48,0.39z"/>
  <path fill="#EC8E6C" d="M40.67 70.76c0,0 -0.02,3.24 -1.35,6.77 0,0 -0.39,2.36 -1,5.27 0.24,-2.19 0.07,-6.14 0.12,-9.01 0.03,-1.97 -1.74,-2.43 -3.29,-2.98 -0.64,-0.23 -1.9,-0.47 -2.65,-0.71l-0.09 0.03c0.24,-0.96 0.49,-1.74 0.77,-2.16 0,0 5.66,-0.59 7.49,2.79z"/>
  <path fill="#F3AC86" d="M32.65 95.27l3.67 2.6c0.38,0.27 0.62,0.72 0.63,1.19l0.06 3.54c0,0.42 -0.33,0.76 -0.75,0.77 -0.35,0 -0.66,-0.23 -0.75,-0.57l-0.85 -3.33 -0.86 -0.32 0.54 1.99 0.67 1.8 1.67 2.09c0.24,0.3 0.18,0.75 -0.13,0.98 -0.28,0.2 -0.66,0.16 -0.89,-0.08l-2.21 -2.29 -1.47 -1.81 1.16 2.27 2.24 3.34c0.15,0.22 0.15,0.51 0,0.73 -0.23,0.34 -0.71,0.39 -1,0.1l-2.43 -2.41 -1.38 -2.15 1.21 3.79 1.08 2.43c0.11,0.26 0.02,0.58 -0.23,0.73 -0.28,0.17 -0.64,0.09 -0.81,-0.19l-1.56 -2.52 -1.12 -2.92 0.72 2.52 0.4 0.86c0.08,0.17 0.01,0.39 -0.17,0.47 -0.16,0.07 -0.34,0.02 -0.44,-0.11l-0.6 -0.83 -0.88 -2.08 1.24 -8.92c0,0 0.51,-1.23 3.24,-1.67z"/>
  <path fill="#EC8E6C" d="M33.81 96.09c0,0 -1.13,-0.67 -2.46,-0.51 0,0 1.43,-0.54 2.6,0.05l-0.14 0.46z"/>
  <path fill="#F3AC86" d="M68.74 42.55c3.91,-7.69 2.32,-17.8 2.04,-20.35 -0.02,-0.23 -0.12,-0.54 -0.28,-0.92l0 0c-1.48,-3.52 -8.18,-12.99 -9.71,-15.13 -0.1,-0.15 -0.18,-0.26 -0.23,-0.33 -0.05,-0.07 -0.08,-0.11 -0.08,-0.11l-4.7 2.19c0,0 3.16,3.3 4.4,7.45 1.25,4.15 4.22,9.59 4.22,9.59 -1.31,4.81 -1.41,11.1 -1.41,11.1 2.27,5.33 5.75,6.51 5.75,6.51z"/>
  <path fill="#EC8E6C" d="M68.74 42.55c3.91,-7.69 2.32,-17.8 2.04,-20.35 -0.02,-0.23 -0.12,-0.54 -0.28,-0.92 -0.01,0.13 -0.12,8.27 -0.65,10.89 -0.53,2.65 -1.38,5.44 -2.93,5.81 -1.55,0.37 -3.09,-0.51 -3.93,-1.94 2.27,5.33 5.75,6.51 5.75,6.51z"/>
  <path fill="#F3AC86" d="M60.47 6.09c-0.63,0.67 -3.36,2.52 -3.76,2.7 -0.14,0.06 -0.32,-0.03 -0.51,-0.17 -0.18,0 -1.38,0.02 -2.03,-0.29 -0.36,-0.18 -0.34,-0.69 -0.24,-1.23 -0.86,-0.23 -2.52,-1.6 -2.47,-2.86 0.06,-1.38 1.54,-1.44 1.54,-1.44 0.07,-1.58 1.57,-1.29 1.57,-1.29 0.09,-0.68 1.35,-0.96 1.35,-0.96 0.14,-0.58 0.96,-0.66 1.44,-0.42 0.47,0.24 3.27,3.65 3.38,4.26 0.11,0.62 -0.27,1.7 -0.27,1.7z"/>
  <path fill="#EC8E6C" d="M56.18 6.4c0.19,0.79 -0.47,0.88 -0.47,0.88 0.13,-0.1 0.13,-0.44 0.1,-0.73 0,0 0,-0.2 -0.07,-0.44l0 0c-0.07,-0.26 -0.23,-0.57 -0.56,-0.72 -0.59,-0.29 -0.86,-0.11 -0.86,-0.11l-1.14 -1.64c0.6,0.39 1.39,1.29 1.39,1.29 1.05,-0.02 1.43,0.77 1.56,1.2 0.2,-0.01 0.43,-0.1 0.52,-0.38 0.18,-0.57 -0.18,-1.14 -0.18,-1.14l-1.59 -2.22c0,0 2.19,2.14 2.22,2.96 0.04,1.08 -0.92,1.05 -0.92,1.05z"/>
  <path fill="#EC8E6C" d="M56.54 1.74c0,0 1.42,1.79 1.6,2.27 0.2,0.53 -0.14,1.04 -0.53,1.14 -0.38,0.09 -0.6,-0.11 -0.6,-0.11l-0.01 0.55c0,0 1.48,0.26 1.5,-1.14 0.01,-0.71 -1.96,-2.71 -1.96,-2.71z"/>
  <path fill="#EC8E6C" d="M58.41 4.12c0,0 0.35,0.35 0.79,0.22 0.44,-0.13 0.53,-0.42 0.44,-0.69 0,0 0.26,0.27 0.02,0.64 -0.3,0.49 -1.03,0.38 -1.26,0.31l0.01 -0.48z"/>
  <path fill="#EC8E6C" d="M59.91 6.73c0,0 0.53,-0.1 0.88,-0.58 -0.1,-0.15 -0.18,-0.26 -0.23,-0.33 0,0 -0.22,0.46 -0.65,0.91z"/>
  <path fill="#EC8E6C" d="M56.56 8.8c0,0 0.69,-0.06 1.08,-0.3 0,0 -0.37,0.47 -0.85,0.59l-0.23 -0.29z"/>
  <path fill="#EC8E6C" d="M64.4 24.94c0,0 2.06,-0.32 2.76,-0.9 0,0 -0.75,1.77 -3,1.83l0.24 -0.93z"/>
  <path fill="#423C4F" d="M17.26 113.87c0.83,0.61 0.45,0.75 1.27,1.2 0.79,0.43 2.88,2.13 3,2.24l0.01 0c5.44,5.78 14.61,14.77 19.58,15.45 4.68,0.64 11.67,-12.5 16.13,-22.14l0 0c0.04,-0.07 1.86,-2.75 4.58,-1.96 2.75,0.8 12.89,10.31 17.56,12.72 0,0 -6.26,0.32 -8.3,2.94 -2.05,2.62 -7.74,5.13 -8.77,5.55 -1.04,0.41 -1.58,-0.05 -2.54,0.58 -0.96,0.63 -2.42,1.41 -2.42,1.41 -0.03,2.92 1.06,5.45 3.19,7.99 0,0 0.88,-0.48 1.74,-0.73 1.18,-0.35 3.68,-1.01 4.12,-1.83 0.44,-0.82 15.85,-4.06 15.85,-4.06 0,0 11.85,-2.35 12.77,-7.97 0.91,-5.62 -23.13,-30.87 -23.13,-30.87l-1.86 -8.1 -8.68 1.44 0 0 -15.84 1.2c0,0 -2.71,7.28 -3.47,13.84 -0.51,4.4 -3.42,14.84 -3.42,14.84 0,0 -2.68,-2.75 -7.89,-4.98 -1.34,-0.57 -2.71,-1.2 -4.02,-1.81l0.01 0c0,0 -1.98,-0.99 -2.67,-1.95 -0.69,-0.95 -1.11,-0.58 -1.86,-0.81 -0.74,-0.22 -1.37,-1.13 -1.87,-1.03 -0.5,0.09 -0.64,0.33 -0.64,0.33 -1.27,1.2 -1.84,1.99 -2.69,4.91 0,0 -0.56,0.98 0.26,1.6z"/>
  <path fill="#626272" d="M31.44 115.51l-0.19 0.29c0.37,0.23 0.77,0.51 1.19,0.82l0.2 -0.27c-0.42,-0.31 -0.83,-0.6 -1.2,-0.84z"/>
  <path fill="#626272" d="M29.26 114.34l-0.16 0.29c0.36,0.19 0.71,0.37 1.03,0.53 0.09,0.04 0.18,0.09 0.27,0.13l0.15 -0.29c-0.09,-0.05 -0.18,-0.1 -0.28,-0.15 -0.32,-0.15 -0.66,-0.33 -1.01,-0.51z"/>
  <path fill="#626272" d="M26.95 113.43c0.43,0.25 0.85,0.49 1.26,0.72l0.17 -0.29c-0.41,-0.23 -0.83,-0.47 -1.26,-0.72l-0.17 0.29z"/>
  <path fill="#626272" d="M33.22 117.24c0.35,0.28 0.72,0.58 1.12,0.93l0.22 -0.26c-0.41,-0.34 -0.77,-0.65 -1.12,-0.93l-0.22 0.26z"/>
  <path fill="#626272" d="M37.15 120.22l-0.23 0.26c0.48,0.42 0.8,0.67 1.03,0.82 0.05,0.04 0.11,0.07 0.16,0.09l0.14 -0.3 -0.12 -0.07c-0.21,-0.14 -0.52,-0.38 -0.98,-0.8z"/>
  <path fill="#626272" d="M39.06 121.03l0.17 0.29c0.35,-0.19 0.71,-0.56 1.06,-1.07l-0.27 -0.19c-0.33,0.47 -0.65,0.8 -0.96,0.97z"/>
  <path fill="#626272" d="M35.31 118.58l-0.22 0.25c0.32,0.28 0.62,0.56 0.91,0.82l0.17 0.15 0.23 -0.25 -0.18 -0.15c-0.28,-0.26 -0.59,-0.54 -0.91,-0.82z"/>
  <path fill="#626272" d="M24.84 112.14c0.4,0.25 0.82,0.51 1.24,0.77l0.18 -0.29c-0.42,-0.25 -0.84,-0.51 -1.24,-0.77l-0.18 0.29z"/>
  <path fill="#626272" d="M19.04 108.65c-0.09,0.1 -0.17,0.2 -0.25,0.3 0.26,0.04 0.64,0.1 1.06,0.2l0.08 -0.33c-0.34,-0.08 -0.65,-0.13 -0.89,-0.17z"/>
  <path fill="#626272" d="M20.91 109.11l-0.11 0.31c0.49,0.19 0.87,0.4 1.12,0.63l0.07 0.07 0.23 -0.25 -0.07 -0.07c-0.29,-0.26 -0.7,-0.49 -1.24,-0.69z"/>
  <path fill="#626272" d="M23 110.48l-0.2 0.27c0.34,0.25 0.74,0.53 1.2,0.84l0.18 -0.28c-0.45,-0.31 -0.85,-0.58 -1.18,-0.83z"/>
  <path fill="#626272" d="M45.01 100.13l0.33 0.09c0.12,-0.47 0.24,-0.94 0.37,-1.41l-0.32 -0.09c-0.13,0.47 -0.26,0.94 -0.38,1.41z"/>
  <path fill="#626272" d="M45.66 97.75l0.32 0.09c0.13,-0.47 0.26,-0.94 0.4,-1.4l-0.33 -0.09c-0.13,0.46 -0.26,0.93 -0.39,1.4z"/>
  <path fill="#626272" d="M43.84 104.92l0.33 0.07c0.1,-0.45 0.21,-0.93 0.32,-1.41l-0.32 -0.08c-0.12,0.48 -0.23,0.96 -0.33,1.42z"/>
  <path fill="#626272" d="M44.4 102.52l0.33 0.08c0.11,-0.46 0.23,-0.93 0.35,-1.41l-0.32 -0.08c-0.12,0.48 -0.24,0.95 -0.36,1.41z"/>
  <path fill="#626272" d="M46.34 95.38l0.32 0.09c0.14,-0.47 0.28,-0.94 0.42,-1.39l-0.33 -0.1c-0.13,0.46 -0.27,0.92 -0.41,1.4z"/>
  <path fill="#626272" d="M40.52 119.21l0.3 0.15c0.2,-0.39 0.41,-0.85 0.6,-1.34l-0.31 -0.12c-0.19,0.48 -0.39,0.92 -0.59,1.31z"/>
  <path fill="#626272" d="M47.81 90.67l0.32 0.11c0.17,-0.5 0.33,-0.96 0.48,-1.37l-0.31 -0.12c-0.16,0.41 -0.32,0.88 -0.49,1.38z"/>
  <path fill="#626272" d="M47.05 93.02l0.32 0.1c0.15,-0.48 0.3,-0.95 0.44,-1.39l-0.32 -0.1c-0.14,0.44 -0.29,0.91 -0.44,1.39z"/>
  <path fill="#626272" d="M41.46 116.96l0.31 0.11c0.16,-0.44 0.3,-0.91 0.44,-1.4l-0.33 -0.09c-0.13,0.48 -0.27,0.95 -0.42,1.38z"/>
  <path fill="#626272" d="M43.34 107.34l0.33 0.06c0.08,-0.44 0.18,-0.92 0.29,-1.42l-0.33 -0.07c-0.11,0.5 -0.2,0.98 -0.29,1.43z"/>
  <path fill="#626272" d="M42.14 114.61l0.33 0.08c0.11,-0.46 0.22,-0.94 0.31,-1.42l-0.33 -0.07c-0.09,0.48 -0.2,0.95 -0.31,1.41z"/>
  <path fill="#626272" d="M42.63 112.22l0.33 0.05c0.08,-0.48 0.15,-0.96 0.21,-1.44l-0.33 -0.05c-0.06,0.48 -0.13,0.96 -0.21,1.44z"/>
  <path fill="#626272" d="M42.95 109.78l0.34 0.04c0.05,-0.42 0.12,-0.91 0.2,-1.43l-0.33 -0.05c-0.08,0.52 -0.16,1.01 -0.21,1.44z"/>
  <path fill="#626272" d="M63.43 107c-0.49,-0.01 -1,0.06 -1.48,0.21l0.1 0.32c0.45,-0.14 0.91,-0.2 1.37,-0.19l0.01 -0.34z"/>
  <path fill="#626272" d="M65.68 108l0.17 -0.29c-0.13,-0.08 -0.26,-0.15 -0.38,-0.2 -0.33,-0.16 -0.67,-0.28 -1.01,-0.37l-0.08 0.33c0.32,0.08 0.64,0.19 0.95,0.34 0.11,0.05 0.23,0.12 0.35,0.19z"/>
  <path fill="#626272" d="M66.56 129.44l0.14 0.3c0.44,-0.21 0.88,-0.44 1.3,-0.66l-0.15 -0.3c-0.42,0.22 -0.86,0.45 -1.29,0.66z"/>
  <path fill="#626272" d="M68.73 128.31l0.16 0.29c0.46,-0.24 0.89,-0.49 1.28,-0.71l-0.17 -0.29c-0.39,0.22 -0.82,0.46 -1.27,0.71z"/>
  <path fill="#626272" d="M70.85 127.07l0.18 0.29c0.51,-0.32 0.91,-0.6 1.21,-0.84l-0.21 -0.27c-0.29,0.24 -0.68,0.51 -1.18,0.82z"/>
  <path fill="#626272" d="M58.17 133.68c0.3,-0.21 0.59,-0.4 0.87,-0.58l-0.17 -0.29c-0.25,0.16 -0.51,0.33 -0.77,0.51 0.02,0.12 0.04,0.24 0.07,0.36z"/>
  <path fill="#626272" d="M59.75 132.31l0.16 0.29c0.48,-0.25 0.92,-0.44 1.3,-0.56l-0.09 -0.32c-0.41,0.12 -0.87,0.32 -1.37,0.59z"/>
  <path fill="#626272" d="M68.45 110.04c0.34,0.28 0.71,0.6 1.11,0.94l0.22 -0.25c-0.4,-0.35 -0.77,-0.67 -1.11,-0.95l-0.22 0.26z"/>
  <path fill="#626272" d="M62.07 131.43l0.11 0.32c0.39,-0.14 0.85,-0.32 1.37,-0.54l-0.13 -0.31c-0.52,0.22 -0.97,0.4 -1.35,0.53z"/>
  <path fill="#626272" d="M64.34 130.5l0.13 0.3c0.43,-0.19 0.87,-0.4 1.33,-0.61l-0.15 -0.31c-0.45,0.22 -0.89,0.43 -1.31,0.62z"/>
  <path fill="#626272" d="M60.79 108.13c0.11,-0.07 0.23,-0.15 0.36,-0.22l-0.16 -0.29c-0.24,0.13 -0.44,0.26 -0.61,0.39 0.14,0.04 0.27,0.08 0.41,0.12z"/>
  <path fill="#626272" d="M66.71 108.26l-0.19 0.27c0.34,0.24 0.73,0.54 1.15,0.87l0.21 -0.26c-0.43,-0.34 -0.82,-0.64 -1.17,-0.88z"/>
  <path fill="#626272" d="M81.17 123.15c-0.16,0.12 -0.54,0.26 -1.17,0.43l0.09 0.32c0.69,-0.18 1.08,-0.33 1.28,-0.48 0.04,-0.03 0.08,-0.06 0.12,-0.1l-0.22 -0.25 -0.1 0.08z"/>
  <path fill="#626272" d="M77.9 117.92l-0.21 0.26c0.45,0.36 0.83,0.65 1.18,0.89l0.18 -0.28c-0.33,-0.23 -0.71,-0.51 -1.15,-0.87z"/>
  <path fill="#626272" d="M79.91 119.3l-0.02 -0.01 -0.14 0.31 0.01 0c0.47,0.22 0.87,0.47 1.19,0.73l0.22 -0.25c-0.34,-0.28 -0.77,-0.55 -1.26,-0.78z"/>
  <path fill="#626272" d="M81.86 120.87l-0.29 0.18c0.11,0.19 0.19,0.38 0.22,0.58 0.04,0.23 0.03,0.46 -0.03,0.68l0.32 0.09c0.08,-0.27 0.09,-0.55 0.04,-0.83 -0.04,-0.24 -0.13,-0.47 -0.26,-0.7z"/>
  <path fill="#626272" d="M78.31 124c-0.23,0.05 -0.46,0.11 -0.7,0.16l0.08 0.33c0.24,-0.06 0.47,-0.11 0.7,-0.17 0.25,-0.06 0.49,-0.11 0.72,-0.17l-0.08 -0.32c-0.23,0.05 -0.47,0.11 -0.72,0.17z"/>
  <path fill="#626272" d="M75.22 124.79l0.1 0.32c0.42,-0.12 0.87,-0.25 1.4,-0.38l-0.09 -0.32c-0.52,0.13 -0.99,0.26 -1.41,0.38z"/>
  <path fill="#626272" d="M72.9 125.68l0.15 0.3c0.36,-0.19 0.81,-0.37 1.32,-0.56l-0.11 -0.31c-0.54,0.19 -0.98,0.38 -1.36,0.57z"/>
  <path fill="#626272" d="M73.13 113.73c-0.25,-0.23 -0.51,-0.46 -0.76,-0.69l-0.23 0.25c0.26,0.23 0.52,0.46 0.77,0.69l0.31 0.29 0.23 -0.25 -0.32 -0.29z"/>
  <path fill="#626272" d="M73.97 114.94c0.36,0.33 0.73,0.66 1.08,0.98l0.22 -0.25c-0.35,-0.32 -0.71,-0.65 -1.08,-0.98l-0.22 0.25z"/>
  <path fill="#626272" d="M77.13 117.28c-0.34,-0.28 -0.7,-0.59 -1.1,-0.95l-0.22 0.26c0.4,0.35 0.76,0.66 1.1,0.95l0.22 -0.26z"/>
  <path fill="#626272" d="M71.62 112.36c-0.36,-0.33 -0.73,-0.65 -1.08,-0.97l-0.23 0.25c0.36,0.32 0.72,0.64 1.09,0.97l0.22 -0.25z"/>
  <path fill="#E4C1FF" d="M73.26 93.82c0,0 -15.88,5.17 -24.45,2.86 -0.64,-0.18 -5.85,-1.23 -5.85,-1.23 0,0 2.94,-11.18 2.12,-18.59 -0.22,-1.97 -0.68,-5.85 -2.07,-9.38 -0.5,-1.26 -1.01,-2.54 -1.51,-3.79 -1.49,-3.69 -2.88,-7.06 -3.49,-8.54 1.28,-0.88 2.32,-1.1 2.56,-1.15l0.05 0c1.41,-0.24 3.2,-0.61 5.12,-1.19l0.01 0c2.47,-0.75 5.13,-1.84 7.45,-3.43l2.14 -1.2 2.26 -1.25c0,0 2.77,1 5.65,5.11 -0.74,0.88 -1.54,1.7 -2.39,2.4 1.27,0.79 2.33,1.17 2.33,1.17 0.55,-0.31 1.07,-0.69 1.56,-1.13 1.82,3.38 3.49,8.2 4.31,15.02 0.74,6.19 2.04,13.42 3,18.38 0.69,3.55 1.2,5.94 1.2,5.94z"/>
  <path fill="#423C4F" d="M50 55.42c-2.95,-0.25 -3.62,-1.65 -4.25,-2.61 2.47,-0.75 5.13,-1.84 7.45,-3.43l1.4 -0.79c0.41,0 1.4,0.74 1.4,2.22 0,2 -2.09,4.95 -6,4.61z"/>
  <path fill="#BFA2D6" d="M64.36 64.75c-2.99,0 -4.95,-5.07 -4.95,-5.07l5.16 -2.31c0,0 4.02,6.03 0.74,7.21 -0.32,0.11 -0.64,0.17 -0.95,0.17z"/>
  <path fill="#423C4F" d="M53.89 34.73c0,0 2.17,-1.64 1.28,-4.94 0,0 -0.72,1.25 -1.39,1.38 0,0 1.68,-4.54 -3.45,-7.07 0.01,0 0.61,2.5 0,3.33 0,0 -1.36,-2.89 -3.36,-3.48 0,0 0.3,5.06 -2.84,6.08 -2.24,0.73 -5.13,3.33 -5.92,7.6 0,0 -1.3,-0.37 -1.79,0.14 0,0 1.67,0.28 1.9,1.34 0,0 -0.7,-0.36 -1.23,0.09 0,0 1.18,0.24 1.36,1.16 0.18,0.92 4.64,7.96 7.33,9.14 2.68,1.17 8.11,-14.77 8.11,-14.77z"/>
  <path fill="#F3AC86" d="M46.94 50.56l0.36 2.07c0.09,0.52 0.48,0.95 0.99,1.08 4.45,1.16 6.41,-1.6 6.63,-2.67 -0.57,-0.23 -10.76,-4.35 -12.42,-8.25 0,0 1.07,5.25 4.44,7.77z"/>
  <path fill="#F3AC86" d="M55.18 39.05c0.37,0.51 0.64,1.07 0.82,1.67 0.16,0.51 0.24,1.05 0.24,1.59l0.02 3.61c0,1.35 -0.85,2.54 -2.12,2.98 -1.45,0.5 -3.49,0.92 -5.58,0.46 -3.95,-0.85 -5.84,-5.63 -5.84,-5.63 0,0 -1.64,-4.96 1.67,-8.37 2.29,-2.37 5.37,-2.83 7.04,-2.89 0.72,-0.03 1.39,0.34 1.74,0.97l1.27 2.26c0.1,0.18 0.19,0.36 0.27,0.55 0.26,0.63 0.42,1.31 0.44,2l0.03 0.8z"/>
  <path fill="#423C4F" d="M50.5 36.75c0,0 -3.13,-1.32 -3.91,1.28l0.48 0.4c0,0 1.04,-1.99 3.53,-0.99l-0.1 -0.69z"/>
  <path fill="#EC8E6C" d="M55.18 39.05c0.37,0.51 0.64,1.07 0.82,1.67 -0.62,-0.15 -1.71,-0.06 -3.57,0.98 0,0 0.72,-1.27 1.76,-1.71 0.28,-0.11 0.37,-0.46 0.18,-0.7l-1.29 -1.57c0,0 0.07,-0.44 0.46,-0.75 0.24,-0.19 0.74,-0.51 1.17,-0.72 0.26,0.63 0.42,1.31 0.44,2l0.03 0.8z"/>
  <path fill="#423C4F" d="M54.4 35.75c-0.75,0.35 -1.28,0.81 -1.28,0.81l0.16 0.61c0.48,-0.4 0.93,-0.65 1.35,-0.8 0.22,-0.07 0.32,-0.29 0.24,-0.47l0 -0.01c-0.08,-0.17 -0.29,-0.23 -0.47,-0.14z"/>
  <path fill="#FEFEFE" d="M55.38 42.21l-5.58 1.6c0,0 1.76,2.66 4.59,1.47 2.22,-0.94 0.99,-3.07 0.99,-3.07z"/>
  <path fill="#EC8E6C" d="M53.79 48.93c0,0 -3.5,0.89 -7.12,-3.05 0,0 -0.16,2.03 1.78,4.11 1.94,2.08 6.47,1.05 6.47,1.05l-1.13 -2.11z"/>
  <path fill="#F3AC86" d="M43.8 42.4c0,0 -1.77,-1.54 -2.91,-0.09 -1.14,1.45 1.41,5.54 3.24,3.87 1.82,-1.67 -0.33,-3.78 -0.33,-3.78z"/>
  <path fill="#423C4F" d="M50.5 38.72c0,0 -0.7,-0.84 -1.56,-0.51 -1.25,0.49 -1.08,1.64 -1.08,1.64 0,0 0.56,-2.15 2.64,-1.13z"/>
  <path fill="#423C4F" d="M53.58 38.28c0,0 0.46,-1.37 1.46,-0.32 0,0 -0.89,-0.57 -1.46,0.32z"/>
  <path fill="#423C4F" d="M43.12 36.84c0,0 1.35,1.64 0.25,3.35l1.14 2.63 -1.18 0.3 -0.98 -1.45 -0.76 -3.77c0,0 0.92,-1.72 1.53,-1.06z"/>
  <path fill="#E4C1FF" d="M71.83 39.44c0,0 -0.15,0.71 -0.44,1.85 -0.96,3.66 -3.54,11.71 -8.2,14.32 0,0 -1.06,-0.38 -2.33,-1.17 -1.97,-1.23 -4.43,-3.45 -4.2,-6.82 0,0 4,-6.64 5.69,-11.31 0.16,-0.42 0.29,-0.84 0.4,-1.23l7.43 3.57 1.65 0.79z"/>
  <path fill="#423C4F" d="M71.83 39.44c0,0 -0.15,0.71 -0.44,1.85 -1.75,-1.35 -7.29,-4.12 -9.04,-4.98 0.16,-0.42 0.29,-0.84 0.4,-1.23l7.43 3.57 1.65 0.79z"/>
  <path fill="#C8CBC5" d="M68.87 48.44c0.03,-0.08 0.07,-0.17 0.11,-0.25 -0.04,0.08 -0.08,0.17 -0.11,0.25l0 0z"/>
  <path fill="#B6BCBA" d="M64.75 54.48c0,0 0,0 0,0 1.69,-1.53 3.06,-3.76 4.12,-6.04l0 0c-1.06,2.28 -2.43,4.51 -4.12,6.04z"/>
  <path fill="#BFA2D6" d="M64.75 54.48c-0.5,-0.91 -1,-1.72 -1.5,-2.44 3.17,-3.78 5.31,-8.84 6.41,-11.88 0.72,0.43 1.32,0.81 1.73,1.13 -0.45,1.69 -1.23,4.31 -2.41,6.9 -0.04,0.08 -0.08,0.17 -0.11,0.25 -1.06,2.28 -2.43,4.51 -4.12,6.04z"/>
  <path fill="#C8CBC5" d="M71.46 41c0.25,-0.97 0.37,-1.56 0.37,-1.56l0 0 -1.57 -0.75 1.57 0.75c0,0 -0.12,0.59 -0.37,1.56z"/>
  <path fill="#423C4F" d="M71.39 41.29c-0.41,-0.32 -1.01,-0.7 -1.73,-1.13 0.21,-0.59 0.39,-1.1 0.52,-1.51l0.08 0.04 1.57 0.75c0,0 -0.12,0.59 -0.37,1.56 -0.02,0.09 -0.05,0.19 -0.07,0.29z"/>
  <path fill="#E4C1FF" d="M43.76 60.97c-0.14,0.88 -0.31,1.48 -0.31,1.48l-0.44 5.03 -0.5 4.85 -0.15 1.4c-0.84,1.19 -3.71,1.3 -6.41,1.1l0 0c-2.84,-0.21 -5.51,-0.76 -5.51,-0.76 0,0 0.07,-0.54 0.23,-1.48 0.39,-2.25 1.29,-6.77 3,-11.42 1.2,-3.24 2.91,-5.04 4.34,-6.02 1.28,-0.88 2.32,-1.1 2.56,-1.15l0.05 0c3.67,0.34 3.5,4.64 3.14,6.97z"/>
  <path fill="#423C4F" d="M42.51 72.33l-0.15 1.4c-0.84,1.19 -3.71,1.3 -6.41,1.1l0 0c-2.84,-0.21 -5.51,-0.76 -5.51,-0.76 0,0 0.07,-0.54 0.23,-1.48 1.19,0.32 4.01,0.72 6.52,0.76 2.82,0.03 4.46,-0.63 5.32,-1.02z"/>
  <path fill="#423C4F" d="M53.83 49.02c0,0 5.8,-0.88 9.49,2.4 3.69,3.28 7.35,10.16 5.12,14.29l0.9 5.98c0,0 6.07,-9.53 -0.44,-18.77 -4.39,-6.22 -9.99,-6.37 -12.82,-5.95 -0.31,0.88 -1,1.55 -1.92,1.87l-0.33 0.18z"/>
  <path fill="#423C4F" d="M39.83 54.21c0,0 1.66,-3.8 4.76,-3.36 3.1,0.44 12.37,13.04 10.41,22.31 -1.96,9.26 -9.98,10.25 -9.98,10.25 0,0 -1.55,-2.35 0.19,-4.54 0,0 5.27,-1.29 6.69,-7.33 1.42,-6.03 -5.75,-18.27 -8.38,-18.64 -0.95,-0.14 -1.66,0.87 -1.66,0.87 0,0 -1.11,0.3 -2.03,0.44z"/>
  <path fill="#B6BCBA" d="M43.47 95.55c-0.32,-0.06 -0.52,-0.1 -0.52,-0.1 0,0 0.39,-1.47 0.85,-3.69l0 0c-0.46,2.22 -0.84,3.69 -0.84,3.69 0,0 0.19,0.03 0.51,0.1 0,0 0,0 0,0zm28.4 -1.3l0 -0.01c0.88,-0.25 1.39,-0.42 1.39,-0.42 0,0 -0.23,-1.06 -0.58,-2.82 0.35,1.76 0.58,2.82 0.58,2.82 0,0 -0.51,0.17 -1.39,0.43z"/>
  <path fill="#423C4F" d="M43.8 91.76l0 0c0.24,-1.19 0.5,-2.59 0.73,-4.09 -0.23,1.5 -0.49,2.9 -0.73,4.09z"/>
  <path fill="#423C4F" d="M55.4 97.25c6.39,-0.24 13.52,-2.14 16.47,-3.01l0 0.01c-2.95,0.86 -10.09,2.76 -16.47,3zm-8.09 -0.91c-1.27,-0.27 -2.99,-0.62 -3.84,-0.79 0,0 0,0 0,0 0.85,0.17 2.57,0.52 3.84,0.79z"/>
  <path fill="#BFA2D6" d="M54.11 97.27c-1.91,0 -3.73,-0.17 -5.3,-0.6 -0.19,-0.05 -0.77,-0.17 -1.5,-0.33 -1.27,-0.27 -2.99,-0.62 -3.84,-0.79 -0.32,-0.07 -0.51,-0.1 -0.51,-0.1 0,0 0.38,-1.47 0.84,-3.69 0.24,-1.19 0.5,-2.59 0.73,-4.09 0.21,-1.36 0.39,-2.81 0.52,-4.26 0.29,-0.05 2.5,-0.41 4.81,-2.04 1.25,2.92 3.1,5.81 5.86,8.06 1.61,1.31 4.84,1.97 8,1.97 4.17,0 8.22,-1.13 8.33,-3.4 0,-0.04 0.01,-0.08 0.01,-0.12 0.23,1.19 0.44,2.24 0.62,3.12 0.35,1.76 0.58,2.82 0.58,2.82 0,0 -0.51,0.17 -1.39,0.42 -2.95,0.87 -10.08,2.77 -16.47,3.01 -0.43,0.01 -0.86,0.02 -1.29,0.02z"/>
  <path fill="#423C4F" d="M41.66 74.31c0.3,-0.16 0.54,-0.35 0.7,-0.58l0.15 -1.4 0.5 -4.85c0,0 0,0.01 0,0.01l-0.65 6.25c-0.16,0.23 -0.4,0.41 -0.7,0.57zm2.98 -0.68c-0.11,-0.62 -0.23,-1.27 -0.38,-1.95 0.15,0.68 0.27,1.33 0.38,1.95z"/>
  <path fill="#BFA2D6" d="M45.21 78.87c-0.02,-0.69 -0.06,-1.37 -0.13,-2.02 -0.09,-0.8 -0.22,-1.93 -0.44,-3.22 -0.11,-0.62 -0.23,-1.27 -0.38,-1.95 -0.3,-1.36 -0.71,-2.81 -1.25,-4.2l0 0.01c0,0 0,-0.01 0,-0.01l0.44 -5.03c0,0 0.17,-0.6 0.31,-1.48 0.84,1.44 3.28,5.88 3.56,9.45 0.14,1.68 0.42,4.09 1.11,6.74 -1.65,1.32 -3.22,1.71 -3.22,1.71 0,0 0,0 0,0z"/>
  <path fill="#BFA2D6" d="M37.87 73.34c1.22,-1.2 2.61,-3.16 2.86,-5.98 0.14,-1.5 0.43,-2.71 0.77,-3.67 0.83,-2.34 1.97,-3.19 1.97,-3.19 0,0 0.11,0.17 0.29,0.47 0,0 0,0 0,0 -0.14,0.88 -0.31,1.48 -0.31,1.48l-0.44 5.03 -0.5 4.85c-0.79,0.35 -2.24,0.95 -4.64,1.01z"/>
  <path fill="#423C4F" d="M37.95 74.91c-0.66,0 -1.33,-0.03 -2,-0.08l0 0c0,0 0.9,-0.48 1.92,-1.49 2.4,-0.06 3.85,-0.66 4.64,-1.01l0 0 -0.15 1.4c-0.16,0.23 -0.4,0.42 -0.7,0.58 -0.86,0.44 -2.23,0.6 -3.71,0.6z"/>
  <path fill="#423C4F" d="M45.05 83.41c0.13,-1.54 0.2,-3.08 0.16,-4.54 0,0 0,0 0,0 0,0 1.57,-0.39 3.22,-1.71 0.36,1.36 0.83,2.79 1.43,4.21 -2.31,1.63 -4.52,1.99 -4.81,2.04z"/>
 </g>
</svg>
