<?xml version="1.0" encoding="UTF-8"?>
<!DOCTYPE svg PUBLIC "-//W3C//DTD SVG 1.1//EN" "http://www.w3.org/Graphics/SVG/1.1/DTD/svg11.dtd">
<!-- Creator: CorelDRAW 2020 (64 Bit) -->
<svg xmlns="http://www.w3.org/2000/svg" xml:space="preserve" width="400px" height="259px" version="1.1" shape-rendering="geometricPrecision" text-rendering="geometricPrecision" image-rendering="optimizeQuality" fill-rule="evenodd" clip-rule="evenodd"
viewBox="0 0 368.68 237.67"
 xmlns:xlink="http://www.w3.org/1999/xlink"
 xmlns:xodm="http://www.corel.com/coreldraw/odm/2003">
 <g id="Camada_x0020_1">
  <metadata id="CorelCorpID_0Corel-Layer"/>
  <g id="_1752789791360">
   <path fill="#84BB9A" d="M160.11 0.18c-88.47,-4.24 -162.38,68.03 -160.05,156.57 0.02,0.69 0.04,1.39 0.07,2.08 1.75,44.14 38.42,78.85 82.59,78.85l139.89 0c44.45,0 81.07,-35.14 82.63,-79.56 0.06,-1.81 0.09,-3.63 0.09,-5.46 0,-81.82 -64.36,-148.6 -145.22,-152.48z"/>
   <path fill="#669177" d="M72.1 47.25l-14.63 0 0 -1c0,-0.26 -0.11,-0.52 -0.29,-0.7 -0.19,-0.19 -0.45,-0.3 -0.71,-0.3l-12.03 0 26.66 0 0 -13.44 -11.44 0c0.88,-0.67 1.76,-1.34 2.65,-2l9.79 0c0.04,0 0.08,0.01 0.11,0.01 -0.5,0.06 -0.88,0.48 -0.88,0.99 0,0.55 0.44,1 1,1l0.77 0 0 13.44 -0.77 0c-0.08,0 -0.16,0.01 -0.23,0.03l0 -0.03 0 0.03c-0.44,0.1 -0.77,0.5 -0.77,0.97 0,0.52 0.38,0.94 0.88,0.99 -0.03,0.01 -0.07,0.01 -0.11,0.01z"/>
   <path fill="#669177" d="M57.47 60.69l-1 0 -15.63 0 -9.83 0 24.46 0 0 -13.44 -12.98 0c0.64,-0.67 1.29,-1.34 1.95,-2l12.03 0c0.26,0 0.52,0.11 0.71,0.3 0.18,0.18 0.29,0.44 0.29,0.7l0 1 0 13.44z"/>
   <path fill="#669177" d="M60.73 78.13l-3.26 0 0 -1c0,-0.26 -0.11,-0.52 -0.29,-0.71 -0.19,-0.18 -0.45,-0.29 -0.71,-0.29l-14.63 0 18.89 0 0 2zm-0.65 -15.44l-18.24 0 0 -1c0,-0.26 -0.11,-0.52 -0.3,-0.71 -0.18,-0.18 -0.44,-0.29 -0.7,-0.29l0 0 15.63 0 1 0 3.03 0c-0.19,0.67 -0.32,1.34 -0.42,2z"/>
   <path fill="#669177" d="M41.84 76.13l-1 0 -15.63 0 -4.51 0 19.14 0 0 -13.44 -10.32 0c0.49,-0.67 0.99,-1.34 1.49,-2l9.83 0c0.26,0 0.52,0.11 0.7,0.29 0.19,0.19 0.3,0.45 0.3,0.71l0 1 0 13.44z"/>
   <path fill="#669177" d="M24.21 91.57l-11.38 0 11.38 0 0 -13.44 -4.66 0c0.38,-0.67 0.76,-1.34 1.15,-2l4.51 0c-0.27,0 -0.52,0.11 -0.71,0.29 -0.18,0.19 -0.29,0.45 -0.29,0.71l0 14.44z"/>
   <path fill="#669177" d="M47.85 91.57l-7.01 0 -16.63 0 0 -14.44c0,-0.26 0.11,-0.52 0.29,-0.71 0.19,-0.18 0.44,-0.29 0.71,-0.29l0 0 15.63 0 1 0 14.63 0c0.26,0 0.52,0.11 0.71,0.29 0.18,0.19 0.29,0.45 0.29,0.71l0 1 0 8.55c-0.66,0.16 -1.34,0.34 -2,0.53l0 -9.08 -29.26 0 0 13.44 21.64 0z"/>
   <path fill="#3D6B8E" d="M47.36 92.09l-5.65 0c-0.04,-0.09 -0.1,-0.16 -0.17,-0.23 -0.18,-0.19 -0.44,-0.29 -0.7,-0.29l0 0 7.01 0c-0.16,0.16 -0.32,0.34 -0.49,0.52z"/>
   <path fill="#669177" d="M13.89 107l-5.31 0 0 -4.68c0.63,-1.8 1.3,-3.58 1.99,-5.35l0 10.03 3.32 0zm5.38 -13.43l-7.3 0c0.28,-0.67 0.57,-1.34 0.86,-2l11.38 0 16.63 0c0.26,0 0.52,0.1 0.7,0.29 0.07,0.07 0.13,0.14 0.17,0.23l-16.78 0c0,0 0,0 0,0 -2.07,0 -4,0.54 -5.66,1.48z"/>
   <path fill="#669177" d="M14.3 109l-7.9 0c0.2,-0.66 0.41,-1.33 0.62,-2l1.56 0 5.31 0 0.41 2z"/>
   <path fill="#669177" d="M8.58 137.88l-7.86 0 7.86 0 0 -13.44 -5.94 0c0.12,-0.66 0.25,-1.33 0.39,-2l6.55 0c-0.27,0 -0.52,0.11 -0.71,0.3 -0.19,0.18 -0.29,0.44 -0.29,0.7l0 14.44z"/>
   <path fill="#669177" d="M20.34 137.88l-11.76 0 0 -14.44c0,-0.26 0.1,-0.52 0.29,-0.7 0.19,-0.19 0.44,-0.3 0.71,-0.3l0 0 7.47 0 0.41 2 -6.89 0 0 13.44 9.77 0z"/>
   <path fill="#669177" d="M22.55 139.88l-22.01 0c0.06,-0.67 0.12,-1.33 0.18,-2l7.86 0 11.76 0c0.47,0.79 1.24,1.45 2.21,2z"/>
   <path fill="#3D6B8E" d="M24.93 153.32l-0.72 0 0 -12.69c0.23,0.09 0.48,0.17 0.72,0.24l0 12.45z"/>
   <path fill="#669177" d="M8.58 168.76l-7.45 0 7.45 0 0 -13.44 -8.55 0c-0.01,-0.67 -0.02,-1.33 -0.02,-2l9.57 0c-0.27,0 -0.52,0.11 -0.71,0.29 -0.19,0.19 -0.29,0.45 -0.29,0.71l0 14.44z"/>
   <path fill="#669177" d="M24.93 168.76l-16.35 0 0 -14.44c0,-0.26 0.1,-0.52 0.29,-0.71 0.19,-0.18 0.44,-0.29 0.71,-0.29l0 0 14.63 0 0.72 0 0 2 -14.36 0 0 13.44 14.36 0zm16.91 -13.07l-2 0 0 0 2 0 0 0z"/>
   <path fill="#669177" d="M24.21 184.2l-14.63 0 -4.35 0 18.98 0 0 -13.44 -22.73 0c-0.13,-0.67 -0.24,-1.33 -0.35,-2l7.45 0 16.35 0c0,0.01 0,0.02 0,0.04 -0.16,0.04 -0.31,0.13 -0.43,0.25 -0.18,0.19 -0.29,0.45 -0.29,0.71l0 14.44z"/>
   <path fill="#3D6B8E" d="M24.93 184.2l-0.72 0 0 -14.44c0,-0.26 0.11,-0.52 0.29,-0.71 0.12,-0.12 0.27,-0.21 0.43,-0.25 0.04,0.92 0.54,1.72 1.28,2.18l0 0.81c-0.77,0.48 -1.28,1.33 -1.28,2.3l0 10.11z"/>
   <path fill="#669177" d="M8.58 191.88l0 0 0 -5.68 -2.57 0c-0.26,-0.67 -0.52,-1.33 -0.78,-2l4.35 0c-0.27,0 -0.52,0.1 -0.71,0.29 -0.19,0.19 -0.29,0.44 -0.29,0.71l0 6.68z"/>
   <path fill="#669177" d="M72.1 201.63l-14.63 0 0 -0.21 14.24 0c0.14,0.11 0.31,0.19 0.5,0.21 -0.03,0 -0.07,0 -0.11,0zm-0.72 -1.31l-13.96 0c-0.05,-0.15 -0.13,-0.28 -0.24,-0.39 -0.19,-0.19 -0.45,-0.29 -0.71,-0.29l-14.63 0 29.26 0 0 -3.28 2 0 0 3.28 -0.77 0c-0.08,0 -0.16,0.01 -0.23,0.02l0 -0.02 0 0.02c-0.34,0.08 -0.61,0.33 -0.72,0.66z"/>
   <path fill="#2B3044" d="M12.98 199.64l-4.4 0 0 -7.76c0.63,1.28 1.3,2.53 1.99,3.77l0 3.99 2.41 0z"/>
   <path fill="#669177" d="M41.84 199.64l-1 0 -15.63 0 -12.23 0 26.86 0 0 -3.28 2 0 0 3.28zm-31.27 -3.99c-0.69,-1.24 -1.36,-2.49 -1.99,-3.77l0 -6.68c0,-0.27 0.1,-0.52 0.29,-0.71 0.19,-0.19 0.44,-0.29 0.71,-0.29l0 0 14.63 0 0.72 0 0 2 -14.36 0 0 9.45z"/>
   <path fill="#3D6B8E" d="M24.21 213.53l0 0 0 -11.9 -9.9 0c-0.05,-0.07 -0.1,-0.14 -0.15,-0.21l10.05 0 0 12.11zm0.05 -13.21l-10.84 0c-0.15,-0.23 -0.29,-0.46 -0.44,-0.68l12.23 0c-0.27,0 -0.52,0.1 -0.71,0.29 -0.11,0.11 -0.19,0.24 -0.24,0.39z"/>
   <path fill="#669177" d="M57.47 215.08l-1 0 -15.63 0 -15.04 0c-0.54,-0.51 -1.07,-1.03 -1.59,-1.55l0 -12.11 33.26 0 0 0.21 0 13.45zm-31.26 -13.45l0 13.45 29.26 0 0 -13.45 -29.26 0zm31.21 -1.31l-33.16 0c0.05,-0.15 0.13,-0.28 0.24,-0.39 0.19,-0.19 0.44,-0.29 0.71,-0.29l0 0 15.63 0 1 0 14.63 0c0.26,0 0.52,0.1 0.71,0.29 0.11,0.11 0.19,0.24 0.24,0.39z"/>
   <path fill="#3D6B8E" d="M86.96 16.37l-2.85 0c0.98,-0.49 1.97,-0.98 2.96,-1.46 -0.07,0.14 -0.11,0.3 -0.11,0.47l0 0.99z"/>
   <path fill="#669177" d="M166.11 16.37l-14.63 0 0 -0.99c0,-0.27 -0.1,-0.53 -0.29,-0.71 -0.19,-0.19 -0.44,-0.3 -0.71,-0.3l-14.63 0 29.27 0 0 -13.43 -29.27 0 0 -0.01c5.54,-0.61 11.16,-0.93 16.85,-0.93 2.46,0 4.93,0.06 7.41,0.18 1.73,0.08 3.47,0.19 5.19,0.34 0.18,0.25 0.48,0.42 0.81,0.42l1 0 0 13.43 -1 0c-0.55,0 -0.99,0.45 -0.99,1.01 0,0.55 0.44,0.99 0.99,0.99z"/>
   <path fill="#669177" d="M135.85 14.37l-1 0 -15.63 0 -16.63 0 0 -5.87c0.67,-0.24 1.33,-0.46 2,-0.69l0 6.56 29.26 0 0 -13.2c0.67,-0.09 1.33,-0.16 2,-0.24l0 0.01 0 13.43z"/>
   <path fill="#2B3044" d="M87.07 14.91c0.05,-0.09 0.11,-0.17 0.18,-0.24 0.19,-0.19 0.45,-0.3 0.71,-0.3l0.24 0c-0.37,0.18 -0.75,0.36 -1.13,0.54z"/>
   <path fill="#669177" d="M118.22 29.81l-14.63 0 -16.63 0 0 -13.44 0 -0.99c0,-0.17 0.04,-0.33 0.11,-0.47 0.38,-0.18 0.76,-0.36 1.13,-0.54l14.39 0 16.63 0c-0.26,0 -0.52,0.11 -0.71,0.3 -0.18,0.18 -0.29,0.44 -0.29,0.71l0 14.43zm-29.26 -13.44l0 13.44 29.26 0 0 -13.44 -29.26 0z"/>
   <path fill="#669177" d="M151.48 29.81l-1 0 -15.63 0 -16.63 0 0 -14.43c0,-0.27 0.11,-0.53 0.29,-0.71 0.19,-0.19 0.45,-0.3 0.71,-0.3l0 0 15.63 0 1 0 14.63 0c0.27,0 0.52,0.11 0.71,0.3 0.19,0.18 0.29,0.44 0.29,0.71l0 0.99 0 13.44zm-31.26 -13.44l0 13.44 29.27 0 0 -13.44 -29.27 0z"/>
   <path fill="#669177" d="M86.96 47.25l-14.63 0c-0.04,0 -0.08,0 -0.12,-0.01 0.23,-0.02 0.44,-0.12 0.6,-0.28 0.18,-0.19 0.29,-0.45 0.29,-0.71l0 0 0 -1 24.97 0 -10.11 0c-0.26,0 -0.52,0.11 -0.71,0.3 -0.19,0.18 -0.29,0.44 -0.29,0.7l0 1zm15.63 -3.79l0 0 0 -11.65 -29.49 0 0 -1c0,-0.26 -0.11,-0.52 -0.29,-0.7 -0.16,-0.16 -0.37,-0.26 -0.6,-0.29 0.04,0 0.08,-0.01 0.12,-0.01l14.63 0 16.63 0c-0.26,0 -0.52,0.11 -0.71,0.3 -0.18,0.18 -0.29,0.44 -0.29,0.7l0 12.65z"/>
   <path fill="#396082" d="M72.21 47.24c-0.5,-0.05 -0.88,-0.47 -0.88,-0.99 0,-0.47 0.33,-0.87 0.77,-0.97l0 0.97 0 -0.97c0.07,-0.02 0.15,-0.03 0.23,-0.03l0.77 0 0 1c0,0.26 -0.11,0.52 -0.29,0.71 -0.16,0.16 -0.37,0.26 -0.6,0.28zm0.89 -15.43l-0.77 0c-0.56,0 -1,-0.45 -1,-1 0,-0.51 0.38,-0.93 0.88,-0.99 0.23,0.03 0.44,0.13 0.6,0.29 0.18,0.18 0.29,0.44 0.29,0.7l0 1z"/>
   <path fill="#669177" d="M166.11 47.25l-14.63 0 0 -1c0,-0.26 -0.1,-0.52 -0.29,-0.7 -0.19,-0.19 -0.44,-0.3 -0.71,-0.3l-14.63 0 29.27 0 0 -13.44 -29.27 0 0 -1c0,-0.26 -0.11,-0.52 -0.29,-0.7 -0.19,-0.19 -0.44,-0.3 -0.71,-0.3l0 0 15.63 0 1 0 14.63 0c-0.55,0 -0.99,0.45 -0.99,1 0,0.55 0.44,1 0.99,1l1 0 0 13.44 -1 0c-0.55,0 -0.99,0.45 -0.99,1 0,0.55 0.44,1 0.99,1z"/>
   <path fill="#669177" d="M135.85 45.25l-1 0 -2.78 0 1.78 0 0 -13.44 -29.26 0 0 11.65 -2 0 0 -12.65c0,-0.26 0.11,-0.52 0.29,-0.7 0.19,-0.19 0.45,-0.3 0.71,-0.3l0 0 14.63 0 16.63 0c0.27,0 0.52,0.11 0.71,0.3 0.18,0.18 0.29,0.44 0.29,0.7l0 1 0 13.44z"/>
   <path fill="#669177" d="M95.76 60.69l-8.8 0 0 -13.44 0 -1c0,-0.26 0.1,-0.52 0.29,-0.7 0.19,-0.19 0.45,-0.3 0.71,-0.3l10.11 0c-0.04,0.18 -0.06,0.36 -0.06,0.55l0 0.2c-0.86,0.04 -1.6,0.53 -1.98,1.25l-7.07 0 0 13.44 6.8 0z"/>
   <path fill="#669177" d="M151.48 60.69l-1 0 -15.63 0 -2.71 0 17.35 0 0 -13.44 -17.35 0 0 -1.45c0,-0.19 -0.02,-0.37 -0.07,-0.55l2.78 0 1 0 14.63 0c0.27,0 0.52,0.11 0.71,0.3 0.19,0.18 0.29,0.44 0.29,0.7l0 1 0 13.44z"/>
   <path fill="#669177" d="M86.96 78.13l-11.85 0c0.19,-0.6 0.33,-1.26 0.39,-2l20.26 0 -7.8 0c-0.26,0 -0.52,0.11 -0.71,0.29 -0.19,0.19 -0.29,0.45 -0.29,0.71l0 1zm8.8 -15.44l-20.22 0c0.01,-0.7 0.01,-1.37 0.02,-2l11.4 0 8.8 0 0 2z"/>
   <path fill="#669177" d="M150.93 76.24c-0.14,-0.07 -0.29,-0.11 -0.45,-0.11l-14.63 0 15.07 0c0,0.03 0.01,0.07 0.01,0.11zm6.73 -13.55l-21.81 0 0 -1c0,-0.26 -0.11,-0.52 -0.29,-0.71 -0.19,-0.18 -0.44,-0.29 -0.71,-0.29l0 0 15.63 0 1 0 14.63 0c-0.55,0 -0.99,0.45 -0.99,1 0,0.07 0,0.13 0.01,0.19 -0.17,-0.02 -0.35,-0.04 -0.52,-0.06 -0.61,-0.06 -1.23,-0.1 -1.83,-0.1 -1.83,0 -3.59,0.31 -5.12,0.97z"/>
   <path fill="#669177" d="M135.85 76.13l-1 0 -2.71 0 1.71 0 0 -13.44 -1.71 0 0 -2 2.71 0c0.27,0 0.52,0.11 0.71,0.29 0.18,0.19 0.29,0.45 0.29,0.71l0 1 0 13.44z"/>
   <path fill="#669177" d="M118.22 91.57l-14.63 0 -16.63 0 0 -13.44 0 -1c0,-0.26 0.1,-0.52 0.29,-0.71 0.19,-0.18 0.45,-0.29 0.71,-0.29l7.8 0 0 2 -6.8 0 0 13.44 29.26 0 0 -7.44 0 7.44z"/>
   <path fill="#669177" d="M147.07 91.57l-12.22 0 -16.63 0 0 -7.44 2 0 0 7.44 26.85 0zm2.42 -3.13l0 -10.31 -17.35 0 0 -2 2.71 0 1 0 14.63 0c0.16,0 0.31,0.04 0.45,0.11 0.1,0.97 0.34,1.69 0.55,2.17l0 7.12c-0.24,0.37 -0.5,0.76 -0.79,1.18 -0.36,0.54 -0.77,1.13 -1.2,1.73z"/>
   <path fill="#3D6B8E" d="M102.71 92.09l-19.33 0c-0.2,-0.18 -0.39,-0.36 -0.57,-0.52l4.15 0 16.63 0c-0.26,0 -0.52,0.1 -0.71,0.29 -0.06,0.07 -0.12,0.14 -0.17,0.23z"/>
   <path fill="#669177" d="M167.11 107l-0.47 0c-0.62,-1.96 -1.16,-3.31 -1.52,-4.14l0 -9.2c0.04,-0.03 0.09,-0.06 0.14,-0.1 0.08,-0.06 0.16,-0.13 0.24,-0.2 0.17,0.13 0.39,0.21 0.61,0.21l1 0 0 13.43zm-7.97 -13.43l-0.01 0c0,0 0,-0.01 0,-0.01 0.01,0 0.01,0.01 0.01,0.01zm-12.51 -1.48l-10.9 0c-0.05,-0.09 -0.11,-0.16 -0.17,-0.23 -0.19,-0.19 -0.44,-0.29 -0.71,-0.29l0 0 12.22 0c-0.15,0.17 -0.3,0.34 -0.44,0.52z"/>
   <path fill="#3D6B8E" d="M135.73 92.09l-33.02 0c0.05,-0.09 0.11,-0.16 0.17,-0.23 0.19,-0.19 0.45,-0.29 0.71,-0.29l0 0 14.63 0 16.63 0c0.27,0 0.52,0.1 0.71,0.29 0.06,0.07 0.12,0.14 0.17,0.23z"/>
   <path fill="#669177" d="M86.96 201.63l-14.63 0c-0.04,0 -0.08,0 -0.12,0 0.19,-0.02 0.36,-0.09 0.51,-0.21l14.24 0 0 0.21zm0.05 -1.31l-13.91 0 0 -0.68 25.2 0 -10.34 0c-0.26,0 -0.52,0.1 -0.71,0.29 -0.11,0.11 -0.19,0.24 -0.24,0.39z"/>
   <path fill="#669177" d="M72.21 201.63c-0.19,-0.02 -0.36,-0.1 -0.5,-0.21l1.01 0c-0.15,0.12 -0.32,0.19 -0.51,0.21zm0.89 -1.31l-1 0 0 -0.66c0.07,-0.01 0.15,-0.02 0.23,-0.02l0.77 0 0 0.68zm-1 0l-0.72 0c0.11,-0.33 0.38,-0.58 0.72,-0.66l0 0.66z"/>
   <path fill="#3D6B8E" d="M166.11 201.63l-14.63 0 0 -0.21 14.02 0c0.17,0.13 0.38,0.21 0.61,0.21zm-0.94 -1.31l-3.68 0 0 -0.01 3.68 0c0,0 0,0.01 0,0.01zm-10.26 0l-0.67 0c0.23,0 0.45,-0.05 0.64,-0.15l0.03 0.15z"/>
   <path fill="#669177" d="M118.22 215.08l-14.63 0 -16.63 0 0 -13.45 0 -0.21 31.26 0 0 13.66zm-29.26 -13.45l0 13.45 29.26 0 0 -13.45 -29.26 0zm29.31 -1.31l-1.74 0c0.53,-0.01 1.55,-0.09 2.14,-0.6 0.03,-0.02 0.05,-0.04 0.07,-0.06 0.03,0.02 0.06,0.04 0.08,0.06 -0.11,0.05 -0.22,0.12 -0.31,0.21 -0.1,0.11 -0.19,0.24 -0.24,0.39zm-1.85 0l-29.41 0c0.05,-0.15 0.13,-0.28 0.24,-0.39 0.19,-0.19 0.45,-0.29 0.71,-0.29l10.34 0c0.46,0.4 1.25,0.65 2.57,0.67 0.05,0 0.09,0 0.13,0 0.74,0 1.93,0 3.33,0l0 0c4.73,0 11.85,0 11.85,0 0,0 0.09,0 0.24,0.01z"/>
   <path fill="#3D6B8E" d="M151.48 215.08l-1 0 -15.63 0 -16.63 0 0 -13.66 33.26 0 0 0.21 0 13.45zm-31.26 -13.45l0 13.45 29.27 0 0 -13.45 -29.27 0zm24.52 -1.31l-26.47 0c0.05,-0.15 0.14,-0.28 0.24,-0.39 0.09,-0.09 0.2,-0.16 0.31,-0.21 0.49,0.32 1.24,0.51 2.39,0.53 0.04,0 0.09,0 0.13,0 3.21,0 15.18,0 15.18,0 0,0 0,0 0,0 0.01,0 0.01,0 0.01,0 0,0 0,0 0,0 0.04,0 0.14,0 0.28,0 0.52,0 1.59,-0.06 2.2,-0.59 0.01,-0.01 0.02,-0.01 0.03,-0.02l4.41 0c0.28,0.41 0.75,0.68 1.29,0.68z"/>
   <path fill="#669177" d="M180.75 16.37l-14.64 0c0.27,0 0.52,-0.1 0.71,-0.29 0.19,-0.19 0.29,-0.44 0.29,-0.7l0 0 0 -1.01 29.27 0 0 -8.02 0 8.02 -14.63 0c-0.27,0 -0.53,0.11 -0.71,0.3 -0.19,0.18 -0.29,0.44 -0.29,0.71l0 0.99zm-11.08 -15.43l-2.56 0 0 -0.26c0.86,0.07 1.71,0.16 2.56,0.26z"/>
   <path fill="#669177" d="M166.11 16.37l0 0c-0.55,0 -0.99,-0.44 -0.99,-0.99 0,-0.56 0.44,-1.01 0.99,-1.01l0 1.01 0 -1.01 1 0 0 1.01c0,0.26 -0.1,0.51 -0.29,0.7 -0.19,0.19 -0.44,0.29 -0.71,0.29z"/>
   <path fill="#669177" d="M217.43 14.37l-4.42 0 -16.63 0 0 -8.02c0.67,0.2 1.33,0.4 2,0.61l0 7.41 19.05 0z"/>
   <path fill="#669177" d="M212.01 29.81l-14.63 0 -16.63 0 0 -13.44 0 -0.99c0,-0.27 0.1,-0.53 0.29,-0.71 0.18,-0.19 0.44,-0.3 0.71,-0.3l14.63 0 16.63 0c-0.26,0 -0.52,0.11 -0.71,0.3 -0.18,0.18 -0.29,0.44 -0.29,0.71l0 14.43zm-29.27 -13.44l0 13.44 29.27 0 0 -13.44 -29.27 0z"/>
   <path fill="#669177" d="M243.32 29.81l-14.68 0 -16.63 0 0 -14.43c0,-0.27 0.11,-0.53 0.29,-0.71 0.19,-0.19 0.45,-0.3 0.71,-0.3l0 0 4.42 0c1.38,0.65 2.74,1.32 4.1,2l-7.52 0 0 13.44 29.26 0 0 -0.03c0.02,0.01 0.03,0.02 0.05,0.03z"/>
   <path fill="#669177" d="M180.75 47.25l-14.64 0c0.27,0 0.52,-0.11 0.71,-0.29 0.19,-0.19 0.29,-0.45 0.29,-0.71l0 0 0 -1 22.47 0 -7.83 0c-0.27,0 -0.53,0.11 -0.71,0.3 -0.19,0.18 -0.29,0.44 -0.29,0.7l0 1zm11.73 -15.44l-25.37 0 0 -1c0,-0.26 -0.1,-0.52 -0.29,-0.7 -0.19,-0.19 -0.44,-0.3 -0.71,-0.3l14.64 0 16.63 0c-0.23,0 -0.45,0.08 -0.62,0.22l-2.01 0c-1.1,0 -2.02,0.76 -2.27,1.78z"/>
   <path fill="#669177" d="M166.11 47.25l0 0c-0.55,0 -0.99,-0.45 -0.99,-1 0,-0.55 0.44,-1 0.99,-1l0 1 0 -1 1 0 0 1c0,0.26 -0.1,0.52 -0.29,0.71 -0.19,0.18 -0.44,0.29 -0.71,0.29zm1 -15.44l-1 0c-0.55,0 -0.99,-0.45 -0.99,-1 0,-0.55 0.44,-1 0.99,-1l0 0c0.27,0 0.52,0.11 0.71,0.3 0.19,0.18 0.29,0.44 0.29,0.7l0 1z"/>
   <path fill="#669177" d="M259.88 47.25l-13.07 0 0 -2 12.09 0 0 -2.22c0.67,0.64 1.34,1.3 2,1.97l0 0.25 -1 0 -0.02 0c-0.55,0 -1,0.45 -1,1 0,0.55 0.45,1 1,1zm-16.27 -17.22l-14.35 0c-0.18,-0.14 -0.4,-0.22 -0.62,-0.22l0 0 14.68 0c0.09,0.07 0.19,0.15 0.29,0.22z"/>
   <path fill="#3D6B8E" d="M229.26 30.03l-32.5 0c0.17,-0.14 0.39,-0.22 0.62,-0.22l0 0 14.63 0 16.63 0c0.22,0 0.44,0.08 0.62,0.22z"/>
   <path fill="#669177" d="M189.58 60.69l-8.83 0 0 -13.44 0 -1c0,-0.26 0.1,-0.52 0.29,-0.7 0.18,-0.19 0.44,-0.3 0.71,-0.3l7.83 0 0 2 -6.84 0 0 13.44 6.84 0z"/>
   <path fill="#669177" d="M180.75 78.13l-7.05 0c0.2,-0.54 0.37,-1 0.48,-1.37l0 0c0,0 0.12,-0.22 0.29,-0.61 0.01,-0.01 0.01,-0.01 0.02,-0.02l21.89 0 0 -5.25 0 5.25 -14.63 0c-0.27,0 -0.53,0.11 -0.71,0.29 -0.19,0.19 -0.29,0.45 -0.29,0.71l0 1zm8.83 -15.44l-20.95 0c-0.5,-0.17 -1,-0.31 -1.52,-0.44l0 -0.56c0,-0.26 -0.1,-0.52 -0.29,-0.71 -0.19,-0.18 -0.44,-0.29 -0.71,-0.29l14.64 0 8.83 0 0 2z"/>
   <path fill="#669177" d="M167.11 62.25c-0.65,-0.16 -1.31,-0.28 -1.98,-0.37 -0.01,-0.06 -0.01,-0.12 -0.01,-0.19 0,-0.55 0.44,-1 0.99,-1l0 0c0.27,0 0.52,0.11 0.71,0.29 0.19,0.19 0.29,0.45 0.29,0.71l0 0.56z"/>
   <path fill="#669177" d="M259.88 78.13l-14.61 0 0 -1c0,-0.26 -0.11,-0.52 -0.29,-0.71 -0.19,-0.18 -0.45,-0.29 -0.71,-0.29l-14.63 0 29.26 0 0 -13.44 -12.09 0 0 -2 13.09 0 -0.02 0c-0.55,0 -1,0.45 -1,1 0,0.55 0.45,1 1,1l1.02 0 0 13.44 -1 0 -0.02 0c-0.55,0 -1,0.45 -1,1 0,0.55 0.45,1 1,1z"/>
   <polygon fill="#669177" points="229.64,76.13 228.64,76.13 213.01,76.13 196.38,76.13 196.38,70.88 198.38,70.88 198.38,76.13 227.64,76.13 227.64,70.88 229.64,70.88 "/>
   <path fill="#669177" d="M212.01 91.57l-14.63 0 -16.63 0 0 -13.44 0 -1c0,-0.26 0.1,-0.52 0.29,-0.71 0.18,-0.18 0.44,-0.29 0.71,-0.29l14.63 0 16.63 0c-0.26,0 -0.52,0.11 -0.71,0.29 -0.18,0.19 -0.29,0.45 -0.29,0.71l0 14.44zm-29.27 -13.44l0 13.44 29.27 0 0 -13.44 -29.27 0z"/>
   <path fill="#669177" d="M245.27 91.57l-1 0 -15.63 0 -16.63 0 0 -14.44c0,-0.26 0.11,-0.52 0.29,-0.71 0.19,-0.18 0.45,-0.29 0.71,-0.29l0 0 15.63 0 1 0 14.63 0c0.26,0 0.52,0.11 0.71,0.29 0.18,0.19 0.29,0.45 0.29,0.71l0 1 0 13.44zm-31.26 -13.44l0 13.44 29.26 0 0 -13.44 -29.26 0z"/>
   <path fill="#669177" d="M180.75 109l-13.52 0c-0.06,-0.22 -0.12,-0.43 -0.18,-0.64 0.04,-0.11 0.06,-0.23 0.06,-0.35l0 0 0 -1.01 29.27 0 0 -13.43 -29.27 0 0 -1c0,-0.26 -0.1,-0.52 -0.28,-0.7 0.07,-0.1 0.14,-0.2 0.22,-0.3l13.7 0 16.63 0c-0.27,0 -0.52,0.1 -0.71,0.29 -0.18,0.19 -0.29,0.44 -0.29,0.71l0 14.43 -14.63 0c-0.27,0 -0.53,0.11 -0.71,0.3 -0.19,0.18 -0.29,0.44 -0.29,0.71l0 0.99z"/>
   <path fill="#396082" d="M167.05 108.36c-0.14,-0.48 -0.28,-0.93 -0.41,-1.36l0.47 0 0 1.01c0,0.12 -0.02,0.24 -0.06,0.35zm0.06 -14.79l-1 0c-0.22,0 -0.44,-0.08 -0.61,-0.21 0.42,-0.38 0.87,-0.88 1.33,-1.49 0.18,0.18 0.28,0.44 0.28,0.7l0 1z"/>
   <path fill="#669177" d="M245.7 93.57l-16.06 0 0 -1c0,-0.27 -0.11,-0.52 -0.29,-0.71 -0.19,-0.19 -0.45,-0.29 -0.71,-0.29l0 0 15.63 0 1 0 0.43 0 0 2z"/>
   <path fill="#669177" d="M229.64 107l-1 0 -15.63 0 -16.63 0 0 -14.43c0,-0.27 0.11,-0.52 0.29,-0.71 0.19,-0.19 0.44,-0.29 0.71,-0.29l0 0 14.63 0 16.63 0c0.26,0 0.52,0.1 0.71,0.29 0.18,0.19 0.29,0.44 0.29,0.71l0 1 0 13.43zm-2 0l0 0 0 -13.43 -29.26 0 0 13.43 29.26 0z"/>
   <path fill="#669177" d="M212.01 122.44l-14.63 0 -16.63 0 0 -13.44 0 -0.99c0,-0.27 0.1,-0.53 0.29,-0.71 0.18,-0.19 0.44,-0.3 0.71,-0.3l14.63 0 16.63 0c-0.26,0 -0.52,0.11 -0.71,0.3 -0.18,0.18 -0.29,0.44 -0.29,0.71l0 14.43zm-29.27 -13.44l0 13.44 29.27 0 0 -13.44 -29.27 0z"/>
   <path fill="#669177" d="M238.19 122.44l-9.55 0 -16.63 0 0 -14.43c0,-0.27 0.11,-0.53 0.29,-0.71 0.19,-0.19 0.45,-0.3 0.71,-0.3l0 0 15.63 0 1 0 6.66 0c-0.33,0.7 -0.62,1.38 -0.88,2l-21.41 0 0 13.44 24.18 0zm5.08 -3.88l0 -5.55c0.69,-0.12 1.36,-0.25 2,-0.39l0 5.07c-0.71,0.26 -1.38,0.55 -2,0.87z"/>
   <path fill="#669177" d="M196.38 136.04l0 0 0 -11.6 -16.09 0c-0.03,-0.07 -0.07,-0.15 -0.11,-0.22 0,0 0.43,-0.77 -0.25,-1.78l0.82 0 16.63 0c-0.27,0 -0.52,0.11 -0.71,0.3 -0.18,0.18 -0.29,0.44 -0.29,0.7l0 12.6z"/>
   <path fill="#669177" d="M245.7 139.88l-0.43 0 0 -1c0,-0.26 -0.11,-0.52 -0.29,-0.7 -0.19,-0.19 -0.45,-0.3 -0.71,-0.3l-14.63 0 16.06 0 0 2zm-9.06 -15.44l-7 0 0 -1c0,-0.26 -0.11,-0.52 -0.29,-0.7 -0.19,-0.19 -0.45,-0.3 -0.71,-0.3l0 0 9.55 0c-0.64,0.71 -1.15,1.4 -1.55,2z"/>
   <path fill="#669177" d="M229.64 137.88l-1 0 -12.68 0 11.68 0 0 -13.44 -29.26 0 0 11.6 -2 0 0 -12.6c0,-0.26 0.11,-0.52 0.29,-0.7 0.19,-0.19 0.44,-0.3 0.71,-0.3l0 0 14.63 0 16.63 0c0.26,0 0.52,0.11 0.71,0.3 0.18,0.18 0.29,0.44 0.29,0.7l0 1 0 13.44z"/>
   <path fill="#669177" d="M245.27 153.32l-1 0 -15.63 0 -7.25 0 21.88 0 0 -13.44 -24.94 0c-0.7,-0.77 -1.49,-1.44 -2.37,-2l12.68 0 1 0 14.63 0c0.26,0 0.52,0.11 0.71,0.3 0.18,0.18 0.29,0.44 0.29,0.7l0 1 0 13.44z"/>
   <path fill="#3D6B8E" d="M259.88 170.76l-14.61 0 0 -1c0,-0.26 -0.11,-0.52 -0.29,-0.71 -0.19,-0.18 -0.45,-0.29 -0.71,-0.29l-14.63 0 29.26 0 0 -13.44 -29.26 0 0 -1c0,-0.26 -0.11,-0.52 -0.29,-0.71 -0.19,-0.18 -0.45,-0.29 -0.71,-0.29l0 0 15.63 0 1 0 14.63 0 -0.02 0c-0.55,0 -1,0.45 -1,1 0,0.55 0.45,1 1,1l1.02 0 0 13.44 -1 0 -0.02 0c-0.55,0 -1,0.45 -1,1 0,0.55 0.45,1 1,1z"/>
   <path fill="#3D6B8E" d="M229.64 168.76l-1 0 -7.25 0 6.25 0 0 -13.44 -6.25 0 0 -2 7.25 0c0.26,0 0.52,0.11 0.71,0.29 0.18,0.19 0.29,0.45 0.29,0.71l0 1 0 13.44z"/>
   <path fill="#3D6B8E" d="M245.27 184.2l-1 0 -15.63 0 -7.25 0 21.88 0 0 -13.44 -21.88 0 0 -2 7.25 0 1 0 14.63 0c0.26,0 0.52,0.11 0.71,0.29 0.18,0.19 0.29,0.45 0.29,0.71l0 1 0 13.44z"/>
   <path fill="#3D6B8E" d="M180.75 201.63l-14.64 0c0.23,0 0.45,-0.07 0.62,-0.21l14.02 0 0 0.21zm0.05 -1.31l-13.69 0 0 -0.01 1.54 0c0.01,0 0.01,0 0.02,0 0.47,0 0.88,-0.28 1.07,-0.67l26.64 0 0 -3.28 0 3.28 -14.63 0c-0.27,0 -0.53,0.1 -0.71,0.29 -0.11,0.11 -0.19,0.24 -0.24,0.39z"/>
   <path fill="#396082" d="M166.11 201.63l0 0c-0.23,0 -0.44,-0.08 -0.61,-0.21l1.23 0c-0.17,0.14 -0.39,0.21 -0.62,0.21zm1 -1.31l-1 0 0 -0.01 1 0 0 0.01zm-1 0l-0.94 0c0,0 0,-0.01 0,-0.01l0.94 0 0 0.01z"/>
   <path fill="#3D6B8E" d="M259.88 201.63l-14.61 0 0 -0.21 13.99 0c0.17,0.13 0.39,0.21 0.62,0.21zm-0.95 -1.31l-13.71 0c-0.05,-0.15 -0.13,-0.28 -0.24,-0.39 -0.19,-0.19 -0.45,-0.29 -0.71,-0.29l-14.63 0 29.26 0 0 -13.44 -29.26 0 0 -1c0,-0.27 -0.11,-0.52 -0.29,-0.71 -0.19,-0.19 -0.45,-0.29 -0.71,-0.29l0 0 15.63 0 1 0 14.63 0 -0.02 0c-0.55,0 -1,0.45 -1,1 0,0.55 0.45,1 1,1l1.02 0 0 13.44 -1 0 -0.02 0c-0.44,0 -0.81,0.28 -0.95,0.68z"/>
   <path fill="#669177" d="M229.64 199.64l-1 0 -15.63 0 -16.63 0 0 -3.28 2 0 0 3.28 29.26 0 0 -13.44 -6.25 0 0 -2 7.25 0c0.26,0 0.52,0.1 0.71,0.29 0.18,0.19 0.29,0.44 0.29,0.71l0 1 0 13.44z"/>
   <path fill="#669177" d="M212.01 215.08l-14.63 0 -16.63 0 0 -13.45 0 -0.21 31.26 0 0 13.66zm-29.27 -13.45l0 13.45 29.27 0 0 -13.45 -29.27 0zm29.32 -1.31l-31.26 0c0.05,-0.15 0.13,-0.28 0.24,-0.39 0.18,-0.19 0.44,-0.29 0.71,-0.29l14.63 0 16.63 0c-0.26,0 -0.52,0.1 -0.71,0.29 -0.11,0.11 -0.19,0.24 -0.24,0.39z"/>
   <path fill="#3D6B8E" d="M245.27 215.08l-1 0 -15.63 0 -16.63 0 0 -13.66 33.26 0 0 0.21 0 13.45zm-31.26 -13.45l0 13.45 29.26 0 0 -13.45 -29.26 0zm31.21 -1.31l-33.16 0c0.05,-0.15 0.13,-0.28 0.24,-0.39 0.19,-0.19 0.45,-0.29 0.71,-0.29l0 0 15.63 0 1 0 14.63 0c0.26,0 0.52,0.1 0.71,0.29 0.11,0.11 0.19,0.24 0.24,0.39z"/>
   <path fill="#669177" d="M274.51 78.13l-14.63 0 0.02 0c0.27,0 0.52,-0.11 0.71,-0.29 0.18,-0.19 0.29,-0.45 0.29,-0.71l0 0 0 -1 23.89 0 -9.28 0c-0.26,0 -0.52,0.11 -0.7,0.29 -0.19,0.19 -0.3,0.45 -0.3,0.71l0 1zm1.5 -15.44l-15.11 0 0 -1c0,-0.26 -0.11,-0.52 -0.29,-0.71 -0.19,-0.18 -0.44,-0.29 -0.71,-0.29l14.61 0 0.02 0c0.5,0.66 1,1.33 1.48,2z"/>
   <path fill="#669177" d="M259.9 78.13l-0.02 0c-0.55,0 -1,-0.45 -1,-1 0,-0.55 0.45,-1 1,-1l0.02 0 0 1 0 -1 1 0 0 1c0,0.26 -0.11,0.52 -0.29,0.71 -0.19,0.18 -0.44,0.29 -0.71,0.29zm1 -15.44l-1.02 0c-0.55,0 -1,-0.45 -1,-1 0,-0.55 0.45,-1 1,-1l0.02 0c0.27,0 0.52,0.11 0.71,0.29 0.18,0.19 0.29,0.45 0.29,0.71l0 1z"/>
   <polygon fill="#2B3044" points="292.14,76.13 292.14,76.13 292.14,62.69 "/>
   <polygon fill="#2B3044" points="305.77,153.32 305.33,153.32 305.77,153.32 305.77,141.87 "/>
   <polygon fill="#669177" points="305.33,153.32 291.14,153.32 274.51,153.32 274.51,141.87 276.51,141.87 276.51,153.32 "/>
   <path fill="#2B3044" d="M339.04 153.32l-1 0 -15.63 0 -16.64 0 0 -11.45 2 0 0 11.45 29.27 0 0 -11.45 0.99 0 0 -1.54 0 -2.45 0.01 0c0.26,0 0.52,0.11 0.7,0.3 0.19,0.18 0.3,0.44 0.3,0.7l0 1 0 13.44z"/>
   <path fill="#3D6B8E" d="M274.51 170.76l-14.63 0 0.02 0c0.27,0 0.52,-0.11 0.71,-0.29 0.18,-0.19 0.29,-0.45 0.29,-0.71l0 0 0 -1 29.24 0 0 -13.44 -29.24 0 0 -1c0,-0.26 -0.11,-0.52 -0.29,-0.71 -0.19,-0.18 -0.44,-0.29 -0.71,-0.29l14.61 0 16.63 0c-0.26,0 -0.52,0.11 -0.7,0.29 -0.19,0.19 -0.3,0.45 -0.3,0.71l0 14.44 -14.63 0c-0.26,0 -0.52,0.11 -0.7,0.29 -0.19,0.19 -0.3,0.45 -0.3,0.71l0 1z"/>
   <path fill="#376082" d="M259.9 170.76l-0.02 0c-0.55,0 -1,-0.45 -1,-1 0,-0.55 0.45,-1 1,-1l0.02 0 0 1 0 -1 1 0 0 1c0,0.26 -0.11,0.52 -0.29,0.71 -0.19,0.18 -0.44,0.29 -0.71,0.29zm1 -15.44l-1.02 0c-0.55,0 -1,-0.45 -1,-1 0,-0.55 0.45,-1 1,-1l0.02 0c0.27,0 0.52,0.11 0.71,0.29 0.18,0.19 0.29,0.45 0.29,0.71l0 1z"/>
   <polygon fill="#3D6B8E" points="292.14,168.76 292.14,168.76 292.14,155.32 "/>
   <path fill="#2B3044" d="M323.41 168.76l-1 0 -15.63 0 -2.6 0 17.23 0 0 -13.44 -16.1 0c0.01,-0.67 0.02,-1.33 0.02,-2l0.44 0 16.64 0c0.26,0 0.52,0.11 0.7,0.29 0.19,0.19 0.3,0.45 0.3,0.71l0 1 0 13.44z"/>
   <path fill="#3D6B8E" d="M304.18 168.76l-14.04 0 0 -14.44c0,-0.26 0.11,-0.52 0.3,-0.71 0.18,-0.18 0.44,-0.29 0.7,-0.29l0 0 14.19 0c0,0.67 -0.01,1.33 -0.02,2l-13.17 0 0 13.44 12.04 0z"/>
   <path fill="#2B3044" d="M305.77 184.2l-5.74 0 5.74 0 0 -13.44 -1.95 0c0.13,-0.67 0.24,-1.33 0.36,-2l2.6 0c-0.27,0 -0.53,0.11 -0.71,0.29 -0.19,0.19 -0.3,0.45 -0.3,0.71l0 14.44z"/>
   <path fill="#3D6B8E" d="M300.03 184.2l-8.89 0 -16.63 0 0 -13.44 0 -1c0,-0.26 0.11,-0.52 0.3,-0.71 0.18,-0.18 0.44,-0.29 0.7,-0.29l14.63 0 14.04 0c-0.12,0.67 -0.23,1.33 -0.36,2l-27.31 0 0 13.44 23.52 0z"/>
   <path fill="#2B3044" d="M339.04 184.2l-1 0 -15.63 0 -16.64 0 0 -14.44c0,-0.26 0.11,-0.52 0.3,-0.71 0.18,-0.18 0.44,-0.29 0.71,-0.29l15.63 0 1 0 14.63 0c0.26,0 0.52,0.11 0.7,0.29 0.19,0.19 0.3,0.45 0.3,0.71l0 1 0 13.44zm-31.27 -13.44l0 13.44 29.27 0 0 -13.44 -29.27 0z"/>
   <path fill="#3D6B8E" d="M274.51 201.63l-14.63 0 0.02 0c0.22,0 0.44,-0.07 0.62,-0.21l13.99 0 0 0.21zm0.06 -1.31l-13.67 0 0 -0.68 29.24 0 0 -13.44 -29.24 0 0 -1c0,-0.27 -0.11,-0.52 -0.29,-0.71 -0.19,-0.19 -0.44,-0.29 -0.71,-0.29l14.61 0 16.63 0c-0.26,0 -0.52,0.1 -0.7,0.29 -0.19,0.19 -0.3,0.44 -0.3,0.71l0 14.44 -14.63 0c-0.26,0 -0.52,0.1 -0.7,0.29 -0.11,0.11 -0.19,0.24 -0.24,0.39z"/>
   <path fill="#376082" d="M259.9 201.63l-0.02 0c-0.23,0 -0.45,-0.08 -0.62,-0.21l1.26 0c-0.18,0.14 -0.4,0.21 -0.62,0.21zm1 -1.31l-1 0 0 -0.68 1 0 0 0.68zm-1 0l-0.97 0c0.14,-0.4 0.51,-0.68 0.95,-0.68l0.02 0 0 0.68zm1 -14.12l-1.02 0c-0.55,0 -1,-0.45 -1,-1 0,-0.55 0.45,-1 1,-1l0.02 0c0.27,0 0.52,0.1 0.71,0.29 0.18,0.19 0.29,0.44 0.29,0.71l0 1z"/>
   <polygon fill="#3D6B8E" points="292.14,199.64 292.14,199.64 292.14,186.2 "/>
   <path fill="#2B3044" d="M323.41 199.64l-1 0 -15.63 0 -14.5 0 29.13 0 0 -13.44 -22.16 0c0.27,-0.67 0.53,-1.33 0.78,-2l5.74 0 16.64 0c0.26,0 0.52,0.1 0.7,0.29 0.19,0.19 0.3,0.44 0.3,0.71l0 1 0 13.44z"/>
   <path fill="#3D6B8E" d="M292.28 199.64l-2.14 0 0 -14.44c0,-0.27 0.11,-0.52 0.3,-0.71 0.18,-0.19 0.44,-0.29 0.7,-0.29l0 0 8.89 0c-0.25,0.67 -0.51,1.33 -0.78,2l-7.11 0 0 13.44 0.14 0z"/>
   <path fill="#3D6B8E" d="M279.46 215.08l-4.95 0 0 -13.45 0 -0.21 16.58 0c-0.04,0.07 -0.09,0.14 -0.14,0.21l-14.44 0 0 13.45 2.95 0zm12.38 -14.76l-17.27 0c0.05,-0.15 0.13,-0.28 0.24,-0.39 0.18,-0.19 0.44,-0.29 0.7,-0.29l14.63 0 2.14 0c-0.15,0.22 -0.3,0.45 -0.44,0.68z"/>
   <path fill="#2B3044" d="M368.53 201.63l-14.64 0c-0.03,0 -0.07,0 -0.11,0 0.22,-0.03 0.44,-0.13 0.6,-0.29 0.18,-0.19 0.29,-0.44 0.29,-0.7l0 0 0 -1 14.01 0 0 0.47c-0.1,0.16 -0.15,0.34 -0.15,0.53l0 0.99z"/>
   <path fill="#84BB9A" d="M14.16 201.42c14.92,21.94 40.19,36.26 68.56,36.26l139.89 0c28.38,0 53.57,-14.33 68.48,-36.26l-276.93 0z"/>
   <path fill="#2C3248" d="M353.63 201.42l-352.98 0c-0.3,0 -0.55,-0.25 -0.55,-0.55 0,-0.31 0.25,-0.55 0.55,-0.55l352.98 0c0.3,0 0.55,0.24 0.55,0.55 0,0.3 -0.25,0.55 -0.55,0.55z"/>
   <path fill="#4B4B4D" d="M241.65 70.88l-12.01 0 0 -2.72 14.34 0 0 0.39c0,1.28 -1.05,2.33 -2.33,2.33zm-14.01 0l-29.26 0 0 -2.72 29.26 0 0 2.72zm-31.26 0l-4.46 0c-1.29,0 -2.34,-1.05 -2.34,-2.33l0 -5.86 2.84 0 0 3.14c0,1.28 1.04,2.33 2.33,2.33l1.63 0 0 2.72zm-3.96 -10.19l-2.84 0 0 -13.44 2.84 0 0 13.44zm0 -15.44l-2.84 0 0 -10.17c0,-1.29 1.05,-2.33 2.34,-2.33l0.5 0 0 12.5z"/>
   <polygon fill="#4B4B4D" points="192.42,47.25 189.58,47.25 189.58,45.25 192.42,45.25 "/>
   <polygon fill="#4B4B4D" points="192.42,62.69 189.58,62.69 189.58,60.69 192.42,60.69 "/>
   <path fill="#4B4B4D" d="M229.64 70.88l-2 0 0 -2.72 2 0 0 2.72zm-31.26 0l-2 0 0 -2.72 2 0 0 2.72z"/>
   <path fill="#727376" d="M246.81 32.36l0 33.47c0,1.28 -1.04,2.33 -2.33,2.33l-49.73 0c-1.29,0 -2.33,-1.05 -2.33,-2.33l0 -33.47c0,-1.29 1.04,-2.33 2.33,-2.33l49.73 0c1.29,0 2.33,1.04 2.33,2.33z"/>
   <path fill="#386386" d="M244.48 68.16l-0.5 0 0.5 0c1.29,0 2.33,-1.05 2.33,-2.33l0 -3.14 0 3.14c0,1.28 -1.04,2.33 -2.33,2.33z"/>
   <path fill="#606062" d="M244.48 68.16l-0.5 0 -14.34 0 -2 0 -29.26 0 -2 0 -1.63 0c-1.29,0 -2.33,-1.05 -2.33,-2.33l0 -29.58c0,-1.93 1.57,-3.5 3.5,-3.5l10.21 0c0.6,0 1.13,0.38 1.32,0.96 0.16,0.49 0.4,1.15 0.74,1.94l-7.02 0 0 0 -3.33 0c-0.21,0 -0.39,0.18 -0.39,0.39l0 3.32 0 0.01 0 13.8 0 0 0 5.61 0 0 0 3.36c0,0.05 0.01,0.09 0.03,0.13l0 0c0.05,0.15 0.19,0.26 0.36,0.26l6.12 0 0 0 17.29 0 0 0 5.11 0 0 0 7.02 0 0 0 8 0c0.22,0 0.39,-0.18 0.39,-0.39l0 -3.96c1.61,0.19 3.29,0.32 5.04,0.39l0 2.12 0 2 0 3.14c0,1.28 -1.04,2.33 -2.33,2.33z"/>
   <path fill="#FDE9E3" d="M241.38 62.53l-43.54 0c-0.21,0 -0.39,-0.18 -0.39,-0.39l0 -26.1c0,-0.21 0.18,-0.39 0.39,-0.39l43.54 0c0.22,0 0.39,0.18 0.39,0.39l0 26.1c0,0.21 -0.17,0.39 -0.39,0.39z"/>
   <polygon fill="#5180A4" points="197.45,53.17 197.45,39.37 197.45,39.36 197.45,53.17 "/>
   <path fill="#6899BB" d="M214.98 35.65l-6.79 0c0,0 0,0 0,0l6.79 0 0 0z"/>
   <path fill="#5180A4" d="M208.19 35.65l-7.02 0 0 0 7.02 0c0,0 0,0 0,0z"/>
   <polygon fill="#E9DBD8" points="197.45,53.17 197.45,39.36 201.17,35.65 208.19,35.65 214.98,35.65 "/>
   <path fill="#5180A4" d="M197.48 62.27c-0.02,-0.04 -0.03,-0.08 -0.03,-0.13l0 -3.36 0 0 0 3.36c0,0.04 0.01,0.09 0.03,0.13l0 0z"/>
   <polygon fill="#6899BB" points="224.09,35.65 220.58,35.65 220.58,35.65 224.09,35.65 "/>
   <path fill="#E9DBD8" d="M197.48 62.27c-0.02,-0.04 -0.03,-0.09 -0.03,-0.13l0 -3.36 23.13 -23.13 3.51 0 -26.61 26.62z"/>
   <polygon fill="#5180A4" points="221.25,62.53 203.96,62.53 203.96,62.53 221.25,62.53 "/>
   <path fill="#6899BB" d="M241.77 42.01l0 -5.97c0,-0.21 -0.17,-0.39 -0.39,-0.39l-10.54 0 0 0 10.54 0c0.22,0 0.39,0.18 0.39,0.4l0 5.96z"/>
   <path fill="#E9DBD8" d="M221.25 62.53l-17.29 0 26.88 -26.88 10.54 0c0.22,0 0.39,0.18 0.39,0.39l0 5.97 -20.52 20.52z"/>
   <polygon fill="#5180A4" points="233.38,62.53 226.36,62.53 226.36,62.53 233.38,62.53 "/>
   <polygon fill="#E9DBD8" points="233.38,62.53 226.36,62.53 241.77,47.11 241.77,54.14 "/>
   <path fill="#84BB9A" stroke="black" stroke-width="0.22" stroke-miterlimit="22.9256" d="M231.66 98.66c0,0 -10.37,-2.83 -9.87,-20.31 0.37,-12.96 5.77,-22.76 8.54,-26.97 0.67,-1.02 2.21,-0.86 2.66,0.27 2.24,5.66 7.35,19.62 7.28,29.36 -0.08,12.49 -8.61,17.65 -8.61,17.65z"/>
   <path fill="#2C3248" d="M234.47 156.98l-5.43 0c0,0 1.37,-76.29 2.12,-98.36 0,0 2.94,74.88 3.31,98.36z"/>
   <path fill="#84BB9A" stroke="black" stroke-width="0.22" stroke-miterlimit="22.9256" d="M227.29 106.57c0,0 -2.83,-15.98 -16.49,-19.65 -9.75,-2.61 -16.96,1.85 -20.28,4.62 -0.99,0.82 -0.73,2.4 0.46,2.87 2.66,1.06 6.93,2.91 10.33,5.08 5.33,3.42 18.57,3.25 25.98,7.08z"/>
   <path fill="#2C3248" d="M231.55 118.98c0,0 -0.9,-3.63 -1,-3.95 -0.1,-0.33 -0.26,-0.82 -0.49,-1.43 -0.45,-1.21 -1.17,-2.94 -2.21,-4.92 -0.52,-0.98 -1.1,-2.09 -1.81,-3.1 -0.71,-1.05 -1.56,-2.1 -2.5,-3.12 -1.88,-2.06 -4.16,-4.01 -6.66,-5.61 -1.25,-0.81 -2.55,-1.54 -3.88,-2.15 -1.33,-0.62 -2.68,-1.12 -4.02,-1.52 -1.33,-0.41 -2.66,-0.66 -3.92,-0.88 -1.27,-0.17 -2.48,-0.29 -3.59,-0.3 -0.28,-0.01 -0.56,-0.01 -0.83,-0.02 -0.26,0.01 -0.53,0.01 -0.78,0.02 -0.51,0 -0.99,0.01 -1.45,0.05 -0.45,0.03 -0.88,0.03 -1.28,0.07 -0.39,0.04 -0.75,0.07 -1.08,0.1 -0.65,0.05 -1.17,0.12 -1.52,0.15 -0.35,0.04 -0.54,0.05 -0.54,0.05 0,0 0.18,-0.05 0.52,-0.15 0.34,-0.09 0.84,-0.26 1.49,-0.39 0.65,-0.14 1.44,-0.3 2.37,-0.39 0.22,-0.03 0.46,-0.06 0.71,-0.09 0.24,-0.01 0.5,-0.02 0.76,-0.04 0.26,-0.01 0.52,-0.02 0.8,-0.04 0.27,0 0.55,0.01 0.84,0.01 1.14,-0.01 2.38,0.1 3.68,0.25 1.3,0.2 2.67,0.44 4.04,0.83 1.38,0.39 2.78,0.89 4.16,1.49 1.38,0.62 2.73,1.34 4.03,2.15 2.59,1.63 4.94,3.62 6.89,5.73 0.98,1.05 1.86,2.12 2.62,3.21 0.19,0.27 0.37,0.56 0.54,0.83 0.08,0.13 0.16,0.27 0.24,0.4 0.09,0.15 0.16,0.28 0.24,0.41 0.3,0.54 0.58,1.07 0.84,1.57 1.05,2.03 1.78,3.8 2.24,5.05 0.24,0.63 0.4,1.13 0.51,1.48 0.1,0.35 0.15,0.54 0.15,0.54l-0.11 3.71z"/>
   <path fill="#84BB9A" stroke="black" stroke-width="0.22" stroke-miterlimit="22.9256" d="M233.78 113.86c0,0 3,-12.95 12.99,-19.82 9.99,-6.87 20.85,1.37 20.85,1.37 0,0 -2.62,2.23 -5.99,7.17 -3.37,4.95 -10.36,10.98 -27.85,11.28z"/>
   <path fill="#2C3248" d="M231.56 115.74c0,0 0.4,-0.47 1.08,-1.29 0.17,-0.21 0.36,-0.44 0.57,-0.68 0.05,-0.07 0.1,-0.13 0.16,-0.19 0.06,-0.07 0.12,-0.14 0.18,-0.21 0.12,-0.13 0.24,-0.26 0.37,-0.4 0.51,-0.56 1.09,-1.17 1.74,-1.83 1.29,-1.31 2.85,-2.8 4.59,-4.31 1.73,-1.52 3.66,-3.06 5.66,-4.49 1.01,-0.72 2.04,-1.4 3.08,-2.03 1.03,-0.63 2.08,-1.22 3.12,-1.73 1.03,-0.52 2.06,-0.96 3.05,-1.35 0.51,-0.16 0.99,-0.35 1.47,-0.49 0.49,-0.13 0.95,-0.28 1.41,-0.37 0.9,-0.22 1.75,-0.34 2.5,-0.41 0.38,-0.01 0.74,-0.03 1.06,-0.03 0.33,0.01 0.64,0.05 0.91,0.07 0.54,0.03 0.95,0.18 1.23,0.24 0.28,0.06 0.43,0.11 0.43,0.11 0,0 -0.16,0.01 -0.45,0 -0.11,0 -0.23,0 -0.38,-0.01 -0.24,-0.01 -0.52,-0.01 -0.85,0.01 -0.26,0.01 -0.56,0.02 -0.87,0.03 -0.32,0.04 -0.66,0.07 -1.03,0.1 -0.36,0.04 -0.74,0.12 -1.15,0.18 -0.41,0.05 -0.83,0.18 -1.27,0.27 -0.44,0.1 -0.88,0.26 -1.35,0.39 -0.47,0.15 -0.94,0.34 -1.42,0.52 -0.96,0.4 -1.97,0.84 -2.97,1.38 -1.01,0.52 -2.02,1.12 -3.03,1.76 -0.5,0.31 -1,0.66 -1.5,1 -0.49,0.35 -0.99,0.69 -1.48,1.05 -3.93,2.86 -7.49,6.22 -10.06,8.81 -0.64,0.65 -1.21,1.26 -1.71,1.8 -0.13,0.14 -0.25,0.27 -0.36,0.4 -0.06,0.06 -0.11,0.12 -0.16,0.17 -0.05,0.07 -0.1,0.13 -0.16,0.19 -0.2,0.25 -0.39,0.48 -0.56,0.69 -0.68,0.82 -1.08,1.29 -1.08,1.29l-0.77 -0.64z"/>
   <path fill="#84BB9A" stroke="black" stroke-width="0.22" stroke-miterlimit="22.9256" d="M235.44 126.67c0,0 3.36,-9 15.03,-10.14 11.68,-1.15 18.28,7.91 18.28,7.91 0,0 -3.51,-0.1 -8.94,3.16 -5.43,3.27 -13.67,7.17 -24.37,-0.93z"/>
   <path fill="#2C3248" d="M231.54 130.46c0,0 0.34,-0.47 0.95,-1.25 0.3,-0.4 0.68,-0.87 1.14,-1.4 0.47,-0.52 0.98,-1.11 1.67,-1.7 0.31,-0.26 0.72,-0.56 1.09,-0.82 0.39,-0.27 0.79,-0.53 1.22,-0.78 0.42,-0.26 0.87,-0.49 1.33,-0.73 0.46,-0.25 0.94,-0.46 1.43,-0.69 0.48,-0.23 1,-0.42 1.51,-0.62 0.26,-0.1 0.52,-0.21 0.79,-0.3 0.26,-0.08 0.53,-0.16 0.8,-0.25 0.54,-0.18 1.07,-0.35 1.63,-0.47 0.56,-0.12 1.11,-0.3 1.68,-0.38 0.56,-0.09 1.13,-0.19 1.69,-0.28 0.56,-0.07 1.13,-0.1 1.69,-0.16 0.28,-0.02 0.56,-0.04 0.84,-0.07 0.28,0 0.56,0 0.83,0 0.55,0 1.1,-0.01 1.63,-0.01 0.54,0.04 1.06,0.08 1.57,0.12 0.52,0.04 1.02,0.06 1.5,0.15 0.49,0.08 0.96,0.16 1.41,0.23 0.46,0.08 0.9,0.13 1.31,0.25 0.83,0.21 1.59,0.41 2.25,0.6 0.33,0.09 0.63,0.23 0.91,0.34 0.28,0.11 0.53,0.22 0.76,0.32 0.91,0.4 1.41,0.66 1.41,0.66 0,0 -0.57,-0.09 -1.52,-0.32 -0.49,-0.1 -1.06,-0.28 -1.72,-0.43 -0.67,-0.13 -1.42,-0.3 -2.23,-0.49 -0.41,-0.11 -0.84,-0.15 -1.29,-0.21 -0.44,-0.07 -0.91,-0.13 -1.38,-0.2 -0.47,-0.09 -0.96,-0.08 -1.46,-0.12 -0.51,-0.03 -1.02,-0.05 -1.54,-0.08 -0.52,0.01 -1.05,0.03 -1.59,0.04 -0.26,0.01 -0.53,0.02 -0.8,0.02 -0.27,0.03 -0.54,0.06 -0.81,0.09 -0.55,0.06 -1.1,0.1 -1.64,0.19 -0.55,0.1 -1.09,0.2 -1.64,0.3 -0.54,0.09 -1.07,0.26 -1.61,0.39 -0.54,0.12 -1.06,0.29 -1.58,0.46 -0.26,0.09 -0.52,0.17 -0.77,0.26 -0.26,0.08 -0.5,0.19 -0.75,0.29 -0.5,0.2 -1,0.38 -1.46,0.61 -0.47,0.22 -0.94,0.43 -1.37,0.67 -0.44,0.24 -0.87,0.47 -1.27,0.72 -0.41,0.24 -0.8,0.49 -1.17,0.74 -0.19,0.12 -0.35,0.25 -0.52,0.37 -0.16,0.12 -0.33,0.24 -0.49,0.38 -0.6,0.51 -1.11,1.09 -1.56,1.59 -0.44,0.51 -0.81,0.97 -1.12,1.35 -0.61,0.76 -0.94,1.21 -0.94,1.21l-0.81 -0.59z"/>
   <path fill="#84BB9A" stroke="black" stroke-width="0.22" stroke-miterlimit="22.9256" d="M195.84 129.38c-0.77,-0.1 -1.3,-0.83 -1.13,-1.59 0.51,-2.33 2.18,-7.11 7.6,-11.14 7.49,-5.58 20.15,-4.75 26.73,2.91 0,0 -5.86,8.52 -16.65,10.07 -6.95,1 -12.72,0.22 -16.55,-0.25z"/>
   <path fill="#2C3248" d="M231.86 125.67c0,-0.01 0,-0.15 -0.03,-0.44 -0.03,-0.29 -0.09,-0.73 -0.22,-1.27 -0.13,-0.53 -0.34,-1.18 -0.7,-1.84 -0.36,-0.66 -0.87,-1.36 -1.63,-1.86 -0.72,-0.51 -1.76,-0.76 -2.85,-1.01 -1.1,-0.23 -2.28,-0.4 -3.51,-0.51 -2.46,-0.23 -5.11,-0.22 -7.74,0.05 -1.31,0.15 -2.61,0.36 -3.88,0.64 -1.27,0.27 -2.5,0.65 -3.66,1.06 -1.17,0.41 -2.26,0.91 -3.27,1.42 -0.49,0.27 -0.98,0.54 -1.43,0.82 -0.44,0.29 -0.89,0.55 -1.28,0.86 -0.8,0.57 -1.51,1.14 -2.11,1.68 -0.3,0.28 -0.57,0.53 -0.83,0.77 -0.24,0.25 -0.47,0.48 -0.67,0.69 -0.41,0.41 -0.7,0.77 -0.91,0.99 -0.21,0.23 -0.32,0.36 -0.32,0.36 0,0 0.09,-0.14 0.26,-0.4 0.09,-0.13 0.2,-0.29 0.33,-0.48 0.12,-0.19 0.28,-0.4 0.47,-0.62 0.19,-0.23 0.39,-0.48 0.62,-0.76 0.23,-0.26 0.51,-0.53 0.79,-0.82 0.58,-0.58 1.28,-1.2 2.09,-1.79 0.4,-0.32 0.85,-0.59 1.3,-0.9 0.46,-0.29 0.94,-0.58 1.45,-0.86 1.02,-0.55 2.12,-1.07 3.31,-1.51 1.18,-0.44 2.42,-0.85 3.71,-1.15 1.29,-0.3 2.61,-0.55 3.95,-0.72 2.67,-0.32 5.37,-0.38 7.89,-0.19 1.26,0.09 2.48,0.24 3.63,0.47 0.57,0.11 1.13,0.24 1.66,0.41 0.27,0.09 0.58,0.19 0.8,0.3 0.27,0.11 0.49,0.28 0.73,0.41 0.92,0.6 1.54,1.43 1.96,2.18 0.41,0.77 0.64,1.48 0.8,2.08 0.15,0.59 0.22,1.06 0.25,1.39 0.02,0.17 0.03,0.29 0.03,0.39 0.01,0.09 0.01,0.13 0.01,0.13l-1 0.03z"/>
   <polygon fill="#FDE9E3" points="251.78,154.69 250.99,161.87 246.78,200.32 218.48,200.32 214.27,161.87 213.48,154.69 "/>
   <polygon fill="#2C3248" points="251.78,154.69 250.99,161.87 214.27,161.87 213.48,154.69 "/>
   <polygon fill="#84BB9A" points="338.03,78.18 338.03,141.87 245.7,141.87 245.7,78.18 "/>
   <path fill="#669177" d="M338.03 141.87l-30.26 0 -2 0 -29.26 0 -2 0 -28.81 0 0 -60.53 12.92 0c7.85,0 15.15,4.06 19.3,10.72 0.13,0.22 0.27,0.44 0.41,0.66l-12.29 0 0 34.61 50.17 0 0 -1.24 0 -0.94c3.77,1.47 7.81,2.67 12.13,3.51 5.61,1.08 9.69,5.96 9.69,11.67l0 1.54z"/>
   <polygon fill="#669177" points="316.21,92.72 316.21,127.33 266.04,127.33 266.04,92.72 "/>
   <path fill="#709E82" d="M316.21 127.33l-50.17 0 0 -31.1 17.73 0c3.5,0 6.64,2.09 8.05,5.29 2.7,6.1 8.64,15.7 20.13,18.95 2.52,0.72 4.26,3 4.26,5.62l0 1.24z"/>
   <path fill="#84BB9A" d="M266.05 127.33l0 0 0 -34.61c-0.96,0 -1.74,0.78 -1.74,1.75l0 31.12c0,0.96 0.78,1.74 1.74,1.74z"/>
   <path fill="#84BB9A" stroke="black" stroke-width="0.22" stroke-miterlimit="22.9256" d="M308.1 149.99l-18.4 0 -6.52 -37.02c-0.27,-1.53 0.91,-2.94 2.47,-2.94l15.78 2.07 6.67 37.89z"/>
   <polygon fill="#5C826B" points="311.26,149.99 292.86,149.99 285.83,110.03 304.23,110.03 "/>
   <path fill="#FDE9E3" d="M245.7 141.87l0 0 0 -63.69c-1.77,0 -3.21,1.44 -3.21,3.21l0 57.28c0,1.77 1.44,3.2 3.21,3.2z"/>
   <polygon fill="#84BB9A" stroke="black" stroke-width="0.22" stroke-miterlimit="22.9256" points="273.51,153.28 288.66,153.28 288.66,149.99 273.51,149.99 "/>
   <polygon fill="#2C3248" points="315.09,153.28 288.66,153.28 288.66,149.99 315.09,149.99 "/>
   <path fill="#709E82" stroke="black" stroke-width="0.22" stroke-miterlimit="22.9256" d="M349.29 200.32l-75.36 0 0 -47.04 72.87 0c1.37,0 2.49,1.11 2.49,2.49l0 44.55z"/>
   <polygon fill="#2C3248" points="340.39,201.42 282.83,201.42 282.83,160.6 340.39,160.6 "/>
   <polygon fill="#84BB9A" points="340.39,200.32 337.98,200.32 337.98,160.6 340.39,160.6 "/>
   <path fill="#84BB9A" stroke="black" stroke-width="0.22" stroke-miterlimit="22.9256" d="M231.23 200.32l42.7 0 0 -47.04 -40.21 0c-1.37,0 -2.49,1.11 -2.49,2.49l0 44.55z"/>
   <polygon fill="#2C3248" points="236.27,201.42 268.89,201.42 268.89,160.6 236.27,160.6 "/>
   <polygon fill="#669177" points="236.27,200.32 237.64,200.32 237.64,160.6 236.27,160.6 "/>
   <path fill="#4B4B4D" d="M127.56 84.13l-7.34 0 0 -2.54 9.59 0c0.03,0 0.06,0 0.08,0l0 0.21c0,1.29 -1.04,2.33 -2.33,2.33zm-9.34 0l-20.13 0c-1.29,0 -2.33,-1.04 -2.33,-2.33l0 -3.67 2.25 0 0 1.13c0,0.6 0.22,1.14 0.58,1.55 0,0 0,0 0,0 0,0 0,0 0.01,0 0.42,0.48 1.04,0.78 1.73,0.78l17.89 0 0 2.54zm-20.21 -8l-2.25 0 0 -13.44 2.25 0 0 13.44zm0 -15.44l-2.25 0 0 -12.35c0,-0.26 0.04,-0.5 0.11,-0.73 0.04,-0.12 0.09,-0.24 0.16,-0.36l1.98 0 0 13.44z"/>
   <path fill="#395D7F" d="M98.01 47.25l-1.98 0c0.38,-0.72 1.12,-1.21 1.98,-1.25l0 1.25z"/>
   <polygon fill="#4B4B4D" points="98.01,62.69 95.76,62.69 95.76,60.69 98.01,60.69 "/>
   <polygon fill="#4B4B4D" points="98.01,78.13 95.76,78.13 95.76,76.13 98.01,76.13 "/>
   <polygon fill="#4B4B4D" points="120.22,84.13 118.22,84.13 118.22,81.59 120.22,81.59 "/>
   <path fill="#727376" d="M132.14 45.8l0 33.46c0,1.29 -1.05,2.33 -2.33,2.33l-29.47 0c-1.29,0 -2.33,-1.04 -2.33,-2.33l0 -33.46c0,-0.26 0.03,-0.5 0.11,-0.73 0.31,-0.93 1.18,-1.61 2.22,-1.61l29.47 0c1.28,0 2.33,1.05 2.33,2.34z"/>
   <path fill="#365676" d="M118.22 81.59l-17.89 0c-0.69,0 -1.31,-0.3 -1.73,-0.78 0.42,0.48 1.05,0.78 1.74,0.78l17.88 0z"/>
   <path fill="#365676" d="M98.59 80.81c0,0 0,0 0,0 0,0 0,0 0,0z"/>
   <path fill="#606062" d="M129.81 81.59l-9.59 0 -2 0 -17.88 0c-0.69,0 -1.32,-0.3 -1.74,-0.78 -0.01,0 -0.01,0 -0.01,0 0,0 0,0 0,0 -0.36,-0.41 -0.58,-0.95 -0.58,-1.55l0 0 0 -33.46c0,-0.26 0.03,-0.5 0.11,-0.73l10.98 0c0.86,0 1.58,0.66 1.64,1.52 0.04,0.66 0.12,1.51 0.26,2.5l-7.56 0c-0.22,0 -0.4,0.18 -0.4,0.39l0 6.59 0 0 0 7.09 0 0 0 9.17 0 0 0 1.92 0 0 0 1.33c0,0.21 0.18,0.39 0.4,0.39l23.27 0c0.04,0 0.08,-0.01 0.12,-0.02 0.16,-0.05 0.27,-0.2 0.27,-0.37l0 -2.2c1.53,0.74 3.21,1.38 5.04,1.89l0 0.86 0 2 0 1.13c0,1.29 -1.05,2.33 -2.33,2.33z"/>
   <path fill="#FDE9E3" d="M126.71 75.97l-23.27 0c-0.22,0 -0.4,-0.18 -0.4,-0.39l0 -26.1c0,-0.21 0.18,-0.39 0.4,-0.39l23.27 0c0.22,0 0.39,0.18 0.39,0.39l0 26.1c0,0.21 -0.17,0.39 -0.39,0.39z"/>
   <polygon fill="#5180A4" points="103.04,63.16 103.04,56.07 103.04,56.07 103.04,63.16 "/>
   <polygon fill="#E9DBD8" points="103.04,63.16 103.04,56.07 110.02,49.09 117.11,49.09 "/>
   <polygon fill="#4F7B9F" points="103.04,74.25 103.04,72.33 103.04,72.33 103.04,74.25 "/>
   <path fill="#D7CFD0" d="M103.04 74.25l0 -1.92 23.23 -23.24 0.44 0c0.22,0 0.39,0.18 0.39,0.39l0 0.71 -24.06 24.06z"/>
   <path fill="#4F7B9F" d="M126.83 75.95c0.16,-0.05 0.27,-0.2 0.27,-0.37l0 -2.2 0 2.2c0,0.17 -0.11,0.32 -0.27,0.37z"/>
   <path fill="#D7CFD0" d="M126.71 75.97l-17.73 0 18.12 -18.13 0 15.54 0 2.2c0,0.17 -0.11,0.32 -0.27,0.37 -0.04,0.01 -0.08,0.02 -0.12,0.02z"/>
   <path fill="#CD344A" d="M218.76 196.36l-69.68 0c-1.45,0 -2.62,-1.18 -2.62,-2.62l0 -57.7 63.19 0c6.48,0 11.74,5.26 11.74,11.74l0 45.96c0,1.44 -1.18,2.62 -2.63,2.62z"/>
   <path fill="#CD344A" d="M169.94 136.04l-23.48 0 -6.17 -30.15c-1.46,-7.13 3.99,-13.8 11.27,-13.8 5.46,0 10.17,3.84 11.27,9.19l7.11 34.76z"/>
   <path fill="#386386" d="M209.68 136.04c-0.01,0 -0.02,0 -0.03,0l0.03 0c0,0 0,0 0,0z"/>
   <path fill="#9C3245" d="M205.72 196.36l-5.19 0c-1.45,0 -2.62,-1.18 -2.62,-2.62l0 -0.09 0 -19.56 0 -5.41 0 -10.28 0 -10.62c0,-6.48 5.25,-11.74 11.74,-11.74l0 0c0.01,0 0.02,0 0.03,0 0.6,0.01 0.77,0.84 0.22,1.09 -4.01,1.86 -6.8,5.93 -6.8,10.65l0 45.96c0,1.44 1.17,2.62 2.62,2.62z"/>
   <path fill="#9C3245" d="M192.08 155.69l-11.06 0c0.66,-0.79 1.21,-1.8 1.57,-3.09l0 0c0.04,-0.15 0.08,-0.29 0.11,-0.44 0.04,-0.15 0.07,-0.31 0.1,-0.47l0 0c0.09,-0.49 0.14,-0.94 0.14,-1.34 0,-1.04 -0.29,-1.8 -0.78,-2.35 2.43,-1.28 4.5,-2.95 5.56,-5.03l0 0c0.64,-1.23 0.91,-2.61 0.7,-4.14 -0.15,-1.05 -0.43,-1.98 -0.82,-2.79l16.22 0c-6.48,0 -11.74,5.26 -11.74,11.74l0 7.91zm-23.98 0l-9.92 0c0.17,-0.28 0.34,-0.61 0.52,-0.99l6.87 -0.07c0,0 1.07,0.47 2.53,1.06zm-10.01 -17.74c-0.01,-0.17 -0.01,-0.35 -0.01,-0.54 0,-0.42 0.01,-0.88 0.02,-1.37l1.66 0c0.26,0.37 0.57,0.64 0.94,0.79 0.01,0 0.01,0.01 0.02,0.01 0.08,0.03 0.17,0.06 0.26,0.08 -0.98,0.35 -1.95,0.69 -2.89,1.03z"/>
   <polygon fill="#2C3248" points="161.49,200.32 154.91,200.32 154.16,196.36 162.24,196.36 "/>
   <polygon fill="#5C826B" points="212.94,200.32 206.36,200.32 205.61,196.36 213.69,196.36 "/>
   <path fill="#FAAC40" d="M195.21 171.38l-167.57 0c-1.5,0 -2.71,-1.21 -2.71,-2.7l0 -10.28c0,-1.5 1.21,-2.71 2.71,-2.71l167.57 0c1.49,0 2.7,1.21 2.7,2.71l0 10.28c0,1.49 -1.21,2.7 -2.7,2.7z"/>
   <path fill="#F79639" d="M189.3 160.44l-63.98 0c-0.16,-1.62 -0.31,-3.22 -0.46,-4.75l3.53 0c1.36,1.62 3.19,2.61 5.21,2.61 0.57,0 1.16,-0.07 1.75,-0.24 1.09,-0.31 2.51,-0.97 3.99,-1.78 0.11,-0.06 0.23,-0.13 0.35,-0.19 9.18,0.62 17.51,0.93 17.51,0.93 0,0 0.45,-0.44 0.98,-1.33l9.92 0c0.06,0.03 0.13,0.05 0.19,0.08l0.01 0c2.6,1.06 6.3,2.47 7.51,2.47 0.01,0 0.02,0 0.03,0 0,0 0,0 0,0 0,0 0.01,0 0.01,0 0,0 0,0 0,0 0,0 0.01,0 0.01,0 0,0 0,0 0,0 0.01,0 0.01,0 0.01,0 0,0 0,0 0,0 1.31,-0.01 3.53,-0.6 5.15,-2.55l10.99 0 0 2.05c0,1.49 -1.21,2.7 -2.71,2.7zm-77.64 0l-4.7 0c-0.13,-1.39 -0.26,-2.76 -0.39,-4.09 1.2,-0.04 2.22,-0.08 2.99,-0.11 0.03,0 0.05,0 0.07,0 0.89,0 1.65,0.68 1.74,1.57l0.29 2.63zm-18.36 0l-68.37 0 0 -2.04c0,-1.5 1.21,-2.71 2.71,-2.71l26.88 0c0,0 0,0 0,0 0,0 0,0 0,0 0.01,0 0.01,0 0.01,0.01 0,0 0,0 0,0 0.01,0 0.01,0 0.02,0l0 0c0,0 0,0.01 0.01,0.01 0,0 0,0 0,0 0,0 0.01,0 0.01,0 0,0 0,0 0,0 0,0 0.01,0.01 0.01,0.01 0,0 0,0 0,0 0,0 0.01,0 0.01,0 0,0 0,0 0,0 0.01,0 0.01,0 0.02,0.01 0,0 0,0 0,0 0,0 0,0 0.01,0 0,0 0,0 0,0 0,0 0,0 0.01,0 0,0.01 0,0.01 0,0.01 0,0 0.01,0 0.01,0 0,0 0,0 0,0 0,0 0.01,0 0.01,0 0,0 0,0 0.01,0.01 0,0 0,0 0.01,0 0,0 0,0 0,0 0,0 0,0 0.01,0 0,0 0,0 0,0 0,0.01 0.01,0.01 0.01,0.01 0,0 0,0 0,0 0.01,0 0.01,0 0.01,0 0,0 0,0 0.01,0 0,0.01 0,0.01 0,0.01 0,0 0.01,0 0.02,0 0,0 0,0 0,0 0,0 0,0 0.01,0.01 0,0 0,0 0,0 0,0 0.01,0 0.01,0 0,0 0,0 0,0 0,0 0.01,0 0.01,0 0,0 0,0 0,0 0.02,0.01 0.03,0.01 0.05,0.02 0,0 0,0 0,0 2.1,0.68 8.36,0.89 15.22,0.89 3.47,0 7.09,-0.06 10.4,-0.13 2.38,0.09 5.12,0.13 7.95,0.13 1.28,0 2.58,-0.01 3.87,-0.02 0.43,0.33 0.73,0.82 0.8,1.4l0 0 0.25 2.37z"/>
   <path fill="#FAAC40" d="M195.21 171.38l-167.57 0c-1.5,0 -2.71,1.22 -2.71,2.71l0 19.56c0,1.5 1.21,2.71 2.71,2.71l167.57 0c1.49,0 2.7,-1.21 2.7,-2.71l0 -19.56c0,-1.49 -1.21,-2.71 -2.7,-2.71z"/>
   <path fill="#F79639" d="M97.71 196.36l-24.61 0 -2 0 -29.26 0 -2 0 -12.2 0c-1.5,0 -2.71,-1.21 -2.71,-2.71l0 -19.56c0,-1.49 1.21,-2.71 2.71,-2.71l66.84 0 1.86 17.27c0,0 0.34,-0.01 0.95,-0.03l0.44 2.89c0,0 0,0 0,0 0,0.01 0,0.77 0,1.77 0,0.96 0,2.14 -0.02,3.08zm11.92 -3.32c-0.9,-0.68 -1.87,-1.48 -2.66,-2.15 -0.78,-0.66 -1.3,-1.57 -1.48,-2.56 1.24,-0.05 2.54,-0.11 3.84,-0.18 0,0 -0.6,-7.66 -1.39,-16.77l4.89 0 0.82 7.57c-1.49,0.01 -2.69,1.22 -2.69,2.7l0 7.07c0,1.6 -0.49,3.09 -1.33,4.32zm83.42 -14.09l-37.25 0 0 -3.47c0,-0.96 -0.3,-1.9 -0.85,-2.69l-0.97 -1.41 41.23 0c1.49,0 2.7,1.22 2.7,2.71l0 0c0,2.68 -2.17,4.86 -4.86,4.86zm-49.87 0l-16.24 0c-0.2,-2.29 -0.41,-4.86 -0.64,-7.57l18.69 0 -0.97 1.41c-0.54,0.79 -0.84,1.73 -0.84,2.69l0 3.47z"/>
   <polygon fill="#CD344A" points="155.58,155.69 24.93,155.69 24.93,92.09 151.56,92.09 151.56,136.04 "/>
   <path fill="#9C3245" d="M128.39 155.69l-3.53 0c-0.03,-0.31 -0.06,-0.62 -0.09,-0.93 1,0.12 2.07,0.24 3.18,0.36 0.13,0.2 0.28,0.39 0.44,0.57zm-73.88 0l-18.9 0 0 -14.22c4.25,-0.68 7.7,-2.49 7.7,-5.43l-1.21 -5.91c2.02,-0.31 4.97,-1.26 7.95,-2.36 0.54,7.7 1,14.26 1,14.26 0,0 0.35,-0.11 0.97,-0.29 -0.01,0.23 -0.01,0.49 -0.01,0.76 0,3.96 0.27,11.44 2.2,13.02 0.01,0 0.01,0 0.01,0 0,0 0,0 0,0 0,0 0,0.01 0.01,0.01 0,0 0,0 0,0 0,0 0,0 0,0 0,0 0,0 0,0 0.01,0 0.01,0.01 0.01,0.01 0,0 0,0 0,0 0.01,0 0.01,0 0.01,0 0,0 0,0 0,0 0,0 0,0.01 0.01,0.01 0,0 0,0 0,0 0,0 0,0 0,0 0,0 0,0 0,0 0.01,0 0.01,0.01 0.01,0.01 0,0 0,0 0,0 0.01,0 0.01,0 0.02,0.01 0,0 0,0 0,0 0,0 0,0 0,0 0,0 0,0 0,0 0.01,0 0.01,0.01 0.01,0.01 0,0 0,0 0,0 0.01,0 0.01,0 0.01,0 0,0 0,0 0,0 0.01,0.01 0.01,0.01 0.02,0.01 0,0 0,0 0,0.01 0,0 0,0 0,0 0.01,0 0.01,0 0.01,0 0,0 0,0 0,0 0,0 0,0 0,0 0.01,0.01 0.01,0.01 0.01,0.01 0,0 0,0 0,0 0.01,0 0.01,0 0.01,0 0,0 0,0 0,0 0.01,0.01 0.01,0.01 0.01,0.01 0,0 0,0 0,0 0.01,0 0.01,0 0.01,0 0,0 0,0 0,0 0,0.01 0.01,0.01 0.01,0.01 0,0 0,0 0,0 0.01,0 0.01,0 0.02,0.01 0,0 0,0 0,0 0,0 0,0 0.01,0 0,0 0,0.01 0,0.01 0,0 0.01,0 0.01,0 0,0 0,0 0,0 0,0 0.01,0 0.01,0 0,0 0,0 0,0 0,0.01 0.01,0.01 0.01,0.01l0 0c0,0 0.01,0 0.01,0 0,0 0,0 0,0 0,0.01 0.01,0.01 0.01,0.01 0,0 0,0 0,0 0,0 0.01,0 0.01,0 0,0 0,0 0,0 0.01,0.01 0.01,0.01 0.01,0.01 0,0 0,0 0,0 0.01,0 0.01,0 0.01,0 0,0 0,0 0,0 0.01,0 0.01,0.01 0.01,0.01 0,0 0,0 0,0zm52.36 -16.51c-6.23,-0.57 -12.56,-1.01 -15.51,-1.2 -1.02,-0.07 -1.88,-0.8 -2.12,-1.79l-0.03 -0.15c0.28,0 0.43,0 0.43,0l0 0c0,0 -2.85,-10.76 -4.48,-20.65 2.59,4.16 5.58,8.18 8.56,8.54 0.57,0.06 1.11,0.1 1.61,0.1 0.79,0 1.5,-0.08 2.13,-0.22l0 0c4.14,-0.92 5.22,-4.56 4.29,-6.92 -1.16,-2.95 -6.16,-10.65 -10.57,-16.48 -0.3,-0.39 -0.6,-0.78 -0.91,-1.16l40 0c-1.86,2.88 -4.37,9.52 -6.22,17.1l-0.82 -0.12c0,0 -2.9,11.1 -3.35,16.73 -0.69,-0.08 -1.39,-0.12 -2.09,-0.12 -4.89,0 -9.85,1.96 -10.92,6.34zm-28.77 -2.42l-0.05 -0.19c0.33,-0.03 0.65,-0.06 0.96,-0.08 -0.3,0.08 -0.6,0.17 -0.91,0.27zm-28.91 -21.18c0,0 0,0 0,0l0 0zm-11.36 -6.3l-1.63 -8c-0.14,-0.68 -0.34,-1.34 -0.59,-1.97l0 -0.06 7.03 0c-1.48,2.82 -3.19,6.43 -4.81,10.03z"/>
   <path fill="#F58E69" d="M168.5 118.66l0.38 6.31 6.99 -0.94 0.69 6.62c0,0 -12.49,7.55 -15.86,6.18 -3.81,-1.55 -1.56,-16.36 -1.56,-16.36l9.36 -1.81z"/>
   <path fill="#F16137" d="M168.88 124.97l-0.38 -6.31 -9.36 1.81c0,0 -2.25,14.81 1.56,16.36 0.72,0.3 1.87,0.18 3.23,-0.19 2.01,-4.15 4.95,-11.67 4.95,-11.67z"/>
   <path fill="#FDE9E3" d="M169.63 120.53c0,0 -0.72,0.22 -2.1,0.41 -1.97,0.29 -5.29,0.53 -9.77,0.1 0,0 0.19,-10.31 1.38,-14.56 0.94,-3.36 3.82,-4.31 4.99,-4.55 0.31,-0.07 0.49,-0.09 0.49,-0.09 0,0 2.94,5.14 5.01,18.69z"/>
   <path fill="#C3C3C8" d="M167.16 118.31c-2.14,-0.04 -4.08,-0.06 -5.15,-0.07 -0.01,0 -0.01,0 -0.02,0 -0.01,0 -0.03,0 -0.04,0 1.38,-4.07 2.54,-7.82 3.02,-10.91 0.65,3.07 1.55,6.82 2.19,10.98z"/>
   <path fill="#FDE9E3" d="M160.16 123.47c-0.79,2.28 -1.29,4.64 -1.6,6.86 -0.79,5.66 -0.36,10.37 -0.36,10.37 -11.99,5.71 -24.45,4.95 -37.22,0l0.63 -8.49c0.62,-13.74 6.37,-30.6 9.36,-33.91 0.62,-0.69 1.38,-1.33 2.28,-1.92 3.45,-2.27 8.91,-3.76 15.87,-3.8 5.4,-0.03 15.4,6.25 16,10.74 0.6,4.5 -2.18,12.03 -4.96,20.15z"/>
   <path fill="#C3C3C8" d="M148.65 141.31c-3.79,-1.13 -8.14,-2.44 -12.22,-3.66 6.84,-2.29 14.02,-6.03 14.02,-6.03 0,0 0.01,0 0.01,0 0.11,0.03 4.81,0.93 6.98,0.93l0 0c0,0 0,0 0,0 0.05,0 0.09,0 0.13,0l0 0 0.02 -0.04c0.13,0 0.39,-0.02 0.72,-0.05 -0.12,1.29 -0.18,2.51 -0.21,3.58 -0.01,0.49 -0.02,0.95 -0.02,1.37 0,0.19 0,0.37 0.01,0.54 -1.83,0.65 -3.58,1.27 -5.12,1.82 -1.59,0.57 -2.96,1.05 -3.96,1.41 -0.01,0 -0.01,0.01 -0.02,0.01 -0.12,0.04 -0.23,0.08 -0.34,0.12zm-15.76 -13.81l2.01 -6.41 0.9 -2.87 -11.75 -1.87c2.1,-8.6 5.05,-15.98 6.92,-18.05 0.62,-0.69 1.38,-1.33 2.28,-1.92l3.6 0.89c0,0 8.88,5.56 6.54,15.77 -1.34,5.86 -1.81,10.09 -0.8,12.94l-9.7 1.52z"/>
   <path fill="#F58E69" d="M160.03 91.91c-0.99,1.65 -2.71,5.39 -3.39,6.87l0 0.01c-0.18,0.4 -0.55,0.68 -0.98,0.74 -5.36,0.81 -8.21,-2.04 -9.52,-4.05 -0.63,-0.97 -0.53,-2.23 0.23,-3.1 1.69,-1.94 3.19,-3.99 4.32,-5.67 1.4,-2.05 2.26,-3.54 2.26,-3.54 0,0 8.33,6.67 7.08,8.74z"/>
   <path fill="#F16137" d="M160.03 91.91c-0.99,1.65 -2.71,5.39 -3.39,6.87 -1.5,-0.86 -2.63,-1.96 -3.48,-3.17 -2.55,-3.62 -2.57,-8.45 -0.31,-12.26 0.07,-0.12 0.1,-0.18 0.1,-0.18 0,0 8.33,6.67 7.08,8.74z"/>
   <path fill="#F58E69" d="M174.18 76.76c-1.06,3.32 -5.74,14.36 -8.92,16.8 -2.17,1.65 -6.76,0.4 -9.34,-2 -1.21,-1.12 -1.98,-2.49 -1.84,-3.93 0.44,-4.5 2.62,-8.37 2.62,-8.37 0,0 3.69,-10.1 7.14,-10.36 0.21,-0.01 0.4,0 0.6,0.06 3.62,1 10.81,4.5 9.74,7.8z"/>
   <path fill="#F3774C" d="M155.92 91.56l0 0c-1.12,-1.03 -1.86,-2.28 -1.86,-3.6 0,-0.11 0.01,-0.22 0.02,-0.33 0.28,-2.93 1.31,-5.59 1.99,-7.09l2.33 0.76c-1.21,3.43 -2.18,7.01 -2.48,10.26z"/>
   <path fill="#2C3248" d="M151.87 79.09c0,0 -1.5,-1.87 -0.79,-5.7 0.71,-3.83 4.04,-9.41 9.57,-9.99 5.54,-0.58 10.79,1 13.28,5.37 2.5,4.37 0.6,7.82 0.36,7.43 -0.37,-0.61 -3.52,-3.89 -8.64,-5.22 0,0 -1.58,3.25 -2.5,3.83 -0.53,0.34 -1.26,0.61 -1.76,0.77 -0.4,0.13 -0.71,0.42 -0.86,0.8l-2 4.96 -3.83 -1.25 -2.83 -1z"/>
   <path fill="#F58E69" d="M157.03 80.39c0,0 0.5,-4.46 -3.45,-3.92 -3.71,0.51 -3.94,8.58 1.14,8.63 0.62,0.01 1.15,-0.43 1.32,-1.03l0.99 -3.68z"/>
   <path fill="#FDE9E3" d="M174.18 76.76c0,0 -1.53,-3.37 -8.11,-5.33 -0.34,-0.1 -0.68,-0.19 -1.03,-0.26 -0.8,-0.19 -1.61,-0.32 -2.42,-0.41 -5.65,-0.62 -11.21,0.84 -11.21,0.84 0,0 0.51,-3.95 3.54,-7.08 2.26,-2.32 5.95,-3.09 9.66,-2.7 2.48,0.26 4.98,1.03 7.07,2.21 0.55,0.3 1.06,0.64 1.54,0.99 5.12,3.79 0.96,11.74 0.96,11.74z"/>
   <path fill="#C3C3C8" d="M174.18 76.76c0,0 -1.53,-3.37 -8.11,-5.33 -0.19,-0.05 -0.38,-0.11 -0.57,-0.15 -0.15,-0.04 -0.31,-0.08 -0.46,-0.11 -0.8,-0.19 -1.61,-0.32 -2.42,-0.41 2.16,-4.77 2.12,-7.8 1.99,-8.94 2.48,0.26 4.98,1.03 7.07,2.21 0.55,0.3 1.06,0.64 1.54,0.99 1.95,1.44 2.56,3.49 2.56,5.47 0,3.22 -1.6,6.27 -1.6,6.27z"/>
   <path fill="#CD344A" d="M174.18 76.76c0,0 -1.53,-3.37 -8.11,-5.33 -0.34,-0.1 -0.68,-0.19 -1.03,-0.26l0 -0.01c0,0 4.02,-2.22 5.94,-6.22 0.18,-0.38 0.42,-0.68 0.7,-0.91 2.68,-2.16 9.35,2.16 9.96,4.53 0.66,2.62 -3.21,7.49 -7.46,8.2z"/>
   <path fill="#2C3248" d="M156.28 130.13c0,2 3.12,1.62 4.62,0.29 1.07,-0.95 2.18,-2.74 2.73,-3.71 0.23,-0.4 0.65,-0.66 1.12,-0.67l7.24 -0.28c0.72,-0.03 1.34,0.51 1.39,1.23 0.11,1.33 0.34,3.28 0.85,3.97 0.78,1.08 3.12,1.29 3.49,-0.87 0.32,-1.82 0.72,-7.35 0.84,-9.09 0.02,-0.34 -0.09,-0.68 -0.3,-0.94 -0.47,-0.58 -1.28,-1.56 -1.37,-1.59 -0.11,-0.03 -11.61,-0.19 -14.88,-0.23 -0.53,-0.01 -1,0.28 -1.23,0.76 -1.14,2.37 -4.5,9.47 -4.5,11.13z"/>
   <path fill="#42676C" d="M177.13 131.29c0.22,-0.21 0.4,-0.49 0.51,-0.86l0 0c-0.11,0.37 -0.29,0.65 -0.51,0.86z"/>
   <path fill="#F47D51" d="M174.23 130.96l0 0c-0.13,-0.16 -0.23,-0.4 -0.33,-0.69l0 0c0.1,0.29 0.2,0.53 0.33,0.69l0 0z"/>
   <path fill="#2D313B" d="M175.74 131.75c-0.6,-0.05 -1.19,-0.34 -1.51,-0.79l0 0c-0.13,-0.16 -0.23,-0.4 -0.33,-0.69 0.73,0.17 1.59,0.21 2.18,0.21 0.42,0 0.71,-0.02 0.71,-0.02 0.05,0 0.1,0 0.15,0 0.23,0 0.47,-0.01 0.7,-0.03 -0.11,0.37 -0.29,0.65 -0.51,0.86 -0.09,0.08 -0.18,0.15 -0.27,0.2 -0.38,0.07 -0.75,0.16 -1.12,0.26z"/>
   <path fill="#F47D51" d="M173.66 129.24c-0.06,-0.32 -0.11,-0.67 -0.15,-1.01 0,0 0,0 0,0 0.04,0.34 0.09,0.69 0.15,1.01l0 0z"/>
   <path fill="#2D313B" d="M173.66 129.24c-0.06,-0.32 -0.11,-0.67 -0.15,-1.01 1,0.21 2.93,0.28 3.73,0.3 -1.63,0 -2.91,0.34 -3.58,0.71z"/>
   <path fill="#F47D51" d="M173.39 127.01c-0.01,0 -0.01,-0.01 -0.01,-0.02 -0.01,-0.19 -0.07,-0.37 -0.15,-0.53 0.08,0.16 0.14,0.34 0.15,0.53 0,0.01 0,0.02 0.01,0.02l0 0z"/>
   <path fill="#42676C" d="M178.54 121.33l0 0c0,-0.12 0.01,-0.23 0.02,-0.33l0 0c-0.01,0.1 -0.02,0.21 -0.02,0.33z"/>
   <path fill="#2D313B" d="M173.39 127.01c-0.01,0 -0.01,-0.01 -0.01,-0.02 -0.01,-0.19 -0.07,-0.37 -0.15,-0.53 -0.23,-0.42 -0.68,-0.7 -1.19,-0.7 -0.02,0 -0.04,0 -0.05,0l0 0 -3.48 0.13 -3.76 0.15c-0.02,0 -0.04,0 -0.06,0 -0.02,0 -0.05,0 -0.08,0.01 -0.01,0 -0.02,0 -0.03,0 -0.02,0.01 -0.04,0.01 -0.06,0.01 0,0 0,0 0,0 -0.21,0.05 -0.4,0.14 -0.56,0.27 -0.28,0.01 -0.56,0.03 -0.81,0.05 -0.3,0.03 -0.58,0.06 -0.81,0.06 -0.1,0 -0.19,0 -0.27,-0.02 -0.28,-0.04 -0.79,-0.13 -1.2,-0.19 1.04,-0.25 4.53,-1.08 4.95,-1.53 0.49,-0.53 0.54,-1.67 -1,-1.67 -0.03,0 -0.06,0 -0.08,0 -0.44,0.01 -1.08,0.02 -1.77,0.02 -0.26,0 -0.53,0 -0.8,-0.01l0.78 -1.54c0.3,-0.59 0.9,-0.96 1.56,-0.96l14 0 0.01 0.08 0.03 0.15c0.01,0.08 0.02,0.16 0.01,0.23l0 0c-0.01,0.1 -0.02,0.21 -0.02,0.33 -0.15,-0.08 -0.3,-0.16 -0.45,-0.23 -0.6,-0.3 -1.13,-0.41 -1.41,-0.41 -0.03,0 -0.04,0 -0.06,0 -0.36,0.02 -1.55,0.2 -2.61,0.63l-0.07 0.03c-2.3,1.07 -1.62,2.23 -0.71,2.23 0,0 0.01,0 0.02,0 0.63,-0.01 1.88,-0.1 2.6,-0.15 0.05,0 0.09,0 0.14,0 0.32,0 0.64,0.08 0.92,0.23 0,0 -0.7,0.05 -1.93,0.23 -1,0.16 -2.02,0.5 -2.26,1.04 -0.03,0.08 -0.05,0.16 -0.05,0.24 0,0.05 0.01,0.11 0.02,0.16 0.18,0.77 2.14,0.66 2.85,0.72 0.71,0.07 1.6,0.22 1.6,0.22l-0.68 0.08 -1.02 0.12c-0.78,0.05 -1.54,0.27 -2.05,0.54z"/>
   <path fill="#417498" d="M173.66 118.68c0,0 2.1,0.02 2.73,0.02 0.11,0 0.21,0.05 0.28,0.13l0.39 0.43 -2.77 -0.01c-0.12,0 -0.23,-0.05 -0.3,-0.15l-0.33 -0.42z"/>
   <path fill="#FDE9E3" d="M174.31 119.64c0,0 2.09,0.01 2.72,0.02 0.11,0 0.21,0.05 0.29,0.13l0.38 0.43 -2.77 -0.01c-0.12,0 -0.23,-0.06 -0.3,-0.15l-0.32 -0.42z"/>
   <path fill="#417498" d="M162.17 118.68c0,0 2.1,0.02 2.73,0.02 0.11,0 0.21,0.05 0.28,0.13l0.39 0.43 -2.77 -0.01c-0.12,0 -0.23,-0.05 -0.3,-0.15l-0.33 -0.42z"/>
   <path fill="#FDE9E3" d="M162.82 119.64c0,0 2.09,0.01 2.72,0.02 0.11,0 0.21,0.05 0.29,0.13l0.38 0.43 -2.76 -0.01c-0.12,0 -0.24,-0.06 -0.31,-0.15l-0.32 -0.42z"/>
   <path fill="#F58E69" d="M180.62 127.56c-0.07,0.44 -0.27,0.75 -0.27,0.75l0 0.01c0.25,0.67 -0.11,1.43 -0.78,1.69 -0.74,0.29 -1.76,0.47 -2.78,0.45 0,0 -2.08,0.14 -3.33,-0.32 -1.12,-0.41 0.72,-1.61 3.78,-1.61 -0.97,-0.02 -3.58,-0.12 -4.22,-0.45 -0.41,-0.22 -0.37,-0.51 -0.06,-0.78 0.44,-0.4 1.44,-0.76 2.48,-0.83l1.02 -0.12 0.68 -0.08c0,0 -0.89,-0.15 -1.6,-0.22 -0.71,-0.06 -2.67,0.05 -2.85,-0.72 -0.03,-0.14 -0.02,-0.27 0.03,-0.4 0.24,-0.54 1.26,-0.88 2.26,-1.04 1.23,-0.18 1.93,-0.23 1.93,-0.23 -0.28,-0.15 -0.6,-0.23 -0.92,-0.23 -0.05,0 -0.09,0 -0.14,0 -0.72,0.05 -1.97,0.14 -2.6,0.15 -0.91,0.02 -1.62,-1.15 0.69,-2.23l0.07 -0.03c1.06,-0.43 2.25,-0.61 2.61,-0.63 0.27,-0.01 0.84,0.08 1.47,0.41 0.43,0.21 0.88,0.46 1.27,0.7l0.01 0.01c1.44,1.29 0.81,2.41 0.81,2.41 0.71,1.28 0.12,2.02 0.12,2.02 0.34,0.47 0.37,0.94 0.32,1.32z"/>
   <path fill="#F3774C" d="M176.08 130.48c-0.72,0 -1.83,-0.05 -2.62,-0.34 -0.23,-0.09 -0.33,-0.2 -0.33,-0.33 0,-0.52 1.66,-1.28 4.11,-1.28 -0.97,-0.02 -3.58,-0.12 -4.22,-0.45 -0.21,-0.11 -0.3,-0.24 -0.3,-0.38 0,-0.13 0.09,-0.27 0.24,-0.4 0.44,-0.4 1.44,-0.76 2.48,-0.83l1.02 -0.12 0.68 -0.08c0,0 -0.89,-0.15 -1.6,-0.22 -0.71,-0.06 -2.67,0.05 -2.85,-0.72 -0.01,-0.05 -0.02,-0.11 -0.02,-0.16 0,-0.08 0.02,-0.16 0.05,-0.24 0.13,0.04 0.3,0.05 0.5,0.05 0.69,0 1.73,-0.18 2.58,-0.34 0.21,-0.04 0.43,-0.05 0.67,-0.05 1.5,0 3.5,0.69 3.24,1.71 0,0 0.78,0.26 0.91,1.26 -0.07,0.44 -0.27,0.75 -0.27,0.75l0 0 0 0.01c0.06,0.15 0.08,0.29 0.08,0.44 0,0.53 -0.34,1.04 -0.86,1.25 -0.7,0.27 -1.66,0.45 -2.63,0.45 -0.05,0 -0.1,0 -0.15,0 0,0 -0.29,0.02 -0.71,0.02z"/>
   <path fill="#F58E69" d="M161.94 130.3c-0.14,0.01 -0.23,0 -0.23,0 0,0 0.1,-0.02 0.23,0zm2.8 -7.27c-1.63,0.04 -5.84,-0.02 -5.84,-0.02l0.94 -2.04c0,0 -4.67,0.13 -4.84,0.25 -0.17,0.13 -4.67,3.54 -4.67,3.54l-17.44 2.74 2.01 -6.41 0.9 -2.87 -12.57 -1.99c0,0 -3.58,13.73 -3.41,18.39 0.16,4.67 2.83,5.75 10.57,4.58 7.74,-1.16 20.06,-7.58 20.06,-7.58 0,0 4.99,0.97 7.12,0.93l0.02 -0.04c0.62,-0.04 4.53,-0.32 4.91,-1.28 0.03,-0.05 0.04,-0.1 0.05,-0.13 0.18,-0.62 -0.28,-0.76 -0.59,-0.8 0.42,-0.01 1.3,-0.11 1.71,-0.78 0.56,-0.89 -0.42,-1.12 -0.42,-1.12 2,-0.31 2.19,-1.99 1.23,-2.06 -0.46,-0.03 -0.92,0.01 -1.33,0.04 -0.43,0.05 -0.8,0.09 -1.08,0.04 -0.28,-0.04 -0.79,-0.13 -1.2,-0.19 1.04,-0.25 4.53,-1.08 4.95,-1.53 0.5,-0.54 0.54,-1.71 -1.08,-1.67z"/>
   <path fill="#F3774C" d="M136.43 137.65c-6.03,-1.8 -11.48,-3.44 -13.7,-4.11 -0.9,-0.27 -1.86,-0.46 -2.85,-0.58 0.45,-5.63 3.35,-16.73 3.35,-16.73l12.57 1.99 -0.9 2.87c-1.25,0.24 -3.1,0.51 -5.21,0.51 -0.25,0 -0.52,-0.01 -0.78,-0.01 -0.04,-0.01 -0.08,-0.01 -0.12,-0.01 -1.77,0 -3.32,1.21 -3.72,2.94l-0.28 1.21c-0.66,2.84 1.18,5.66 4.05,6.21 2.19,0.42 4.56,0.82 6,0.9 0.08,0.01 0.16,0.01 0.25,0.01 2.68,0 9.9,-1.99 13.37,-3 0.56,-0.16 1.13,-0.24 1.7,-0.24 0.66,0 1.33,0.11 1.97,0.32 1.79,0.6 4.74,1.39 7.77,1.39 0.89,0 1.78,-0.07 2.65,-0.22 -0.01,0.03 -0.02,0.08 -0.05,0.13 -0.27,0.7 -2.45,1.04 -3.84,1.19 -0.51,0.05 -0.91,0.08 -1.07,0.09l-0.02 0.04c-0.04,0 -0.08,0 -0.13,0 0,0 0,0 0,0 -2.17,0 -6.87,-0.9 -6.98,-0.93 0,0 -0.01,0 -0.01,0 0,0 -7.18,3.74 -14.02,6.03z"/>
   <path fill="#FDE9E3" d="M135.29 95.24c-6.91,0.89 -11.56,13.41 -13.81,21.4 0,0 3.17,3 14.66,2.83 0,0 3.74,-11.15 5.49,-15.65 1.75,-4.5 -1.79,-9.16 -6.34,-8.58z"/>
   <path fill="#2C3248" d="M147.58 151.07c0,0 -4.34,3.09 -8.24,5.21 -1.48,0.81 -2.9,1.47 -3.99,1.78 -4,1.12 -7.62,-1.75 -8.87,-5.99 -0.92,-3.12 -0.09,-5.63 2.55,-6.85 0.95,-0.44 2.14,-0.71 3.57,-0.77 5.37,-0.25 14.61,-0.75 14.61,-0.75l0.37 7.37z"/>
   <path fill="#648D59" d="M187.72 142.97c-2.3,4.52 -9.34,7.09 -14.54,7.97 -6.61,1.13 -25.1,3 -25.1,3 0,0 -8.49,-5.87 -0.87,-12.11 0,0 2.37,-0.85 5.76,-2.06 7.09,-2.52 18.62,-6.63 22.09,-7.81 5.12,-1.75 12.36,-0.25 13.36,6.87 0.21,1.53 -0.06,2.91 -0.7,4.14z"/>
   <path fill="#96A2AE" d="M148.65 141.31l0 0c0.11,-0.04 0.22,-0.08 0.34,-0.12 0.01,0 0.01,-0.01 0.02,-0.01 -0.13,0.05 -0.25,0.09 -0.36,0.13z"/>
   <path fill="#507751" d="M182.16 148c-0.95,-1.08 -2.67,-1.34 -4.42,-1.34 -0.72,0 -1.44,0.05 -2.12,0.1 -1.78,0.12 -4.22,0.26 -6.19,0.38 -1.9,0.11 -3.36,0.18 -3.36,0.18l-5.58 -1.34 -1.06 -0.25c-0.09,-0.42 -0.19,-0.84 -0.32,-1.28 0,0 -4.54,-1.36 -10.46,-3.14 0.11,-0.04 0.23,-0.08 0.36,-0.13 1.38,-0.49 2.82,-0.73 4.26,-0.73 1.34,0 2.68,0.21 3.96,0.63 3.73,1.23 7.88,2.62 11.37,2.62 4.8,0 7.95,-3.15 12.95,-5.4 0.61,-0.28 1.23,-0.4 1.83,-0.4 2.52,0 4.74,2.19 4.36,4.94l-0.02 0.13c-1.06,2.08 -3.13,3.75 -5.56,5.03z"/>
   <path fill="#F58E69" d="M182.8 151.69c-0.05,0.27 -0.11,0.52 -0.18,0.77 -1.22,4.66 -4.98,5.78 -6.81,5.78 -1.21,0 -4.91,-1.41 -7.51,-2.47l-0.01 0c-1.55,-0.63 -2.72,-1.14 -2.72,-1.14l-11.31 0.12 3.75 -9.36 2.48 0.59 5.58 1.34c0,0 1.46,-0.07 3.36,-0.18 1.97,-0.12 4.41,-0.26 6.19,-0.38 3.5,-0.25 8.18,-0.37 7.18,4.93z"/>
   <path fill="#F3774C" d="M175.84 158.24c0,0 0,0 0,0 0,0 0,0 0,0zm0.01 0c0,0 0,0 0,0 0,0 0,0 0,0zm0.01 0c0,0 0,0 0,0 0,0 0,0 0,0zm0.01 0c0,0 0,0 0,0 0,0 0,0 0,0zm-7.57 -2.47l0 0 -0.01 0c-1.55,-0.63 -2.72,-1.14 -2.72,-1.14l-6.87 0.07c0.4,-0.88 0.78,-2.01 0.97,-3.4l0 0c0.22,-1.54 0.21,-3.4 -0.24,-5.57l1.06 0.25c0.12,0.5 0.28,1.29 0.36,2.24 0.16,1.9 1.72,3.38 3.63,3.47l2.52 0.13c0,0 2.78,0.58 6.19,0.93 0,0 0,0.01 -0.01,0.01 -0.68,1.49 -2.3,2.78 -4.88,3.01z"/>
   <path fill="#2C3248" d="M182.8 151.69c-0.06,0.32 -0.13,0.62 -0.21,0.91 -1.26,4.54 -4.97,5.64 -6.78,5.64 -1.21,0 -4.91,-1.41 -7.51,-2.47 2.58,-0.23 4.2,-1.52 4.88,-3.01 0.61,-1.31 0.48,-2.78 -0.37,-3.82 -0.78,-0.94 -2.12,-1.49 -3.38,-1.8 1.97,-0.12 4.41,-0.26 6.19,-0.38 3.5,-0.25 8.18,-0.37 7.18,4.93z"/>
   <path fill="#402F4D" d="M175.81 158.24c-1.21,0 -4.91,-1.41 -7.51,-2.47 2.58,-0.23 4.2,-1.52 4.88,-3.01 0.81,0.1 2.47,0.27 4.44,0.27 1.56,0 3.32,-0.11 4.97,-0.43 -1.26,4.54 -4.97,5.64 -6.78,5.64z"/>
   <path fill="#648D59" d="M159.67 151.3c-0.54,3.82 -2.47,5.72 -2.47,5.72 0,0 -24.64,-0.92 -35.88,-2.75 -11.24,-1.83 -15.57,-8.07 -14.57,-14.48l0.01 -0.06c1.04,-6.37 9.91,-8.01 15.97,-6.19 6.08,1.83 36.38,10.91 36.38,10.91 0.76,2.73 0.82,5.02 0.56,6.85z"/>
   <path fill="#507751" d="M157.2 157.02c0,0 -8.33,-0.31 -17.51,-0.93 -3.96,-0.27 -8.07,-0.59 -11.74,-0.97 -1.11,-0.12 -2.18,-0.24 -3.18,-0.36 -0.7,-6.98 -1.36,-12.45 -1.75,-13.06 -0.55,-0.87 -8.08,-1.78 -15.85,-2.49 0.29,-0.33 0.64,-0.69 1.07,-1.05 1.96,-1.67 4.44,-2.52 6.96,-2.52 1.13,0 2.26,0.17 3.36,0.51l4.61 1.43c1.38,0.43 2.59,1.28 3.45,2.45 0.93,1.26 2,3.08 2.41,5.19 0.58,3 20.27,5.16 30.64,6.08 -0.54,3.82 -2.47,5.72 -2.47,5.72z"/>
   <path fill="#FAAC40" d="M97.46 123.81c-1.04,0.23 -2.29,0.29 -3.74,0.12 -4.83,-0.58 -9.68,-10.79 -12.85,-15.59 -2.04,-3.07 -1.69,-9.94 -1.17,-14.49 0.29,-2.56 0.64,-4.39 0.64,-4.39 0,0 6.43,5.12 10.84,10.95 4.41,5.83 9.41,13.53 10.57,16.48 0.93,2.36 -0.15,6 -4.29,6.92z"/>
   <path fill="#F29734" d="M95.33 124.03c-0.5,0 -1.04,-0.03 -1.61,-0.1 -2.98,-0.36 -5.97,-4.38 -8.56,-8.54 -0.27,-1.61 -0.51,-3.21 -0.69,-4.72 -0.03,-0.21 -0.05,-0.4 -0.08,-0.6 -0.61,-5.3 -1.14,-9.82 -1.74,-13.32 3.46,3.5 7.73,8.12 10.87,12.58 4.3,6.07 6.68,11.28 3.94,14.48l0 0c-0.63,0.14 -1.34,0.22 -2.13,0.22z"/>
   <path fill="#FDE9E3" d="M118.07 191.45c0,0 0.02,4.3 -0.06,5.88 -0.08,1.58 0.13,2.92 3.33,2.92 3.21,0 15.18,0 15.18,0 0,0 1.66,0.12 2.49,-0.59 0.84,-0.71 1.29,-2.79 -1.04,-3.08 -2.33,-0.29 -5.1,-1.56 -7.14,-2.97 -1.12,-0.79 -2.56,-1.97 -3.61,-2.86 -0.93,-0.79 -1.47,-1.95 -1.47,-3.16l0 -2.29 -8.57 0.25 0.89 5.9z"/>
   <path fill="#386386" d="M118.03 196.72l0 0c0.01,-0.12 0.01,-0.24 0.02,-0.36l0 0c-0.01,0.12 -0.01,0.24 -0.02,0.36z"/>
   <path fill="#C1903C" d="M118.05 196.36l0 0c0.04,-1.91 0.01,-4.91 0.01,-4.91l-0.43 -2.89 0.44 2.89c0,0 0.02,3 -0.02,4.91z"/>
   <path fill="#386386" d="M137.87 196.57c-0.35,-0.05 -0.72,-0.12 -1.09,-0.21l0.02 0c0.36,0.09 0.72,0.16 1.07,0.21z"/>
   <path fill="#C1903C" d="M136.8 196.36l-0.02 0c-0.28,-0.07 -0.57,-0.15 -0.86,-0.24 0,0 0.01,0 0.02,0 0.29,0.09 0.58,0.17 0.86,0.24z"/>
   <path fill="#C3C3C8" d="M136.81 200.25c-0.14,0 -0.24,0 -0.28,0 0,0 0,0 0,0 0,0 0,0 -0.01,0 0,0 0,0 0,0 0,0 -11.97,0 -15.18,0 -0.04,0 -0.09,0 -0.13,0 -1.22,-0.02 -1.99,-0.24 -2.47,-0.59 0.74,-0.71 1.11,-2.49 -0.71,-2.94 0.01,-0.12 0.01,-0.24 0.02,-0.36 0.04,-1.91 0.02,-4.91 0.02,-4.91l-0.44 -2.89c1.4,-0.04 3.21,-0.11 5.19,-0.19 0,1.38 0,3.75 -0.06,4.83 -0.08,1.59 0.12,2.92 3.33,2.92 1.77,0 6.2,0 9.83,0 0.29,0.09 0.58,0.17 0.86,0.24 0.37,0.09 0.74,0.16 1.09,0.21 0.04,0 0.07,0.01 0.1,0.01 2.33,0.29 1.87,2.37 1.04,3.08 -0.61,0.53 -1.68,0.59 -2.2,0.59z"/>
   <path fill="#2C3248" d="M69.31 140.03c0,0 0.59,13.32 3.26,15.49 2.32,1.88 29.94,0.99 36.99,0.72 0.93,-0.03 1.72,0.66 1.81,1.57l3.32 30.84c0,0 6.5,-0.16 12.99,-0.5 0,0 -3.5,-44.62 -4.66,-46.45 -1,-1.58 -24.98,-3.28 -31.66,-3.72 -1.02,-0.07 -1.88,-0.8 -2.12,-1.79l-0.27 -1.16c0,0 -5.83,-0.99 -19.66,5z"/>
   <path fill="#FDE9E3" d="M97.73 191.51c0,0 0.03,4.3 -0.06,5.88 -0.08,1.58 0.13,2.92 3.33,2.92 3.21,0 15.18,0 15.18,0 0,0 1.66,0.12 2.49,-0.59 0.84,-0.7 1.29,-2.79 -1.04,-3.08 -2.33,-0.29 -5.1,-1.56 -7.14,-2.97 -1.09,-0.76 -2.47,-1.89 -3.52,-2.78 -0.98,-0.83 -1.56,-2.06 -1.56,-3.36l0 -2.17 -8.57 0.25 0.89 5.9z"/>
   <path fill="#C3C3C8" d="M104.33 200.31c-1.4,0 -2.59,0 -3.33,0 -0.04,0 -0.08,0 -0.13,0 -3.08,-0.04 -3.28,-1.36 -3.2,-2.92 0.05,-0.91 0.06,-2.73 0.06,-4.11 0,-1 0,-1.76 0,-1.77l0 0 -0.44 -2.89c0.85,-0.02 2.22,-0.06 3.89,-0.12 -0.26,0.71 -0.36,1.5 -0.24,2.31l0.11 0.7c0,0 0.03,4.3 -0.05,5.88 -0.08,1.58 0.12,2.92 3.33,2.92z"/>
   <path fill="#84BB9A" d="M52.05 140.03c0,0 -0.5,13.32 2.16,15.49 2.3,1.86 29.29,1.01 36.74,0.74 1.07,-0.04 1.98,0.75 2.1,1.81l3.29 30.58c0,0 6.49,-0.16 12.99,-0.5 0,0 -3.5,-44.62 -4.66,-46.45 -1.17,-1.84 -26.31,-3.83 -26.31,-3.83l-0.67 -2.84c0,0 -11.82,-0.99 -25.64,5z"/>
   <path fill="#BB7C3B" d="M54.81 155.8c0,0 0,0 0,0 0,0 0,0 0,0zm-0.05 -0.02c0,0 0,0 0,0 0,0 0,0 0,0zm-0.01 0c0,0 0,0 0,0 0,0 0,0 0,0zm-0.01 0c0,0 0,0 0,0 0,0 0,0 0,0zm-0.01 -0.01c0,0 0,0 0,0 0,0 0,0 0,0zm-0.02 0c0,0 0,0 0,-0.01 0,0.01 0,0.01 0,0.01zm-0.01 -0.01c0,0 0,0 -0.01,0 0.01,0 0.01,0 0.01,0zm-0.01 0c0,0 -0.01,0 -0.01,-0.01 0,0.01 0.01,0.01 0.01,0.01zm-0.01 -0.01c-0.01,0 -0.01,0 -0.01,0 0,0 0,0 0.01,0zm-0.01 0c-0.01,0 -0.01,0 -0.01,0 0,0 0,0 0.01,0zm-0.02 -0.01c0,0 -0.01,0 -0.01,0 0,0 0.01,0 0.01,0zm-0.01 0c0,0 -0.01,0 -0.01,0 0,0 0.01,0 0.01,0zm-0.01 -0.01c-0.01,0 -0.01,0 -0.01,0 0,0 0,0 0.01,0zm-0.01 0c-0.01,0 -0.01,0 -0.01,0 0,0 0,0 0.01,0zm-0.01 0c-0.01,-0.01 -0.01,-0.01 -0.02,-0.01 0.01,0 0.01,0 0.02,0.01zm-0.02 -0.01c0,0 -0.01,0 -0.01,0 0,0 0.01,0 0.01,0zm-0.01 0c0,0 -0.01,-0.01 -0.01,-0.01 0,0 0.01,0.01 0.01,0.01zm-0.01 -0.01c0,0 -0.01,0 -0.01,0 0,0 0.01,0 0.01,0zm-0.01 0c-0.01,0 -0.01,-0.01 -0.01,-0.01 0,0 0,0.01 0.01,0.01zm-0.01 -0.01c-0.01,0 -0.01,0 -0.02,0 0.01,0 0.01,0 0.02,0zm-0.02 0c0,-0.01 0,-0.01 -0.01,-0.01 0.01,0 0.01,0 0.01,0.01z"/>
   <path fill="#375F81" d="M54.52 155.69l0 0c0,0 0,0 0,0l0 0c0,0 0,0 0,0z"/>
   <path fill="#BB7C3B" d="M54.52 155.69c0,0 0,0 0,0l0 0c0,0 0,0 0,0z"/>
   <path fill="#973143" d="M54.52 155.69l0 0c0,0 0,0 -0.01,0 0.01,0 0.01,0 0.01,0z"/>
   <path fill="#752E3E" d="M54.51 155.69c0,0 0,-0.01 -0.01,-0.01 0.01,0 0.01,0.01 0.01,0.01zm-0.01 -0.01c0,0 0,0 -0.01,0 0.01,0 0.01,0 0.01,0zm-0.01 0c0,0 0,0 -0.01,-0.01 0.01,0.01 0.01,0.01 0.01,0.01zm-0.01 -0.01c0,0 -0.01,0 -0.01,0 0,0 0.01,0 0.01,0zm-0.01 0c0,0 -0.01,0 -0.01,-0.01 0,0.01 0.01,0.01 0.01,0.01zm-0.01 -0.01c0,0 -0.01,0 -0.01,0 0,0 0.01,0 0.01,0zm-0.01 0c0,0 -0.01,0 -0.01,-0.01 0,0.01 0.01,0.01 0.01,0.01zm-0.01 -0.01c0,0 -0.01,0 -0.01,0 0,0 0.01,0 0.01,0zm-0.01 0c0,0 -0.01,0 -0.01,0 0,0 0.01,0 0.01,0zm-0.01 -0.01c-0.01,0 -0.01,0 -0.01,0 0,0 0,0 0.01,0zm-0.01 0c-0.01,-0.01 -0.01,-0.01 -0.02,-0.01 0.01,0 0.01,0 0.02,0.01zm-0.02 -0.01c0,0 -0.01,0 -0.01,-0.01 0,0.01 0.01,0.01 0.01,0.01zm-0.01 -0.01c0,0 0,0 -0.01,0 0.01,0 0.01,0 0.01,0zm-0.01 0c0,0 0,0 -0.01,-0.01 0.01,0.01 0.01,0.01 0.01,0.01zm-0.01 -0.01c0,0 0,0 -0.01,0 0.01,0 0.01,0 0.01,0zm-0.01 0c0,0 0,0 -0.01,-0.01 0.01,0.01 0.01,0.01 0.01,0.01zm-0.01 -0.01c0,0 0,0 0,0 0,0 0,0 0,0zm-0.01 0c0,0 0,0 0,0 0,0 0,0 0,0zm0 -0.01c-0.01,0 -0.01,0 -0.02,-0.01 0.01,0.01 0.01,0.01 0.02,0.01zm-0.02 -0.01c0,0 0,0 -0.01,0 0.01,0 0.01,0 0.01,0zm-0.01 0c0,0 0,-0.01 -0.01,-0.01 0.01,0 0.01,0.01 0.01,0.01zm-0.01 -0.01c0,0 0,0 0,0 0,0 0,0 0,0zm0 0c-0.01,-0.01 -0.01,-0.01 -0.02,-0.01 0.01,0 0.01,0 0.02,0.01zm-0.02 -0.01c0,0 0,-0.01 -0.01,-0.01 0.01,0 0.01,0.01 0.01,0.01zm-0.01 -0.01c0,0 0,0 0,0 0,0 0,0 0,0zm0 0c-0.01,0 -0.01,-0.01 -0.01,-0.01 0,0 0,0.01 0.01,0.01zm-0.01 -0.01c0,0 0,0 -0.01,0 0.01,0 0.01,0 0.01,0zm-0.01 0c0,0 0,-0.01 -0.01,-0.01 0.01,0 0.01,0.01 0.01,0.01zm-0.01 -0.01c0,0 0,0 0,0 0,0 0,0 0,0zm0 0c-0.01,0 -0.01,-0.01 -0.01,-0.01 0,0 0,0.01 0.01,0.01zm-0.01 -0.01c0,0 0,0 -0.01,0 -1.93,-1.58 -2.2,-9.06 -2.2,-13.02 0,3.96 0.27,11.44 2.2,13.02 0.01,0 0.01,0 0.01,0z"/>
   <path fill="#2B3041" d="M92.25 156.67c-0.34,-0.26 -0.77,-0.42 -1.23,-0.42 -0.02,0 -0.05,0 -0.07,0.01l0 0c0.02,-0.01 0.05,-0.01 0.07,-0.01 0.46,0 0.89,0.16 1.23,0.42l0 0zm-8.89 -0.18c0,0 0,0 0,0 2.57,-0.07 4.82,-0.14 6.48,-0.2 -1.66,0.06 -3.91,0.13 -6.48,0.2zm6.52 -0.2c0,0 0.01,0 0.01,0 0,0 -0.01,0 -0.01,0z"/>
   <path fill="#669177" d="M96.31 188.35l-3.26 -30.28c-0.07,-0.58 -0.37,-1.07 -0.8,-1.4 -0.34,-0.26 -0.77,-0.42 -1.23,-0.42 -0.02,0 -0.05,0 -0.07,0.01l0 0c-0.32,0.01 -0.67,0.02 -1.06,0.03 0,0 -0.01,0 -0.01,0 -0.01,0 -0.03,0 -0.04,0 -1.66,0.06 -3.91,0.13 -6.48,0.2 -0.29,-0.15 -0.61,-0.24 -0.95,-0.24 -0.02,0 -0.05,0 -0.07,0.01 -3.11,0.11 -9.63,0.32 -16.34,0.4 -5.17,-0.08 -9.51,-0.32 -11.19,-0.86 0,0 0,0 0,0 -0.02,-0.01 -0.03,-0.01 -0.05,-0.02 0,0 0,0 0,0 0,0 -0.01,0 -0.01,0 0,0 0,0 0,0 0,0 -0.01,0 -0.01,0 0,0 0,0 0,0 -0.01,-0.01 -0.01,-0.01 -0.01,-0.01 0,0 0,0 0,0 -0.01,0 -0.02,0 -0.02,0 0,0 0,0 0,-0.01 -0.01,0 -0.01,0 -0.01,0 0,0 0,0 -0.01,0 0,0 0,0 0,0 0,0 -0.01,0 -0.01,-0.01 0,0 0,0 0,0 -0.01,0 -0.01,0 -0.01,0 0,0 0,0 0,0 -0.01,0 -0.01,0 -0.01,0 -0.01,-0.01 -0.01,-0.01 -0.01,-0.01 0,0 -0.01,0 -0.01,0 0,0 0,0 0,0 0,0 -0.01,0 -0.01,0 0,0 0,0 0,-0.01 -0.01,0 -0.01,0 -0.01,0 0,0 0,0 0,0 -0.01,0 -0.01,0 -0.01,0 0,0 0,0 0,0 -0.01,-0.01 -0.01,-0.01 -0.02,-0.01 0,0 0,0 0,0 0,0 -0.01,0 -0.01,0 0,0 0,0 0,0 0,0 -0.01,-0.01 -0.01,-0.01 0,0 0,0 0,0 0,0 -0.01,0 -0.01,0 0,0 0,0 0,0 -0.01,0 -0.01,-0.01 -0.01,-0.01 0,0 0,0 0,0 -0.01,0 -0.01,0 -0.02,0 0,0 0,0 0,0 0,-0.01 0,-0.01 -0.01,-0.01 0,0 0,0 0,0 0,0 0,0 0,0l0 0c0,0 0,0 0,0 0,0 0,0 -0.01,0 0,0 0,0 0,0 0,0 0,-0.01 -0.01,-0.01 0,0 0,0 0,0 0,0 0,0 -0.01,0 0,0 0,0 0,0 0,0 0,0 -0.01,-0.01 0,0 0,0 0,0 0,0 -0.01,0 -0.01,0 0,0 0,0 0,0 0,0 -0.01,0 -0.01,-0.01 0,0 0,0 0,0 0,0 -0.01,0 -0.01,0 0,0 -0.01,0 -0.01,-0.01 0,0 0,0 0,0 0,0 -0.01,0 -0.01,0 0,0 0,0 0,0 0,0 -0.01,0 -0.01,0 0,0 0,-0.01 0,-0.01 -0.01,0 -0.01,0 -0.01,0 0,0 0,0 0,0 -0.01,-0.01 -0.01,-0.01 -0.02,-0.01 0,0 0,0 0,0 0,0 -0.01,0 -0.01,-0.01 0,0 0,0 0,0 0,0 0,0 -0.01,0 0,0 0,0 0,0 0,0 0,0 -0.01,-0.01 0,0 0,0 0,0 0,0 0,0 -0.01,0 0,0 0,0 0,0 0,0 0,0 -0.01,-0.01 0,0 0,0 0,0 0,0 0,0 0,0 0,0 0,0 -0.01,0 0,0 0,0 0,0 0,-0.01 0,-0.01 0,-0.01 -0.01,0 -0.01,0 -0.02,-0.01 0,0 0,0 0,0 0,0 0,0 -0.01,0 0,0 0,0 0,0 0,0 0,-0.01 -0.01,-0.01 0,0 0,0 0,0 0,0 0,0 0,0 0,0 0,0 0,0 -0.01,-0.01 -0.01,-0.01 -0.02,-0.01 0,0 0,0 0,0 0,0 0,-0.01 -0.01,-0.01 0,0 0,0 0,0 0,0 0,0 0,0 0,0 0,0 0,0 -0.01,0 -0.01,-0.01 -0.01,-0.01 0,0 0,0 0,0 0,0 0,0 -0.01,0 0,0 0,0 0,0 0,0 0,-0.01 -0.01,-0.01 0,0 0,0 0,0 0,0 0,0 0,0 0,0 0,0 0,0 -0.01,0 -0.01,-0.01 -0.01,-0.01 0,0 0,0 0,0 0,0 0,0 -0.01,0 -1.93,-1.58 -2.2,-9.06 -2.2,-13.02 0,-0.27 0,-0.53 0.01,-0.76 2.64,-0.8 10.28,-3 17.65,-4.2l0.08 0.33c0,0 22.42,3.08 23.81,4.75 4.93,5.9 6.58,32.44 7.02,42.05 0.09,1.93 -1.41,3.56 -3.34,3.65 -0.31,0.01 -0.62,0.02 -0.93,0.03z"/>
   <path fill="#FDE9E3" d="M89.64 136.04c0,0 -6.37,-0.12 -16.36,1 -9.99,1.12 -22.23,4.99 -22.23,4.99 0,0 -1.62,-23.35 -2.37,-33.59 -0.64,-8.72 0.04,-16.09 2.27,-19.01 0.38,-0.5 0.81,-0.87 1.29,-1.09 3.25,-1.5 10.37,-2.75 10.37,-2.75 6.05,-0.25 15.85,1.75 17.73,3.87 1.87,2.12 2.81,9.74 4.05,20.61 0.03,0.2 0.05,0.39 0.08,0.6 1.32,10.8 5.17,25.37 5.17,25.37z"/>
   <path fill="#C3C3C8" d="M51.05 142.03c0,0 -0.46,-6.56 -1,-14.26 5.46,-2.02 10.99,-4.55 10.99,-4.55 0,0 0.11,-0.7 0.11,-1.76 0,-0.13 0,-0.28 0,-0.42 0.53,0.9 1.08,1.7 1.63,2.37 2.32,2.82 5.53,3.74 8.73,3.74 1.58,0 3.17,-0.23 4.64,-0.56 3.89,-0.88 5.74,-5.33 3.58,-8.68 -1.65,-2.57 -3.38,-5.22 -4.17,-6.31 -0.6,-0.83 1.39,-1.1 4.25,-1.1 1.41,0 3.03,0.07 4.66,0.17 1.32,10.8 5.17,25.37 5.17,25.37 0,0 -0.15,0 -0.43,0 -0.06,0 -0.12,0 -0.19,0 -1.36,0 -4.9,0.04 -10.01,0.45 -1.74,0.14 -3.66,0.32 -5.73,0.55 -1.18,0.13 -2.39,0.3 -3.61,0.5 -7.37,1.2 -15.01,3.4 -17.65,4.2 -0.62,0.18 -0.97,0.29 -0.97,0.29zm-1.86 -26.45l0 0c0.01,-0.03 3.34,-7.02 5.53,-11 0.87,2.99 1.86,6.07 2.95,8.94l-8.48 2.06z"/>
   <path fill="#984B64" d="M71.22 87.65c0,0 -1.31,2.5 -4.87,2.31 -3.56,-0.18 -5.62,-3.37 -5.62,-3.37l0 -13.99 10.12 6.62 0.37 8.31 0 0.12z"/>
   <path fill="#5E2F54" d="M71.22 87.53c-6.46,-1.1 -9.28,-5.55 -10.49,-8.73l0 -6.2 10.12 6.62 0.37 8.31z"/>
   <path fill="#984B64" d="M75.53 74.79c0.07,2.52 -0.57,4.38 -1.73,5.52 -1.75,1.76 -4.71,1.86 -8.14,0.16 -5.68,-2.81 -5.37,-10.24 -5.37,-10.24 0,0 -1.68,-7.55 1.63,-12.8 0.6,-0.96 1.43,-1.7 2.38,-2.25 4.25,-2.49 10.96,-1.18 11.17,1.63 0.25,3.43 -0.13,11.61 0.06,17.98z"/>
   <path fill="#79395B" d="M70.21 81.69c-1.36,0 -2.9,-0.4 -4.55,-1.22 -5.12,-2.53 -5.37,-8.82 -5.37,-10.04 0,-0.13 0,-0.2 0,-0.2l0 0c0,0 -0.43,-1.93 -0.43,-4.51 0,-2.53 0.42,-5.69 2.06,-8.29 0.01,-0.02 0.03,-0.04 0.05,-0.04 0.65,0 2.33,15.66 2.33,15.66 0,0 0.38,7.48 7.35,7.48 0.66,0 1.37,-0.07 2.15,-0.22 -0.91,0.91 -2.14,1.38 -3.59,1.38z"/>
   <path fill="#FAAC40" d="M80.16 57.37c-0.28,0.89 -0.85,1.69 -1.45,2.12 0,0 0.44,3.04 -3.12,3.19 -1.5,0.06 -1.62,-2.38 -1.25,-3.5 0,0 -3.09,1.93 -5.21,-1.03 0,0 -0.69,3.34 -5.22,0.87 0,0 1.38,5.43 -1.96,7.4l0.16 4.93 -4.94 -0.12c0,0 -3.06,-2.18 -3.75,-4 -0.68,-1.81 -0.43,-2.5 -0.43,-2.5 0,0 -2.09,-1.54 -1.82,-3.61 0.03,-0.24 0.09,-0.5 0.19,-0.76 0,0 -1.43,-2.06 0.51,-4.87 1.93,-2.8 5.05,-2.06 5.05,-2.06 0,0 -0.75,-4.74 3.25,-5.99 3.99,-1.25 5.43,0.75 5.43,0.75 0,0 1.31,-2.62 5,-2.12 3.68,0.5 3.74,3.37 3.74,3.37 0,0 1.25,-0.88 3.06,0.37 1.81,1.25 0.75,3.68 0.75,3.68 0,0 1.56,0.32 2.06,1.82 0.22,0.65 0.17,1.38 -0.05,2.06z"/>
   <path fill="#E98437" d="M78.71 59.49c0,0 0.44,3.04 -3.12,3.19 -1.5,0.06 -1.62,-2.38 -1.25,-3.5 0,0 -3.09,1.93 -5.21,-1.03 0,0 -0.69,3.34 -5.22,0.87 0,0 1.38,5.43 -1.96,7.4l0.16 4.93 -4.94 -0.12c0,0 -3.06,-2.18 -3.75,-4 -0.68,-1.81 -0.43,-2.5 -0.43,-2.5 0,0 -0.93,-0.68 -1.47,-1.75 -0.31,-0.62 0.3,-1.3 0.94,-1.06 0.33,0.11 0.71,0.21 1.14,0.26 1.7,0.21 2.43,-0.94 2.74,-1.83 0.14,-0.4 0.57,-0.61 0.97,-0.47 0.25,0.09 0.55,0.13 0.91,0.09 0.82,-0.09 1.25,-0.89 1.33,-1.86 0.03,-0.41 0.4,-0.71 0.8,-0.61 0.42,0.11 1.02,0.16 1.78,-0.02 1.37,-0.32 2.03,-1.09 2.34,-1.96 0.14,-0.38 0.58,-0.56 0.93,-0.35 0.76,0.44 2.01,1.02 3.19,0.89 1.15,-0.13 1.99,-1.17 2.46,-1.95 0.22,-0.37 0.74,-0.44 1.04,-0.13 0.59,0.59 1.59,1.24 2.92,0.74 0.39,-0.15 0.82,0.07 0.91,0.47 0.22,0.95 0.9,2.3 3.09,2.29 0.55,0 0.89,0.6 0.58,1.07 -0.26,0.39 -0.56,0.72 -0.88,0.94z"/>
   <path fill="#984B64" d="M60.85 69.48c0,0 -1.06,-4.99 -3.74,-3.75 -2.52,1.18 -1.47,7.96 3.12,8.02 0.5,0 0.91,-0.43 0.87,-0.94l-0.25 -3.33z"/>
   <path fill="#2C3248" d="M62.78 117.99c0,2 3.12,1.63 4.62,0.3 1.06,-0.95 2.17,-2.75 2.72,-3.71 0.24,-0.41 0.66,-0.66 1.12,-0.68l7.24 -0.28c0.72,-0.02 1.34,0.52 1.4,1.24 0.1,1.32 0.34,3.27 0.84,3.97 0.79,1.08 3.12,1.29 3.5,-0.88 0.31,-1.81 0.71,-7.34 0.83,-9.08 0.03,-0.35 -0.08,-0.68 -0.3,-0.95 -0.47,-0.58 -1.28,-1.55 -1.36,-1.58 -0.11,-0.04 -11.62,-0.2 -14.88,-0.24 -0.53,-0.01 -1.01,0.29 -1.24,0.76 -1.14,2.37 -4.49,9.48 -4.49,11.13z"/>
   <path fill="#417498" d="M80.16 106.55c0,0 2.09,0.01 2.72,0.02 0.11,0 0.21,0.04 0.29,0.12l0.38 0.44 -2.76 -0.01c-0.12,0 -0.24,-0.06 -0.31,-0.15l-0.32 -0.42z"/>
   <path fill="#417498" d="M80.81 107.5c0,0 2.09,0.02 2.72,0.02 0.11,0 0.21,0.05 0.28,0.13l0.39 0.44 -2.77 -0.01c-0.12,0 -0.23,-0.06 -0.3,-0.15l-0.32 -0.43z"/>
   <path fill="#417498" d="M68.67 106.55c0,0 2.09,0.01 2.72,0.02 0.11,0 0.22,0.04 0.29,0.12l0.38 0.44 -2.76 -0.01c-0.12,0 -0.24,-0.06 -0.31,-0.15l-0.32 -0.42z"/>
   <path fill="#417498" d="M69.31 107.5c0,0 2.1,0.02 2.73,0.02 0.11,0 0.21,0.05 0.28,0.13l0.39 0.44 -2.77 -0.01c-0.12,0 -0.23,-0.06 -0.3,-0.15l-0.33 -0.43z"/>
   <path fill="#FAAC40" d="M85.56 108.61c0,0 7.49,2.87 10.74,4.58 3.25,1.71 4.87,3.5 4.95,5.87 0.09,2.37 -1,5.83 -8.03,5.33 -7.04,-0.5 -11.41,-10.33 -11.41,-10.33l3.75 -5.45z"/>
   <path fill="#984B64" d="M82 107.59c0,0 -1.33,0.04 -2.19,-0.31 -0.85,-0.36 -0.89,-1.02 -0.89,-1.4 0,-0.37 0.35,-0.48 0.89,-0.5 0.55,-0.01 3.38,-0.04 3.88,0.17 0.5,0.21 2.81,2.08 3.1,2.69 0.29,0.6 -0.13,1.39 -0.13,1.39 0,0 0.48,1.1 0.44,1.39 -0.04,0.3 -0.35,1.07 -0.4,1.19 -0.04,0.13 0.4,1 0.34,1.37 -0.06,0.38 -0.71,1.11 -0.71,1.11 0,0 0.4,1.35 0.15,1.68 -0.26,0.34 -0.96,0.77 -1.09,0.82 -0.12,0.04 -2.16,0.1 -2.62,0.12 -0.46,0.02 -2.08,0.5 -2.75,0.15 -0.66,-0.36 -0.62,-1.52 0.07,-1.77 0.68,-0.25 2.72,-0.73 2.72,-0.73l0.88 -0.17 0.1 -0.35c0,0 -2,-0.08 -2.54,-0.08 -0.54,0 -1.89,0.35 -2.52,-0.52 -0.62,-0.88 0.04,-1.48 1.17,-1.5 1.12,-0.02 3.13,-0.18 3.13,-0.18 0,0 -0.7,-0.57 -0.97,-0.66 -0.27,-0.08 -2.43,0.03 -3.18,-0.35 -0.75,-0.38 -0.9,-1.83 -0.06,-1.87 0.83,-0.04 4.56,0.08 4.56,0.08l0.41 -0.17 -1.79 -1.6z"/>
   <path fill="#2C3248" d="M92.14 196.36l-69.69 0c-1.45,0 -2.62,-1.18 -2.62,-2.62l0 -57.7 63.19 0c6.48,0 11.74,5.26 11.74,11.74l0 45.96c0,1.44 -1.18,2.62 -2.62,2.62z"/>
   <path fill="#2C3248" d="M43.31 136.04c0,7.66 -23.48,7.66 -23.48,0l-6.17 -30.15c-1.45,-7.13 3.99,-13.8 11.27,-13.8 5.46,0 10.17,3.84 11.27,9.19l7.11 34.76z"/>
   <path fill="#CD344A" d="M92.14 196.36l-18.24 0c-1.45,0 -2.62,-1.18 -2.62,-2.62l0 -45.96c0,-6.48 5.26,-11.74 11.74,-11.74 6.48,0 11.74,5.26 11.74,11.74l0 45.96c0,1.44 -1.18,2.62 -2.62,2.62z"/>
   <polygon fill="#2C3248" points="34.86,200.32 28.28,200.32 27.53,196.36 35.61,196.36 "/>
   <path fill="#984B64" d="M70.78 104.53c0,0 -3.79,0 -4.45,0 -0.67,0 -3.21,4.62 -3.29,4.75 -0.08,0.12 -3.58,4.08 -3.83,4.37 -0.25,0.29 -2.29,1.04 -2.29,1.04l2.08 5.62 3.96 -1.29c0,0 1.83,-0.09 2.33,-0.25 0.5,-0.17 3.2,-3.08 3.62,-3.42 0.41,-0.33 3.12,-0.37 3.54,-0.75 0.41,-0.37 0.41,-1.04 0.33,-1.33 -0.08,-0.29 -3.54,-0.12 -3.54,-0.12l-0.16 -0.46c0,0 3.49,0.13 4.24,-0.63 0.75,-0.74 0.42,-1.62 -1.12,-1.62 -1.54,0 -3.37,0.05 -3.37,0.05 0,0 0.2,-0.51 0.45,-0.59 0.25,-0.08 3.79,0 4.17,-0.21 0.37,-0.21 0.66,-0.91 0.16,-1.58 -0.5,-0.66 -4.78,-0.66 -4.99,-0.66 -0.21,0 -1.71,0.83 -1.71,0.83l0.71 -1.92c0,0 2.83,0.21 3.49,-0.29 0.67,-0.5 0.38,-1.46 -0.33,-1.54z"/>
   <path fill="#5E2F54" d="M59 120.31l3.96 -1.29c-0.85,-3.78 -3.75,-5.37 -3.75,-5.37 -0.25,0.29 -2.29,1.04 -2.29,1.04l2.08 5.62z"/>
   <path fill="#FAAC40" d="M61.04 123.22c0,0 -14.57,6.66 -19.73,7 -4.72,0.29 -9.3,-2.18 -9.41,-5.41 -0.02,-0.3 0.01,-0.61 0.08,-0.92 0.84,-3.67 9.17,-22.82 12.83,-28.48 3.66,-5.66 7.43,-7.07 7.43,-7.07 5.06,-1.62 5.39,11.4 3.39,14.65 -2,3.25 -6.44,12.59 -6.44,12.59l8.81 -2.14c1.62,1.35 2.43,3.18 2.82,4.9 0.58,2.58 0.22,4.88 0.22,4.88z"/>
   <path fill="#F29734" d="M40.53 130.24c-4.43,0 -8.53,-2.38 -8.63,-5.43 0.53,0.09 1.13,0.13 1.79,0.13 6.68,0 19.84,-4.13 27.13,-6.6 0.26,1.15 0.33,2.26 0.33,3.12 0,1.06 -0.11,1.76 -0.11,1.76 0,0 -5.53,2.53 -10.99,4.55 -3.39,1.26 -6.76,2.32 -8.74,2.45 -0.26,0.01 -0.52,0.02 -0.78,0.02z"/>
   <path fill="#FDE9E3" d="M154.95 172.79l-2.78 -4.03 0 0 -0.28 -6.18 -4.81 0 -0.28 6.18 0.01 0 -2.79 4.03c-0.54,0.79 -0.84,1.73 -0.84,2.69l0 23.28c0,0.86 0.7,1.56 1.56,1.56l9.5 0c0.86,0 1.56,-0.7 1.56,-1.56l0 -23.28c0,-0.96 -0.3,-1.9 -0.85,-2.69z"/>
   <path fill="#648D59" d="M155.8 181.42l0 9.31c-1.43,1.93 -3.73,3.18 -6.31,3.18 -2.59,0 -4.88,-1.25 -6.31,-3.19l0 -9.29c1.43,-1.94 3.72,-3.19 6.31,-3.19 2.58,0 4.88,1.25 6.31,3.18z"/>
   <polygon fill="#C1903C" points="155.8,196.36 155.8,196.36 155.8,190.73 155.8,181.42 155.8,178.95 "/>
   <path fill="#C3C3C8" d="M154.24 200.32l-3.03 0c0.86,0 1.56,-0.7 1.56,-1.56l0 -5.56c1.2,-0.56 2.24,-1.41 3.03,-2.47l0 5.63 0 2.4c0,0.63 -0.38,1.17 -0.92,1.41 -0.19,0.1 -0.41,0.15 -0.64,0.15zm1.56 -18.9c-0.79,-1.06 -1.83,-1.91 -3.03,-2.46l0 -3.48c0,-0.96 -0.3,-1.9 -0.84,-2.69l-2.79 -4.03 0 0 -0.28 -6.18 3.03 0 0.28 6.18 0 0 2.78 4.03c0.55,0.79 0.85,1.73 0.85,2.69l0 3.47 0 2.47zm-6.66 -12.66l2.79 4.03 -2.79 -4.03z"/>
   <polygon fill="#96A2AE" points="151.93,172.79 149.14,168.76 "/>
   <path fill="#507751" d="M152.77 193.2l0 -14.24c1.2,0.55 2.24,1.4 3.03,2.46l0 0 0 9.31c-0.79,1.06 -1.83,1.91 -3.03,2.47z"/>
   <path fill="#2C3248" d="M152 162.58l-5.03 0c-0.28,0 -0.51,-0.23 -0.51,-0.51l0 -1.85c0,-0.28 0.23,-0.51 0.51,-0.51l5.03 0c0.29,0 0.52,0.23 0.52,0.51l0 1.85c0,0.28 -0.23,0.51 -0.52,0.51z"/>
   <path fill="#FDE9E3" d="M168.65 200.31l-8.73 0c-0.65,0 -1.19,-0.51 -1.22,-1.16l-0.81 -16.59 12.8 0 -0.82 16.59c-0.03,0.65 -0.57,1.16 -1.22,1.16z"/>
   <path fill="#648D59" d="M169.26 184.54l-0.51 10.22c-0.05,1.14 -0.99,2.03 -2.13,2.03l-4.67 0c-1.14,0 -2.08,-0.89 -2.13,-2.03l-0.51 -10.22 9.95 0z"/>
   <path fill="#C3C3C8" d="M168.65 200.31l-1.54 0 -1 0 -0.94 0 -3.68 0 -1.57 0c0,0 -0.01,0 -0.02,0 -0.64,-0.01 -1.17,-0.52 -1.2,-1.16l0 0 -0.02 -0.5 5.49 0c0.65,0 1.19,-0.51 1.23,-1.16l0.03 -0.7 1.19 0c1.14,0 2.08,-0.89 2.13,-2.03l0.51 -10.22 -3.23 0 0.1 -1.98 4.56 0 -0.68 13.8 -0.14 2.79c-0.03,0.64 -0.56,1.15 -1.2,1.16 -0.01,0 -0.01,0 -0.02,0z"/>
   <path fill="#507751" d="M166.62 196.79l-1.19 0 0.6 -12.25 3.23 0 -0.51 10.22c-0.05,1.14 -0.99,2.03 -2.13,2.03z"/>
  </g>
 </g>
</svg>
