<?xml version="1.0" encoding="UTF-8"?>
<!DOCTYPE svg PUBLIC "-//W3C//DTD SVG 1.1//EN" "http://www.w3.org/Graphics/SVG/1.1/DTD/svg11.dtd">
<!-- Creator: CorelDRAW X7 -->
<svg xmlns="http://www.w3.org/2000/svg" xml:space="preserve" width="25.3805mm" height="34.808mm" version="1.1" style="shape-rendering:geometricPrecision; text-rendering:geometricPrecision; image-rendering:optimizeQuality; fill-rule:evenodd; clip-rule:evenodd"
viewBox="0 0 922 1264"
 xmlns:xlink="http://www.w3.org/1999/xlink">
 <defs>
  <style type="text/css">
   <![CDATA[
    .str0 {stroke:#4D4D4D;stroke-width:3.63096}
    .fil8 {fill:none}
    .fil51 {fill:black}
    .fil54 {fill:#51455B}
    .fil52 {fill:#598068}
    .fil50 {fill:#726180}
    .fil53 {fill:#B1FFD0}
    .fil49 {fill:#E4C1FF}
    .fil48 {fill:#141313}
    .fil28 {fill:url(#id0)}
    .fil45 {fill:url(#id1)}
    .fil20 {fill:url(#id2)}
    .fil42 {fill:url(#id3)}
    .fil26 {fill:url(#id4)}
    .fil30 {fill:url(#id5)}
    .fil23 {fill:url(#id6)}
    .fil21 {fill:url(#id7)}
    .fil44 {fill:url(#id8)}
    .fil41 {fill:url(#id9)}
    .fil10 {fill:url(#id10)}
    .fil12 {fill:url(#id11)}
    .fil34 {fill:url(#id12)}
    .fil6 {fill:url(#id13)}
    .fil36 {fill:url(#id14)}
    .fil1 {fill:url(#id15)}
    .fil43 {fill:url(#id16)}
    .fil35 {fill:url(#id17)}
    .fil33 {fill:url(#id18)}
    .fil9 {fill:url(#id19)}
    .fil3 {fill:url(#id20)}
    .fil17 {fill:url(#id21)}
    .fil15 {fill:url(#id22)}
    .fil4 {fill:url(#id23)}
    .fil7 {fill:url(#id24)}
    .fil13 {fill:url(#id25)}
    .fil14 {fill:url(#id26)}
    .fil16 {fill:url(#id27)}
    .fil11 {fill:url(#id28)}
    .fil0 {fill:url(#id29)}
    .fil2 {fill:url(#id30)}
    .fil24 {fill:url(#id31)}
    .fil47 {fill:url(#id32)}
    .fil18 {fill:url(#id33)}
    .fil22 {fill:url(#id34)}
    .fil19 {fill:url(#id35)}
    .fil46 {fill:url(#id36)}
    .fil25 {fill:url(#id37)}
    .fil5 {fill:url(#id38)}
    .fil37 {fill:url(#id39)}
    .fil27 {fill:url(#id40)}
    .fil39 {fill:url(#id41)}
    .fil40 {fill:url(#id42)}
    .fil38 {fill:url(#id43)}
    .fil32 {fill:url(#id44)}
    .fil31 {fill:url(#id45)}
    .fil29 {fill:url(#id46)}
   ]]>
  </style>
  <linearGradient id="id0" gradientUnits="userSpaceOnUse" x1="858.429" y1="1162.02" x2="906.96" y2="1184.64">
   <stop offset="0" style="stop-opacity:1; stop-color:black"/>
   <stop offset="1" style="stop-opacity:1; stop-color:#242424"/>
  </linearGradient>
  <linearGradient id="id1" gradientUnits="userSpaceOnUse" x1="759.343" y1="321.061" x2="835.55" y2="303.646">
   <stop offset="0" style="stop-opacity:1; stop-color:#050505"/>
   <stop offset="1" style="stop-opacity:1; stop-color:#525252"/>
  </linearGradient>
  <linearGradient id="id2" gradientUnits="userSpaceOnUse" x1="649.706" y1="218.874" x2="572.149" y2="300.106">
   <stop offset="0" style="stop-opacity:1; stop-color:black"/>
   <stop offset="1" style="stop-opacity:1; stop-color:black"/>
  </linearGradient>
  <linearGradient id="id3" gradientUnits="userSpaceOnUse" x1="777.832" y1="401.225" x2="837.619" y2="399.293">
   <stop offset="0" style="stop-opacity:1; stop-color:black"/>
   <stop offset="1" style="stop-opacity:1; stop-color:#4D4D4D"/>
  </linearGradient>
  <linearGradient id="id4" gradientUnits="userSpaceOnUse" x1="844.184" y1="1190.75" x2="881.75" y2="1220.75">
   <stop offset="0" style="stop-opacity:1; stop-color:black"/>
   <stop offset="1" style="stop-opacity:1; stop-color:#0D0D0D"/>
  </linearGradient>
  <linearGradient id="id5" gradientUnits="userSpaceOnUse" x1="873.101" y1="1110.54" x2="921.633" y2="1112.94">
   <stop offset="0" style="stop-opacity:1; stop-color:black"/>
   <stop offset="1" style="stop-opacity:1; stop-color:#474747"/>
  </linearGradient>
  <linearGradient id="id6" gradientUnits="userSpaceOnUse" xlink:href="#id2" x1="784.052" y1="1240.86" x2="790.014" y2="1265.39">
  </linearGradient>
  <linearGradient id="id7" gradientUnits="userSpaceOnUse" xlink:href="#id2" x1="670.185" y1="242.018" x2="583.906" y2="311.769">
  </linearGradient>
  <linearGradient id="id8" gradientUnits="userSpaceOnUse" x1="767.89" y1="345.544" x2="837.59" y2="335.545">
   <stop offset="0" style="stop-opacity:1; stop-color:#030303"/>
   <stop offset="1" style="stop-opacity:1; stop-color:#4F4F4F"/>
  </linearGradient>
  <linearGradient id="id9" gradientUnits="userSpaceOnUse" x1="779.695" y1="432.39" x2="836.984" y2="432.39">
   <stop offset="0" style="stop-opacity:1; stop-color:black"/>
   <stop offset="1" style="stop-opacity:1; stop-color:#4A4A4A"/>
  </linearGradient>
  <linearGradient id="id10" gradientUnits="userSpaceOnUse" xlink:href="#id2" x1="307.002" y1="222.651" x2="399.845" y2="309.917">
  </linearGradient>
  <linearGradient id="id11" gradientUnits="userSpaceOnUse" xlink:href="#id2" x1="357.526" y1="182.227" x2="423.799" y2="289.435">
  </linearGradient>
  <linearGradient id="id12" gradientUnits="userSpaceOnUse" xlink:href="#id8" x1="870.363" y1="653.591" x2="922.845" y2="649.183">
  </linearGradient>
  <linearGradient id="id13" gradientUnits="userSpaceOnUse" x1="260.18" y1="291.446" x2="379.181" y2="342.81">
   <stop offset="0" style="stop-opacity:1; stop-color:black"/>
   <stop offset="1" style="stop-opacity:1; stop-color:#262626"/>
  </linearGradient>
  <linearGradient id="id14" gradientUnits="userSpaceOnUse" x1="846.969" y1="609.326" x2="912.682" y2="575.66">
   <stop offset="0" style="stop-opacity:1; stop-color:#0A0A0A"/>
   <stop offset="1" style="stop-opacity:1; stop-color:#575757"/>
  </linearGradient>
  <linearGradient id="id15" gradientUnits="userSpaceOnUse" xlink:href="#id9" x1="245.722" y1="470.493" x2="361.353" y2="468.815">
  </linearGradient>
  <linearGradient id="id16" gradientUnits="userSpaceOnUse" xlink:href="#id3" x1="773.366" y1="372.297" x2="838.658" y2="367.192">
  </linearGradient>
  <linearGradient id="id17" gradientUnits="userSpaceOnUse" x1="858.356" y1="629.652" x2="923.096" y2="611.599">
   <stop offset="0" style="stop-opacity:1; stop-color:#080808"/>
   <stop offset="1" style="stop-opacity:1; stop-color:#545454"/>
  </linearGradient>
  <linearGradient id="id18" gradientUnits="userSpaceOnUse" xlink:href="#id9" x1="874.517" y1="848.73" x2="921.262" y2="848.73">
  </linearGradient>
  <linearGradient id="id19" gradientUnits="userSpaceOnUse" xlink:href="#id4" x1="284.671" y1="248.064" x2="389.737" y2="323.9">
  </linearGradient>
  <linearGradient id="id20" gradientUnits="userSpaceOnUse" xlink:href="#id5" x1="245.17" y1="411.268" x2="361.128" y2="413.127">
  </linearGradient>
  <linearGradient id="id21" gradientUnits="userSpaceOnUse" xlink:href="#id2" x1="555.218" y1="157.239" x2="518.966" y2="277.525">
  </linearGradient>
  <linearGradient id="id22" gradientUnits="userSpaceOnUse" xlink:href="#id2" x1="466.205" y1="149.084" x2="475.471" y2="271.614">
  </linearGradient>
  <linearGradient id="id23" gradientUnits="userSpaceOnUse" x1="245.25" y1="375.794" x2="364.353" y2="386.353">
   <stop offset="0" style="stop-opacity:1; stop-color:black"/>
   <stop offset="1" style="stop-opacity:1; stop-color:#424242"/>
  </linearGradient>
  <linearGradient id="id24" gradientUnits="userSpaceOnUse" x1="279.196" y1="270.674" x2="377.115" y2="329.212">
   <stop offset="0" style="stop-opacity:1; stop-color:black"/>
   <stop offset="1" style="stop-opacity:1; stop-color:#1A1A1A"/>
  </linearGradient>
  <linearGradient id="id25" gradientUnits="userSpaceOnUse" xlink:href="#id2" x1="385.151" y1="167.358" x2="437.124" y2="282.634">
  </linearGradient>
  <linearGradient id="id26" gradientUnits="userSpaceOnUse" xlink:href="#id2" x1="420.908" y1="153.641" x2="454.488" y2="278.074">
  </linearGradient>
  <linearGradient id="id27" gradientUnits="userSpaceOnUse" xlink:href="#id2" x1="510.909" y1="150.355" x2="497.642" y2="271.396">
  </linearGradient>
  <linearGradient id="id28" gradientUnits="userSpaceOnUse" xlink:href="#id2" x1="330.247" y1="199.3" x2="412.423" y2="299.863">
  </linearGradient>
  <linearGradient id="id29" gradientUnits="userSpaceOnUse" xlink:href="#id9" x1="245.951" y1="498.459" x2="361.212" y2="499.846">
  </linearGradient>
  <linearGradient id="id30" gradientUnits="userSpaceOnUse" xlink:href="#id9" x1="245.322" y1="441.409" x2="360.932" y2="439.811">
  </linearGradient>
  <linearGradient id="id31" gradientUnits="userSpaceOnUse" xlink:href="#id2" x1="808.234" y1="1226.54" x2="823.731" y2="1259.85">
  </linearGradient>
  <linearGradient id="id32" gradientUnits="userSpaceOnUse" xlink:href="#id14" x1="736.022" y1="277.249" x2="821.887" y2="238.355">
  </linearGradient>
  <linearGradient id="id33" gradientUnits="userSpaceOnUse" xlink:href="#id2" x1="597.359" y1="173.967" x2="539.387" y2="285.822">
  </linearGradient>
  <linearGradient id="id34" gradientUnits="userSpaceOnUse" xlink:href="#id2" x1="755.2" y1="1251.02" x2="756.645" y2="1265.5">
  </linearGradient>
  <linearGradient id="id35" gradientUnits="userSpaceOnUse" xlink:href="#id2" x1="627.917" y1="197.346" x2="558.29" y2="291.889">
  </linearGradient>
  <linearGradient id="id36" gradientUnits="userSpaceOnUse" xlink:href="#id17" x1="748.639" y1="298.512" x2="830.699" y2="271.237">
  </linearGradient>
  <linearGradient id="id37" gradientUnits="userSpaceOnUse" xlink:href="#id2" x1="827.547" y1="1207.94" x2="856.943" y2="1244.49">
  </linearGradient>
  <linearGradient id="id38" gradientUnits="userSpaceOnUse" x1="248.79" y1="334.506" x2="370.75" y2="361.793">
   <stop offset="0" style="stop-opacity:1; stop-color:black"/>
   <stop offset="1" style="stop-opacity:1; stop-color:#383838"/>
  </linearGradient>
  <linearGradient id="id39" gradientUnits="userSpaceOnUse" x1="780.163" y1="543.715" x2="837.765" y2="504.275">
   <stop offset="0" style="stop-opacity:1; stop-color:#0D0D0D"/>
   <stop offset="1" style="stop-opacity:1; stop-color:#595959"/>
  </linearGradient>
  <linearGradient id="id40" gradientUnits="userSpaceOnUse" x1="857.779" y1="1181.93" x2="890.022" y2="1202">
   <stop offset="0" style="stop-opacity:1; stop-color:black"/>
   <stop offset="1" style="stop-opacity:1; stop-color:#171717"/>
  </linearGradient>
  <linearGradient id="id41" gradientUnits="userSpaceOnUse" xlink:href="#id9" x1="779.502" y1="484.465" x2="836.828" y2="484.465">
  </linearGradient>
  <linearGradient id="id42" gradientUnits="userSpaceOnUse" xlink:href="#id9" x1="779.702" y1="460.802" x2="836.97" y2="460.802">
  </linearGradient>
  <linearGradient id="id43" gradientUnits="userSpaceOnUse" xlink:href="#id9" x1="779.404" y1="509.181" x2="836.65" y2="509.181">
  </linearGradient>
  <linearGradient id="id44" gradientUnits="userSpaceOnUse" xlink:href="#id9" x1="874.517" y1="1057.88" x2="921.262" y2="1057.88">
  </linearGradient>
  <linearGradient id="id45" gradientUnits="userSpaceOnUse" xlink:href="#id9" x1="874.332" y1="1079.1" x2="921.789" y2="1078.66">
  </linearGradient>
  <linearGradient id="id46" gradientUnits="userSpaceOnUse" xlink:href="#id38" x1="867.557" y1="1137.98" x2="918.274" y2="1149.4">
  </linearGradient>
 </defs>
 <g id="Camada_x0020_1">
  <metadata id="CorelCorpID_0Corel-Layer"/>
  <g id="_2172461932208">
   <g>
    <polygon class="fil0" points="245,473 361,557 362,549 362,542 362,536 362,529 246,442 246,450 246,457 246,465 "/>
    <polygon class="fil1" points="246,442 362,529 362,522 362,515 361,508 361,501 245,411 246,418 246,426 246,434 "/>
    <polygon class="fil2" points="245,411 361,501 361,494 361,487 361,481 361,474 245,380 245,388 245,395 245,403 "/>
    <polygon class="fil3" points="245,380 361,474 361,467 361,460 361,454 361,447 245,351 245,358 245,365 245,373 "/>
    <polygon class="fil4" points="245,351 361,447 362,441 362,434 363,428 363,422 364,416 249,315 248,322 247,329 246,336 246,343 "/>
    <polygon class="fil5" points="249,315 364,416 365,409 366,403 368,397 369,391 371,385 256,281 254,287 253,294 251,301 250,308 "/>
    <polygon class="fil6" points="256,281 371,385 373,379 375,374 378,368 380,362 383,357 270,249 267,255 264,261 261,268 258,274 "/>
    <polygon class="fil7" points="270,249 383,357 386,352 274,243 "/>
    <polygon class="fil8" points="245,473 361,557 362,549 362,542 362,536 362,529 362,522 362,515 361,508 361,501 361,494 361,487 361,481 361,474 361,467 361,460 361,454 361,447 362,441 362,434 363,428 363,422 364,416 365,409 366,403 368,397 369,391 371,385 373,379 375,374 378,368 380,362 383,357 386,352 274,243 270,249 267,255 264,261 261,268 258,274 256,281 254,287 253,294 251,301 250,308 249,315 248,322 247,329 246,336 246,343 245,351 245,358 245,365 245,373 245,380 245,388 245,395 245,403 245,411 246,418 246,426 246,434 246,442 246,450 246,457 246,465 "/>
    <polygon class="fil9" points="274,243 386,352 393,341 401,332 290,220 281,231 "/>
    <polygon class="fil10" points="290,220 401,332 409,323 417,314 308,201 299,210 "/>
    <polygon class="fil11" points="308,201 417,314 426,307 435,300 328,185 318,193 "/>
    <polygon class="fil12" points="328,185 435,300 444,294 454,288 349,172 338,178 "/>
    <polygon class="fil13" points="349,172 454,288 463,283 473,279 371,162 360,166 "/>
    <polygon class="fil14" points="371,162 473,279 483,276 494,273 504,271 406,152 394,155 383,158 "/>
    <polygon class="fil15" points="406,152 504,271 515,270 525,269 536,269 441,150 430,150 418,151 "/>
    <polygon class="fil16" points="441,150 536,269 546,269 557,270 567,272 477,154 465,152 453,150 "/>
    <polygon class="fil17" points="477,154 567,272 577,274 588,278 598,281 511,164 500,160 488,156 "/>
    <polygon class="fil18" points="511,164 598,281 607,285 617,290 626,296 543,180 532,174 522,169 "/>
    <polygon class="fil19" points="543,180 626,296 635,302 643,309 562,195 553,187 "/>
    <polygon class="fil20" points="562,195 643,309 652,316 659,324 580,212 572,203 "/>
    <polygon class="fil21" points="580,212 659,324 667,333 674,342 596,232 589,222 "/>
    <polygon class="fil8" points="274,243 386,352 393,341 401,332 409,323 417,314 426,307 435,300 444,294 454,288 463,283 473,279 483,276 494,273 504,271 515,270 525,269 536,269 546,269 557,270 567,272 577,274 588,278 598,281 607,285 617,290 626,296 635,302 643,309 652,316 659,324 667,333 674,342 596,232 589,222 580,212 572,203 562,195 553,187 543,180 532,174 522,169 511,164 500,160 488,156 477,154 465,152 453,150 441,150 430,150 418,151 406,152 394,155 383,158 371,162 360,166 349,172 338,178 328,185 318,193 308,201 299,210 290,220 281,231 "/>
    <polygon class="fil22" points="708,1261 773,1258 781,1258 789,1257 796,1256 803,1255 742,1258 734,1259 726,1260 717,1261 "/>
    <polygon class="fil23" points="742,1258 803,1255 811,1254 818,1252 825,1250 832,1248 774,1250 766,1253 758,1255 750,1257 "/>
    <polygon class="fil24" points="774,1250 832,1248 839,1246 845,1243 852,1240 858,1236 803,1237 796,1241 789,1244 782,1248 "/>
    <polygon class="fil25" points="803,1237 858,1236 864,1232 870,1228 876,1223 881,1217 829,1216 823,1222 817,1227 810,1232 "/>
    <polygon class="fil26" points="829,1216 881,1217 886,1211 892,1205 896,1198 847,1194 841,1202 835,1209 "/>
    <polygon class="fil27" points="847,1194 896,1198 901,1191 852,1186 "/>
    <polygon class="fil8" points="708,1261 773,1258 781,1258 789,1257 796,1256 803,1255 811,1254 818,1252 825,1250 832,1248 839,1246 845,1243 852,1240 858,1236 864,1232 870,1228 876,1223 881,1217 886,1211 892,1205 896,1198 901,1191 852,1186 847,1194 841,1202 835,1209 829,1216 823,1222 817,1227 810,1232 803,1237 796,1241 789,1244 782,1248 774,1250 766,1253 758,1255 750,1257 742,1258 734,1259 726,1260 717,1261 "/>
    <polygon class="fil28" points="852,1186 901,1191 903,1187 905,1183 907,1179 909,1175 911,1172 912,1168 913,1164 866,1156 864,1160 863,1164 861,1168 859,1173 857,1177 854,1181 "/>
    <polygon class="fil29" points="866,1156 913,1164 915,1161 916,1157 917,1153 918,1150 918,1146 919,1142 920,1139 920,1135 873,1123 873,1127 872,1131 871,1136 870,1140 869,1144 868,1148 867,1152 "/>
    <polygon class="fil30" points="873,1123 920,1135 920,1131 921,1128 921,1124 921,1120 921,1116 921,1112 922,1108 922,1104 875,1088 875,1093 875,1098 875,1102 875,1106 874,1111 874,1115 874,1119 "/>
    <polygon class="fil31" points="875,1088 922,1104 922,1100 922,1096 921,1091 921,1087 921,1082 921,1078 921,1073 875,1054 875,1059 875,1064 875,1069 875,1074 875,1079 875,1084 "/>
    <polygon class="fil32" points="875,1054 921,1073 921,1068 921,1063 875,1043 875,1048 "/>
    <polygon class="fil8" points="852,1186 901,1191 903,1187 905,1183 907,1179 909,1175 911,1172 912,1168 913,1164 915,1161 916,1157 917,1153 918,1150 918,1146 919,1142 920,1139 920,1135 920,1131 921,1128 921,1124 921,1120 921,1116 921,1112 922,1108 922,1104 922,1100 922,1096 921,1091 921,1087 921,1082 921,1078 921,1073 921,1068 921,1063 875,1043 875,1048 875,1054 875,1059 875,1064 875,1069 875,1074 875,1079 875,1084 875,1088 875,1093 875,1098 875,1102 875,1106 874,1111 874,1115 874,1119 873,1123 873,1127 872,1131 871,1136 870,1140 869,1144 868,1148 867,1152 866,1156 864,1160 863,1164 861,1168 859,1173 857,1177 854,1181 "/>
    <polygon class="fil33" points="875,1043 921,1063 921,700 875,634 "/>
    <polygon class="fil8" points="875,1043 921,1063 921,700 875,634 "/>
    <polygon class="fil34" points="875,634 921,700 921,695 921,690 921,686 920,681 920,677 919,672 872,603 873,608 873,613 874,618 874,624 874,629 "/>
    <polygon class="fil35" points="872,603 919,672 918,668 917,663 916,659 915,655 914,650 912,646 911,642 863,569 864,574 866,579 867,583 869,588 870,593 871,598 "/>
    <polygon class="fil36" points="863,569 911,642 909,638 907,634 905,630 903,626 901,622 899,619 849,543 852,547 854,551 856,556 859,560 861,565 "/>
    <polygon class="fil8" points="875,634 921,700 921,695 921,690 921,686 920,681 920,677 919,672 918,668 917,663 916,659 915,655 914,650 912,646 911,642 909,638 907,634 905,630 903,626 901,622 899,619 849,543 852,547 854,551 856,556 859,560 861,565 863,569 864,574 866,579 867,583 869,588 870,593 871,598 872,603 873,608 873,613 874,618 874,624 874,629 "/>
    <polygon class="fil37" points="782,485 839,567 837,564 779,481 "/>
    <polygon class="fil8" points="782,485 839,567 837,564 779,481 "/>
    <polygon class="fil38" points="779,481 837,564 837,552 837,540 780,455 779,468 "/>
    <polygon class="fil39" points="780,455 837,540 837,528 837,517 780,429 780,442 "/>
    <polygon class="fil40" points="780,429 837,517 837,506 837,495 780,404 780,417 "/>
    <polygon class="fil41" points="780,404 837,495 837,485 837,474 837,464 780,369 780,381 780,393 "/>
    <polygon class="fil42" points="780,369 837,464 837,454 836,444 836,435 779,336 779,347 779,358 "/>
    <polygon class="fil43" points="779,336 836,435 835,425 835,416 834,407 776,305 777,315 778,326 "/>
    <polygon class="fil44" points="776,305 834,407 833,398 831,389 830,380 772,274 773,284 775,295 "/>
    <polygon class="fil45" points="772,274 830,380 828,371 826,362 824,353 765,245 768,255 770,265 "/>
    <polygon class="fil46" points="765,245 824,353 821,345 818,336 815,328 756,216 759,226 762,235 "/>
    <polygon class="fil47" points="756,216 815,328 812,319 808,311 804,302 743,188 747,197 752,207 "/>
    <polygon class="fil8" points="779,481 837,564 837,552 837,540 837,528 837,517 837,506 837,495 837,485 837,474 837,464 837,454 836,444 836,435 835,425 835,416 834,407 833,398 831,389 830,380 828,371 826,362 824,353 821,345 818,336 815,328 812,319 808,311 804,302 743,188 747,197 752,207 756,216 759,226 762,235 765,245 768,255 770,265 772,274 773,284 775,295 776,305 777,315 778,326 779,336 779,347 779,358 780,369 780,381 780,393 780,404 780,417 780,429 780,442 780,455 779,468 "/>
   </g>
   <path class="fil48" d="M632 472l-387 1c3,-84 -12,-166 29,-230 81,-129 256,-120 330,0 41,68 24,143 28,229zm-534 13c-33,13 -67,46 -82,79 -19,45 -13,100 -13,152 0,109 0,218 0,327 0,57 -4,96 21,141 16,29 51,60 93,71 41,11 410,6 483,6 98,0 198,18 252,-75 28,-48 23,-83 23,-143l0 -409c-1,-57 -25,-107 -71,-136 -9,-5 -19,-7 -25,-17 0,-146 11,-238 -67,-341 -141,-188 -414,-181 -547,0 -78,105 -67,197 -67,345z"/>
   <g>
    <g>
     <path class="fil49" d="M490 1024c-2,1 -3,2 -4,3 -6,5 -14,10 -21,14 -13,6 -25,12 -38,18l-185 94 -8 0c-35,0 -73,-8 -108,-14 0,0 -1,0 -1,0 -4,1 -7,2 -12,3l-41 10 -1 -42c0,0 0,-1 0,-1 -1,-6 -2,-11 -2,-17l0 -104c0,-31 13,-39 27,-63l0 0 52 -82 0 0c2,-3 4,-6 6,-9l0 -11c-1,-15 -4,-34 -6,-50 -3,-15 -4,-33 -8,-48l-12 -25 216 -123c8,-8 14,-11 25,-14 3,-1 4,-1 7,-3 5,-3 8,-6 13,-9 11,-5 22,-4 33,-4l34 0 0 34c0,0 0,0 0,1l20 5c35,9 43,29 62,55 10,13 20,27 30,40 5,-21 12,-43 17,-65l6 -26 27 0c8,0 17,2 25,3 10,2 21,4 32,6 15,3 31,6 47,9 10,2 17,1 27,7 12,6 18,17 23,29 7,19 14,39 20,58l14 43c0,0 0,0 0,0 5,6 7,13 8,21l0 0 0 4c0,26 -8,39 -15,63l-69 213c-6,19 -9,40 -24,54 -20,18 -50,15 -74,15 -19,0 -31,-5 -46,-14 -8,-5 -17,-9 -25,-14 -8,-5 -16,-10 -24,-15 -12,-7 -21,-10 -31,-22 -6,-8 -12,-18 -16,-27zm-259 -278l2 16 72 -22 0 3 22 -12c8,-5 24,-11 40,-15l2 -48c-18,10 -36,20 -53,30 -22,12 -44,25 -65,37 -7,4 -13,7 -20,11zm81 26l33 137 -23 13c-18,9 -57,22 -76,26l-47 11 4 -36c-7,10 -14,20 -20,31 -6,9 -12,18 -17,27 -2,3 -8,11 -9,13 0,1 0,2 0,2 0,12 0,24 -1,36 3,-1 5,-2 7,-3 19,-11 39,-20 58,-29l142 -72 0 0c3,-1 6,-3 10,-4 0,0 0,0 0,0 0,-8 1,-15 2,-23 1,-5 2,-15 1,-19 -1,-5 -5,-10 -8,-14 -7,-13 -15,-25 -22,-38 -10,-18 -21,-35 -31,-53l-3 -5zm178 77l10 19c8,15 17,30 25,45 8,16 16,31 24,46 6,10 12,20 18,29l7 0 -39 -79c-12,-24 -19,-50 -29,-75 -4,-13 -9,-25 -14,-38l-2 53zm85 139l7 0c16,-51 33,-102 50,-153 12,-37 24,-75 36,-113 3,-10 6,-20 9,-30 -3,0 -5,-1 -8,-1 -4,-1 -8,-1 -12,-2l-82 299z"/>
     <path class="fil50" d="M503 1013l-13 -25c-3,11 -8,20 -14,25 -6,5 -13,9 -19,13 -13,6 -25,12 -38,17l-181 93 -4 0c-33,0 -72,-8 -105,-14 -1,0 -4,-1 -6,-1 -5,2 -8,3 -14,5l-20 4 -1 -20c0,-2 0,-3 0,-5 -1,-5 -1,-9 -1,-13l0 -104c0,-25 12,-34 24,-54l0 0 51 -82 0 0c3,-4 6,-8 9,-12l0 -17c0,-6 -1,-13 -2,-18 -1,-12 -3,-23 -5,-34 -1,-12 -3,-23 -5,-34 0,-6 -1,-12 -2,-18l-7 -13 204 -115c2,-1 3,-3 4,-4 5,-4 10,-6 15,-7 5,-2 7,-2 12,-5 4,-3 8,-7 12,-9 7,-3 17,-2 25,-2l17 0 0 17c0,3 1,11 2,14l31 9c29,7 36,26 52,48 12,16 24,32 36,48 5,7 11,14 16,21 3,-10 5,-21 8,-32 5,-22 12,-45 18,-68l3 -13 13 0c7,0 15,2 22,3 10,2 21,4 31,6 16,3 32,6 48,9 8,2 15,1 22,5 8,4 12,12 15,20 7,19 13,38 20,58l14 43c1,1 1,2 1,3 4,3 6,8 6,12l0 4c0,23 -7,36 -14,57l-70 214c-4,14 -8,36 -19,46 -7,7 -16,9 -26,10 -12,2 -24,1 -36,1 -16,0 -25,-4 -38,-12 -8,-4 -16,-9 -24,-14 -8,-5 -16,-9 -24,-14 -10,-6 -19,-9 -27,-19 -6,-7 -11,-18 -16,-27zm-291 -276l7 47 73 -22 33 138 -11 7c-11,5 -26,10 -37,14 -11,4 -24,8 -35,11l-24 5 8 -66c-4,1 -8,2 -10,4 -5,2 -10,10 -13,15 -11,19 -23,37 -35,55 -5,10 -11,18 -17,27 -5,9 -11,14 -11,24 0,22 -1,44 -1,66 11,-6 22,-13 32,-19 19,-10 38,-19 57,-28l142 -71c4,-2 14,-6 19,-9 0,-2 0,-5 0,-7 1,-8 2,-16 3,-25 1,-8 3,-19 0,-26 -2,-6 -6,-13 -9,-18 -8,-12 -15,-24 -22,-37 -10,-18 -21,-35 -31,-54l-8 -14 14 -9c8,-4 22,-8 31,-11 5,-2 10,-4 16,-5l5 -91c-5,2 -9,4 -13,7 -23,12 -45,25 -68,38 -21,13 -43,25 -65,37 -9,5 -19,11 -30,17zm257 109l16 30c8,15 17,30 25,45 8,16 16,31 24,46 7,13 16,25 22,39l38 -1c18,-55 36,-110 54,-165 12,-38 25,-76 37,-115 4,-13 8,-27 12,-40 1,-2 2,-4 2,-6 -10,-2 -21,-4 -27,-5 -9,-1 -18,-3 -27,-4l-75 272 -20 -41c-11,-23 -19,-49 -28,-73 -8,-24 -18,-47 -27,-71 -6,-17 -12,-35 -19,-53 -3,-10 -7,-20 -11,-31 -2,-3 -4,-9 -6,-14 -1,0 -3,-1 -5,-1 2,4 4,7 6,11 5,12 17,36 18,49l0 1 -5 125 -4 2z"/>
    </g>
    <path class="fil51" d="M455 992c6,-1 6,-2 13,-2 -1,2 -3,4 -7,4 -7,2 -2,4 -6,-2zm325 -224l0 2 0 1 0 0c0,21 -7,31 -14,52l-69 213c-15,46 -4,46 -65,46 -14,0 -21,-4 -29,-9 -9,-5 -16,-9 -24,-14 -9,-6 -16,-10 -24,-15 -8,-4 -17,-8 -22,-14 -5,-6 -11,-18 -15,-25l-37 -68c-2,-4 -1,-2 -3,-5 0,15 -1,58 -13,68 -4,3 -11,8 -16,11 -13,6 -23,11 -37,17l-178 91c-29,0 -72,-8 -102,-14 -18,-3 -12,1 -27,4 0,-9 -1,-7 -1,-17l0 -104c0,-19 9,-25 21,-45l51 -82c26,-38 27,-15 37,-28 -13,-4 -2,-10 -25,-10 0,-9 -14,-106 -15,-110l191 -108c8,-6 3,-6 14,-9 7,-2 10,-3 16,-7 15,-9 5,-8 28,-8 0,13 3,26 13,30l33 9c22,6 27,21 42,42 13,17 24,32 36,48 7,9 12,16 19,25 5,7 12,16 15,26 6,-4 18,-60 20,-67 6,-24 13,-45 18,-69 10,0 82,15 98,18 15,3 19,-1 24,14 8,19 13,37 20,57l14 43c5,15 6,9 6,11zm-586 -41c27,-12 195,-112 212,-118l-7 133c-9,2 -47,14 -55,18 11,19 21,35 32,54 29,53 39,50 33,92 -6,47 3,37 -31,53l-142 71c-18,9 -38,18 -57,28 -15,9 -37,24 -56,29 -1,-30 0,-61 0,-91 0,-16 7,-22 14,-32 6,-11 11,-17 17,-27 12,-20 23,-37 35,-56 16,-26 22,-24 57,-31l-8 65c15,-3 56,-17 68,-23l-26 -109 -75 23 -11 -79zm238 -92c7,0 33,7 39,11 5,4 36,94 40,105 10,25 18,47 27,71 9,23 17,51 28,72l66 -243c18,3 75,10 88,16 0,12 -107,336 -114,355l-61 1c-5,-15 -17,-33 -25,-47 -9,-16 -17,-32 -25,-47 -8,-16 -17,-29 -26,-46l-24 -47 11 -4 5 -113c-1,-13 -28,-65 -35,-82 -2,-3 -2,3 -1,-4 6,0 2,-2 7,2z"/>
    <g>
     <path class="fil51" d="M176 842l-20 -136 24 -10c12,-6 26,-14 37,-20 22,-12 43,-25 65,-37 23,-13 46,-26 69,-39 12,-7 31,-19 44,-23l48 -16 -11 210 -27 5c-3,0 -7,1 -10,3 3,6 7,12 10,18 26,46 45,57 38,113 -3,18 -2,40 -12,55 -10,13 -25,18 -38,24l-142 72c-18,9 -37,17 -55,27 -21,12 -41,25 -65,32l-41 11 -1 -43c-1,-31 0,-62 0,-93 0,-13 3,-25 11,-37 2,-4 5,-8 7,-12 6,-9 12,-18 18,-27 11,-19 23,-37 35,-55 5,-10 11,-17 16,-22z"/>
     <path class="fil52" d="M258 892c3,-1 5,-2 8,-3 6,-2 13,-4 20,-7l-18 -77 -77 24 -16 -113 12 -5c13,-5 27,-14 39,-21 21,-12 43,-24 64,-36 23,-13 46,-27 69,-39 9,-5 17,-10 26,-14 5,-3 10,-6 16,-8l23 -8 -8 172 -14 2c-8,1 -17,5 -25,7 -2,1 -5,2 -8,3 7,12 15,24 22,37 6,12 13,23 21,35 5,8 10,16 13,25 4,14 3,28 1,42 -1,9 -2,18 -3,27 -1,7 -2,14 -6,20 -7,9 -22,14 -32,19l-141 72c-19,9 -38,17 -56,27 -20,11 -39,24 -61,30l-21 6 0 -22c-1,-30 0,-61 0,-91 0,-21 7,-26 16,-41 6,-9 12,-18 17,-27 11,-19 24,-37 35,-55 20,-34 33,-33 69,-39l23 -4 -8 62z"/>
    </g>
    <path class="fil53" d="M194 727l11 79 75 -23 26 109c-12,6 -53,20 -68,23l8 -65c-35,7 -41,5 -57,31 -12,19 -23,36 -35,56 -6,10 -11,16 -17,27 -7,10 -14,16 -14,32 0,30 -1,61 0,91 19,-5 41,-20 56,-29 19,-10 39,-19 57,-28l142 -71c34,-16 25,-6 31,-53 6,-42 -4,-39 -33,-92 -11,-19 -21,-35 -32,-54 8,-4 46,-16 55,-18l7 -133c-17,6 -185,106 -212,118z"/>
    <g>
     <path class="fil51" d="M435 601c14,1 44,10 55,17 11,7 16,21 21,33 5,12 9,24 13,36 7,17 13,35 19,52 6,15 12,30 17,45l47 -172 31 5c14,3 28,4 42,7 16,2 41,6 55,13l18 9 1 20c0,14 -15,56 -19,71 -13,39 -26,79 -38,119 -20,59 -39,118 -58,177l-8 23 -109 1 -8 -22c-6,-14 -17,-29 -24,-43 -9,-16 -17,-32 -25,-47 -8,-16 -18,-30 -26,-46l-42 -82 26 -9 4 -86c-3,-9 -10,-23 -14,-32 -6,-13 -13,-28 -19,-42l-7 -20 9 -9c9,-18 23,-19 39,-18z"/>
     <path class="fil52" d="M433 618c11,1 39,8 47,14 7,5 12,17 15,25 5,12 9,24 13,36 7,17 13,35 19,52 9,24 18,48 27,71 3,8 6,16 9,24l57 -209 15 3c14,2 28,4 43,7 13,2 37,5 49,11l9 5 1 10c0,6 -4,17 -6,23 -4,14 -8,28 -12,41 -13,40 -26,80 -39,120 -19,59 -38,118 -57,177l-4 11 -85 1 -4 -11c-6,-15 -17,-31 -25,-45 -9,-16 -17,-32 -25,-47 -8,-16 -18,-30 -26,-46l-33 -64 19 -7 4 -100c-1,-3 -3,-9 -5,-12 -3,-9 -7,-17 -10,-25 -6,-13 -14,-27 -19,-41l-3 -9 4 -4c0,-1 0,-1 0,-1 4,-12 13,-11 22,-10z"/>
    </g>
    <path class="fil53" d="M432 635c-9,-1 -3,-1 -6,2 7,17 34,69 35,82l-5 113 -11 4 24 47c9,17 18,30 26,46 8,15 16,31 25,47 8,14 20,32 25,47l61 -1c7,-19 114,-343 114,-355 -13,-6 -70,-13 -88,-16l-66 243c-11,-21 -19,-49 -28,-72 -9,-24 -17,-46 -27,-71 -4,-11 -35,-101 -40,-105 -6,-4 -32,-11 -39,-11z"/>
    <path class="fil54" d="M426 637c3,-3 -3,-3 6,-2 -5,-4 -1,-2 -7,-2 -1,7 -1,1 1,4z"/>
   </g>
   <path class="fil8 str0" d="M632 472l-387 1c3,-84 -12,-166 29,-230 81,-129 256,-120 330,0 41,68 24,143 28,229zm-534 13c-33,13 -67,46 -82,79 -19,45 -13,100 -13,152 0,109 0,218 0,327 0,57 -4,96 21,141 16,29 51,60 93,71 41,11 410,6 483,6 98,0 198,18 252,-75 28,-48 23,-83 23,-143l0 -409c-1,-57 -25,-107 -71,-136 -9,-5 -19,-7 -25,-17 0,-146 11,-238 -67,-341 -141,-188 -414,-181 -547,0 -78,105 -67,197 -67,345z"/>
  </g>
 </g>
</svg>
