<?xml version="1.0" encoding="UTF-8"?>
<!DOCTYPE svg PUBLIC "-//W3C//DTD SVG 1.1//EN" "http://www.w3.org/Graphics/SVG/1.1/DTD/svg11.dtd">
<!-- Creator: CorelDRAW 2020 (64 Bit) -->
<svg xmlns="http://www.w3.org/2000/svg" xml:space="preserve" width="127px" height="100px" version="1.1" shape-rendering="geometricPrecision" text-rendering="geometricPrecision" image-rendering="optimizeQuality" fill-rule="evenodd" clip-rule="evenodd"
viewBox="0 0 41.88 32.89"
 xmlns:xlink="http://www.w3.org/1999/xlink"
 xmlns:xodm="http://www.corel.com/coreldraw/odm/2003">
 <defs>
   <linearGradient id="id0" gradientUnits="userSpaceOnUse" x1="-0.65" y1="11.19" x2="3.48" y2="21.7">
    <stop offset="0" stop-opacity="1" stop-color="#B1FFD0"/>
    <stop offset="0.478431" stop-opacity="1" stop-color="#709E82"/>
    <stop offset="1" stop-opacity="1" stop-color="#BFA2D6"/>
   </linearGradient>
   <linearGradient id="id1" gradientUnits="userSpaceOnUse" x1="3.07" y1="8.48" x2="14.4" y2="24.4">
    <stop offset="0" stop-opacity="1" stop-color="#B1FFD0"/>
    <stop offset="0.478431" stop-opacity="1" stop-color="#709E82"/>
    <stop offset="1" stop-opacity="1" stop-color="#BFA2D6"/>
   </linearGradient>
   <linearGradient id="id2" gradientUnits="userSpaceOnUse" x1="8.33" y1="8.74" x2="24.81" y2="24.15">
    <stop offset="0" stop-opacity="1" stop-color="#B1FFD0"/>
    <stop offset="0.478431" stop-opacity="1" stop-color="#709E82"/>
    <stop offset="1" stop-opacity="1" stop-color="#BFA2D6"/>
   </linearGradient>
   <linearGradient id="id3" gradientUnits="userSpaceOnUse" x1="15.69" y1="10.96" x2="32.1" y2="21.93">
    <stop offset="0" stop-opacity="1" stop-color="#B1FFD0"/>
    <stop offset="0.478431" stop-opacity="1" stop-color="#709E82"/>
    <stop offset="1" stop-opacity="1" stop-color="#BFA2D6"/>
   </linearGradient>
   <linearGradient id="id4" gradientUnits="userSpaceOnUse" x1="26.91" y1="9.1" x2="37.58" y2="23.79">
    <stop offset="0" stop-opacity="1" stop-color="#B1FFD0"/>
    <stop offset="0.478431" stop-opacity="1" stop-color="#709E82"/>
    <stop offset="1" stop-opacity="1" stop-color="#BFA2D6"/>
   </linearGradient>
   <linearGradient id="id5" gradientUnits="userSpaceOnUse" x1="38.96" y1="11.82" x2="41.72" y2="21.06">
    <stop offset="0" stop-opacity="1" stop-color="#B1FFD0"/>
    <stop offset="0.478431" stop-opacity="1" stop-color="#709E82"/>
    <stop offset="1" stop-opacity="1" stop-color="#BFA2D6"/>
   </linearGradient>
   <linearGradient id="id6" gradientUnits="userSpaceOnUse" x1="15.61" y1="1.31" x2="24.73" y2="31.58">
    <stop offset="0" stop-opacity="1" stop-color="#B1FFD0"/>
    <stop offset="0.478431" stop-opacity="1" stop-color="#709E82"/>
    <stop offset="1" stop-opacity="1" stop-color="#BFA2D6"/>
   </linearGradient>
 </defs>
 <g id="Camada_x0020_1">
  <metadata id="CorelCorpID_0Corel-Layer"/>
  <rect fill="url(#id0)" y="10.41" width="2.83" height="12.08" rx="4.27" ry="4.27"/>
  <rect fill="url(#id1)" x="7.19" y="4.5" width="3.08" height="23.9" rx="2.72" ry="2.72"/>
  <rect fill="url(#id2)" x="15.16" width="2.83" height="32.89" rx="4.27" ry="4.27"/>
  <rect fill="url(#id3)" x="22.61" y="3.31" width="2.57" height="26.27" rx="3.5" ry="2.77"/>
  <rect fill="url(#id4)" x="30.83" y="5.27" width="2.83" height="22.35" rx="2.33" ry="2.33"/>
  <rect fill="url(#id5)" x="38.8" y="11.43" width="3.08" height="10.02" rx="3.88" ry="3.88"/>
  <path fill="url(#id6)" d="M25.18 4.59c0,7.9 0,15.8 0,23.71 0,0.7 -0.58,1.28 -1.28,1.28 -0.71,0 -1.29,-0.58 -1.29,-1.28l0 -7.81 -0.33 -0.47c-0.42,-0.59 -3.72,-1.27 -4.29,-2.04l0 13.5c0,0.77 -0.64,1.41 -1.42,1.41 -0.77,0 -1.41,-0.64 -1.41,-1.41 0,-10.03 0,-20.05 0,-30.07 0,-0.77 0.64,-1.41 1.41,-1.41 0.78,0 1.37,0.28 1.41,1.06 0.01,4.25 -0.02,8.49 -0.02,12.74 0,1.6 -0.01,2.2 1.42,3.28 0.26,0.2 0.41,0.28 0.7,0.42l2.56 1.03c-0.01,-1.71 0.02,-3.46 0,-5.16 -0.02,-1.15 -0.1,-1.5 -1.33,-1.71 -0.64,-0.12 -2.69,-0.42 -3.34,-0.89l0 -1.06c1.24,0.08 1.65,1.13 3.34,1 0.22,-0.01 1.03,-0.17 1.17,-0.31 0.36,-0.35 0.17,-4.09 0.17,-4.8 0,-0.37 -0.01,-0.74 -0.01,-1.11 -0.01,-0.71 0.55,-1.18 1.26,-1.18 0.7,0 1.28,0.58 1.28,1.28z"/>
 </g>
</svg>
